<?xml version="1.0" encoding="UTF-8"?>
<svg xmlns="http://www.w3.org/2000/svg" xmlns:xlink="http://www.w3.org/1999/xlink" width="60px" height="60px" viewBox="0 0 60 60" version="1.1">
  <title>atm终端</title>
  <g id="页面" stroke="none" stroke-width="1" fill="none" fill-rule="evenodd">
    <g id="图标" transform="translate(-344.000000, -132.000000)">
      <g id="编组-3" transform="translate(357.000000, 135.000000)">
        <path d="M7.05923637,3.70391594 L12.3112673,0.386711577 C12.6865864,0.149658504 13.1635476,0.144697665 13.5437161,0.373892968 L29.2972917,9.87138064 C30.3539845,10.5084377 31,11.6522417 31,12.8861142 L31,34.1601872 C31,34.3042714 30.9469803,34.4433177 30.8510474,34.5508218 L28.3734951,37.3272078 C28.2775621,37.4347119 28.2245424,37.5737583 28.2245424,37.7178425 L28.2245424,48.2603484 C28.2245424,48.4673796 28.1154289,48.659085 27.9374224,48.7647998 L18.0256156,54.6512363 C17.7470148,54.8166921 17.3870358,54.72497 17.22158,54.4463692 C17.1677409,54.3557129 17.1393271,54.2522232 17.1393271,54.146785 L17.1393271,10.8979064 L17.1393271,10.8979064 L7.06509718,4.69966217 C6.78912053,4.5298655 6.70304465,4.16849482 6.87284132,3.89251817 C6.91976587,3.81625 6.98352585,3.75173501 7.05923637,3.70391594 Z" id="路径-7" stroke="#1654E7" stroke-width="0.586704251" fill="#488AF9"></path>
        <path d="M1.96437063,25.5400729 L18.2213495,35.1343382 L18.2213495,53.9290735 C18.2213495,54.1720943 18.1228459,54.3921084 17.963587,54.5513673 C17.8043281,54.7106262 17.584314,54.8091299 17.3412932,54.8091299 L17.3412932,54.8091299 L1.08431425,45.2148646 L1.08431425,26.4201293 C1.08431425,26.1771084 1.18281792,25.9570943 1.3420768,25.7978355 C1.50133568,25.6385766 1.72134977,25.5400729 1.96437063,25.5400729 L1.96437063,25.5400729 Z" id="矩形备份-12" stroke="#1654E7" stroke-width="0.586704251" fill="#0A5FF1"></path>
        <polygon id="矩形" fill="#1654E7" points="11.734085 36.0193164 15.8011945 38.6625643 15.8011945 40.4152208 11.734085 37.7719729"></polygon>
        <polygon id="矩形备份-13" fill="#1654E7" points="2.346817 30.177128 6.4139265 32.8203759 6.4139265 34.5730324 2.346817 31.9297845"></polygon>
        <path d="M6.56900802,21.2998677 L23.3131641,31.2309079 L18.0375289,36.8271363 L1.58830747,26.7192821 C1.38125394,26.5920501 1.2453731,26.3929382 1.19306363,26.1738708 C1.14417367,25.9691241 1.16828598,25.7469456 1.27552321,25.5497282 L1.27552321,25.5497282 L6.56900802,21.2998677 Z" id="矩形备份-11" stroke="#1654E7" stroke-width="0.586704251" fill="#488AF9"></path>
        <path d="M7.04045101,3.91877988 L22.2328154,12.9503427 C23.1998917,13.534683 23.790886,14.5822845 23.790886,15.7121916 L23.790886,15.7121916 L23.790886,30.9791088 L6.16039463,21.3326706 L6.16039463,4.79883625 C6.16039463,4.55581539 6.2588983,4.3358013 6.41815718,4.17654242 C6.57741605,4.01728354 6.79743015,3.91877988 7.04045101,3.91877988 L7.04045101,3.91877988 Z" id="矩形" stroke="#1654E7" stroke-width="0.586704251" fill="#0A5FF1"></path>
        <path d="M7.92050738,8.43440087 L20.7464601,15.6894527 C21.1849794,15.9553126 21.4528065,16.4308919 21.4528065,16.9437083 L21.4528065,16.9437083 L21.4528065,26.8626822 C21.4528065,26.9436891 21.419972,27.0170272 21.3668857,27.0701135 C21.3291157,27.1078835 21.281094,27.1354019 21.2273526,27.1481369 L21.2273526,27.1481369 L8.34431528,19.4363364 C8.08120368,19.2768205 7.92050738,18.991473 7.92050738,18.6837831 L7.92050738,18.6837831 L7.92050738,8.43440087 Z" id="矩形" stroke="#1654E7" stroke-width="0.586704251" fill="#FFFFFF"></path>
        <path d="M14.8306048,9.59900862 L15.8723525,10.229528 C16.2235916,10.4421161 16.4381754,10.8228205 16.4381754,11.2333843 L16.4381754,11.4483215 C16.4381754,11.7211181 16.2170301,11.9422634 15.9442335,11.9422634 C15.8540634,11.9422634 15.7656136,11.9175807 15.6884727,11.870891 L14.646725,11.2403716 C14.2954858,11.0277835 14.080902,10.6470792 14.080902,10.2365154 L14.080902,10.0215781 C14.080902,9.74878154 14.3020473,9.52763622 14.5748439,9.52763622 C14.665014,9.52763622 14.7534638,9.55231896 14.8306048,9.59900862 Z" id="矩形" fill="#FFFFFF"></path>
        <path d="M8.93196423,28.5612726 L11.0232722,26.5719723 C11.2165576,26.3881148 11.5095464,26.3577954 11.736385,26.4981771 L15.2395748,28.6661664 C15.5151073,28.8366828 15.6002396,29.1982769 15.4297231,29.4738094 C15.4016539,29.5191657 15.3675307,29.5604824 15.3282965,29.5966176 L13.1249069,31.6259724 C12.9275788,31.8077145 12.6321142,31.8324637 12.4073012,31.6860818 L9.01619309,29.4780381 C8.74465402,29.3012316 8.66785814,28.9377757 8.84466469,28.6662366 C8.86958074,28.6279706 8.89887889,28.5927442 8.93196423,28.5612726 Z" id="路径-8" stroke="#1654E7" stroke-width="0.586704251" fill="#0A5FF1"></path>
        <path d="M7.97219472,45.4842101 L8.10786618,45.0415188 L8.96179832,45.5810966 L9.08749393,46.188939 L10.023228,46.7802053 L9.09547461,43.3237081 L8.02606427,42.6479751 L7.04045101,44.8954651 L7.97219472,45.4842101 Z M8.80218483,44.8657542 L8.25550865,44.5203235 C8.36182897,44.179448 8.43345699,43.9465379 8.47039274,43.8215933 L8.48709895,43.764149 C8.49152083,43.74857 8.49479587,43.7365601 8.49692405,43.7281193 C8.51288539,43.6648134 8.52219618,43.6179882 8.5248564,43.5876438 L8.54480809,43.6002507 C8.55544899,43.7070537 8.57473562,43.8266589 8.60266798,43.9590662 L8.80218483,44.8657542 Z M11.8049135,47.9060067 L11.8049135,45.7122689 L12.6149519,46.2241114 L12.6149519,45.5475755 L10.1389478,43.983052 L10.1389478,44.6595879 L10.9390103,45.1651269 L10.9390103,47.3588647 L11.8049135,47.9060067 Z M13.7142898,49.1124926 L13.7142898,47.7594207 C13.7142898,47.6473319 13.704979,47.3612267 13.6863574,46.9011051 L13.7102995,46.9162334 C13.7608437,47.2310618 13.7921014,47.4136083 13.8040724,47.463873 L14.2450046,49.4478377 L15.0550431,49.9596802 L15.4760236,48.5003202 C15.4986355,48.4278727 15.5312233,48.2923404 15.5737869,48.0937233 L15.5977289,48.1088516 L15.5917434,48.2371742 C15.5824326,48.4087649 15.5777772,48.5686189 15.5777772,48.7167362 L15.5777772,50.2899825 L16.427719,50.8270389 L16.427719,47.9567652 L15.1567967,47.1537019 L14.7896856,48.4729627 C14.7577629,48.618256 14.734486,48.7469948 14.7198547,48.8591793 L14.7078837,48.8516151 C14.7038934,48.7957181 14.6942501,48.7138981 14.6789538,48.606155 C14.6636575,48.498412 14.651354,48.4255862 14.6420432,48.3876776 L14.248995,46.5800853 L12.9581209,45.7644152 L12.9581209,48.6346889 L13.7142898,49.1124926 Z" id="ATM" fill="#488AF9" fill-rule="nonzero"></path>
        <path d="M24.0842381,15.9122612 L30.6989848,12.3246498 L30.6989848,34.093109 C30.6989848,34.2361014 30.646764,34.3741716 30.5521355,34.4813737 L28.0995253,37.2598723 C28.0048969,37.3670744 27.952676,37.5051446 27.952676,37.648137 L27.952676,48.1611968 C27.952676,48.3698513 27.8418588,48.5628063 27.6616359,48.6679557 L18.5147017,54.0046559 L18.5147017,54.0046559 L18.5147017,36.784392 L23.8828061,32.110309 C24.0107759,31.9988838 24.0842381,31.8375121 24.0842381,31.6678305 L24.0842381,15.9122612 L24.0842381,15.9122612 Z" id="路径-9" fill="#3279EF"></path>
      </g>
    </g>
  </g>
</svg>
