<?xml version="1.0" encoding="UTF-8"?>
<svg xmlns="http://www.w3.org/2000/svg" xmlns:xlink="http://www.w3.org/1999/xlink" width="60px" height="60px" viewBox="0 0 60 60" version="1.1">
  <title>堡垒机</title>
  <g id="页面" stroke="none" stroke-width="1" fill="none" fill-rule="evenodd">
    <g id="图标" transform="translate(-297.000000, -38.000000)">
      <g id="堡垒机" transform="translate(303.000000, 43.000000)">
        <polygon id="Fill-1" fill="#0A5FF1" points="0 44.6429651 18.2764345 50.8901306 18.2764345 12.8622137 0 8.20382039"></polygon>
        <polygon id="Fill-2" fill="#0A5FF1" points="18.2767895 50.8897177 43.9021338 37.2725129 43.9021338 3.21298803 18.2767895 12.8629803"></polygon>
        <polygon id="Fill-3" fill="#488AF9" points="0 8.20452808 18.2764345 12.8617419 43.9017789 3.21233931 24.2871352 0"></polygon>
        <path d="M1.98536519,21.5436683 L15.5893082,24.9453156 L15.5893082,24.3779812 L1.98536519,20.9657185 L1.98536519,21.5436683 Z M1.98536519,20.2320761 L15.5893082,23.6337235 L15.5893082,23.0663891 L1.98536519,19.6535366 L1.98536519,20.2320761 Z M1.98536519,18.9316891 L15.5893082,22.3327467 L15.5893082,21.766002 L1.98536519,18.3643547 L1.98536519,18.9316891 Z M15.5893082,16.1858378 L15.5893082,20.7209744 L1.98536519,17.3193271 L1.98536519,12.7841904 L15.5893082,16.1858378 Z" id="Fill-4" fill="#D4F7FF"></path>
        <path d="M2.81035751,17.0081188 L14.7755564,20.0093295 L14.7755564,19.2538666 L2.81035751,16.2520661 L2.81035751,17.0081188 Z M2.81035751,13.8954464 L2.81035751,15.8298089 L14.7755564,18.8310196 L14.7755564,16.8966571 L2.81035751,13.8954464 Z" id="Fill-5" fill="#113B42"></path>
        <path d="M8.27435654,37.3494156 L18.276612,40.2833954 L18.276612,39.9832154 L8.35244832,37.0710561 L8.27435654,37.3494156 Z M8.27435654,39.0060085 L18.276612,41.996014 L18.276612,41.695834 L8.35244832,38.727649 L8.27435654,39.0060085 Z M8.27435654,35.6934126 L18.276612,38.5725461 L18.276612,38.2723661 L8.35244832,35.4150531 L8.27435654,35.6934126 Z M18.276612,36.560927 L8.35244832,33.7596397 L8.27435654,34.0379992 L18.2772036,36.861107 L18.276612,36.560927 Z M8.27435654,40.663191 L18.276612,43.7086326 L18.276612,43.4084525 L8.35244832,40.3736264 L8.27435654,40.663191 Z M8.27435654,42.3191941 L18.276612,45.4206614 L18.276612,45.1204814 L8.35244832,42.0420141 L8.27435654,42.3191941 Z M18.276612,47.1326902 L18.276612,46.8325102 L8.35244832,43.6974274 L8.27435654,43.9757869 L18.276612,47.1326902 Z" id="Fill-6" fill="#0590DD"></path>
        <g id="编组" transform="translate(0.067325, 0.000649)">
          <path d="M14.3398989,30.6470262 C14.196139,30.5821543 14.0269402,30.6458468 13.9618637,30.7891547 C13.9612721,30.7897445 13.9612721,30.7909239 13.9606805,30.7915137 C13.9423408,30.8333856 13.9346499,30.8793856 13.9381995,30.9253857 C13.9482568,31.1660016 14.1085816,31.3753609 14.3398989,31.4473098 C14.4836588,31.5121817 14.6528576,31.4484893 14.7179341,31.3051813 C14.7185257,31.3045916 14.7185257,31.3040018 14.7191173,31.3028223 C14.7374571,31.2609505 14.7451479,31.2149504 14.7415983,31.16954 C14.7197089,30.9324627 14.5635254,30.7295905 14.3398989,30.6470262 M14.3398989,27.0784811 C14.0168829,26.9109937 13.6181415,27.0354298 13.4483511,27.3568406 C13.3897823,27.4659434 13.3631601,27.5892 13.3708509,27.7124567 C13.4022059,28.3033809 13.7831992,28.8194075 14.3404905,29.0240489 C14.6735638,29.1856389 15.0746716,29.0523566 15.2438704,28.7238688 C15.2988896,28.621843 15.3219622,28.5056633 15.3107217,28.3906631 C15.2651682,27.8038671 14.8883162,27.2949174 14.3398989,27.0784811" id="Fill-7" fill="#02E2DF"></path>
          <polyline id="Stroke-9" stroke="#7BB8FC" stroke-width="1.24355244" points="8.20703196 10.1601215 18.0312145 12.9059727 32.4716862 7.42547535"></polyline>
          <polygon id="Stroke-11" stroke="#1654E7" stroke-width="0.989162547" points="24.1640815 0 0 8.32601549 0 44.7521858 18.142732 50.9993513 44.046722 36.8602224 44.046722 3.06785186"></polygon>
          <line x1="18.2094649" y1="12.9056189" x2="18.2094649" y2="36.1268159" id="Stroke-13" stroke="#7BB8FC" stroke-width="1.24355244"></line>
          <path d="M38.4498486,23.2312227 C35.7485829,23.2654279 36.8365434,25.2976881 28.9670218,25.3318933 L28.9670218,37.4104542 C28.9670218,42.6314639 37.2317351,47.3889343 38.4498486,47.3889343 C39.667962,47.3889343 47.9326754,42.6314639 47.9326754,37.4104542 L47.9326754,25.3318933 C40.1950815,25.3466369 41.0529079,23.198197 38.4498486,23.2312227 Z" id="Fill-15" fill="#488AF9"></path>
          <path d="M46.8792055,37.4452491 C46.8792055,41.6401031 39.0398556,46.3332913 38.4500261,46.3391932 C37.8601965,46.3444965 30.0539765,41.6070774 30.0208467,37.4452491 L30.0208467,26.6794599 C37.015977,26.6487932 36.0487038,24.8376872 38.4500261,24.8076103 C40.7637909,24.778123 40.0012128,26.693024 46.8792055,26.6794599 L46.8792055,37.4452491 Z" id="Fill-17" fill="#488AF9"></path>
          <path d="M34.8339625,33.9971299 C34.6280842,33.7918988 34.2950109,33.7918988 34.0891326,33.9971299 C34.0891326,33.9971299 34.0891326,33.9971299 34.0891326,33.9971299 C33.8832543,34.2023611 33.8832543,34.5343873 34.0891326,34.7396185 L37.4417547,38.0817016 C37.6470414,38.2869328 37.9807063,38.2869328 38.1865846,38.0817016 C38.1865846,38.0817016 38.1865846,38.0817016 38.1865846,38.0817016 L43.8648036,32.4213321 C44.0706819,32.2166907 44.0706819,31.8840747 43.8648036,31.6788435 C43.8648036,31.6788435 43.8648036,31.6788435 43.8648036,31.6788435 C43.6589253,31.4736124 43.3252604,31.4736124 43.1199737,31.6788435 L37.8132823,36.9688534 L34.8339625,33.9971299 Z" id="Fill-19" fill="#488AF9"></path>
          <path d="M35.4202425,34.1560661 C35.2368451,33.973835 34.9404513,33.973835 34.757054,34.1560661 C34.5736566,34.338887 34.5736566,34.6349388 34.757054,34.8171699 L37.7434729,37.7947908 C37.9268703,37.9770219 38.2232641,37.9770219 38.4066615,37.7947908 L43.4642874,32.7530635 C43.6470932,32.5702426 43.6470932,32.2741908 43.4642874,32.09137 C43.2808901,31.9091388 42.9844963,31.9091388 42.8010989,32.09137 L38.075363,36.8028403 L35.4202425,34.1560661 Z M46.1501714,37.2274564 C46.1501714,40.963489 39.1668731,45.1453686 38.6415284,45.1500905 C38.1161837,45.1548045 31.1618741,40.9345915 31.1322938,37.2274564 L31.1322938,27.6370283 C37.3636629,27.6093103 36.5011037,25.9963586 38.6415284,25.9692304 C40.7026781,25.9432816 40.0235163,27.6482335 46.1501714,27.6370283 L46.1501714,37.2274564 Z M38.6415284,24.565638 C36.2348817,24.5963047 37.2039297,26.4056414 30.1940093,26.4368979 L30.1940093,37.1967897 C30.1940093,41.8475163 37.5559343,46.0854216 38.6415284,46.0854216 C39.7265309,46.0854216 47.0890476,41.8475163 47.0890476,37.1967897 L47.0890476,26.4368979 C40.1956732,26.4498723 40.960026,24.5361508 38.6415284,24.565638 L38.6415284,24.565638 Z" id="Fill-21" fill="#F9F9F9"></path>
        </g>
      </g>
    </g>
  </g>
</svg>
