<?xml version="1.0" encoding="UTF-8"?>
<svg xmlns="http://www.w3.org/2000/svg" xmlns:xlink="http://www.w3.org/1999/xlink" width="13px" height="13px" viewBox="0 0 13 13" version="1.1">
  <title>云数据库 Redis备份 2</title>
  <g id="页面" stroke="none" stroke-width="1" fill="none" fill-rule="evenodd">
    <g id="图标" transform="translate(-674.000000, -305.000000)" fill-rule="nonzero">
      <g id="云数据库-Redis" transform="translate(674.000000, 305.000000)">
        <rect id="Rectangle-Copy" fill="#444444" opacity="0" x="0" y="0" width="13" height="13"></rect>
        <path d="M1.625,10.15625 L1.625,7.6375 C2.35625,8.084375 3.534375,8.409375 4.915625,8.53125 L4.915625,7.71875 C3.046875,7.596875 1.625,7.109375 1.625,6.540625 L1.625,3.98125 C2.478125,4.509375 3.98125,4.875 5.6875,4.875 C7.39375,4.875 8.896875,4.509375 9.75,3.98125 L9.75,5.484375 L10.5625,5.85 L10.5625,2.84375 C10.5625,1.70625 8.36875,0.8125 5.6875,0.8125 C3.00625,0.8125 0.8125,1.70625 0.8125,2.84375 L0.8125,10.15625 C0.8125,11.29375 3.00625,12.1875 5.6875,12.1875 C5.93125,12.1875 6.134375,12.1875 6.378125,12.146875 L4.915625,11.334375 C3.046875,11.253125 1.625,10.765625 1.625,10.15625 Z M5.728125,1.625 C8.003125,1.625 9.790625,2.153125 9.790625,2.84375 C9.790625,3.534375 7.8,4.0625 5.728125,4.0625 C3.49375,4.0625 1.665625,3.534375 1.665625,2.84375 C1.665625,2.153125 3.453125,1.625 5.728125,1.625 Z M12.1875,7.72277228 L12.1875,7.54176979 L9.140625,6.09375 L9.140625,6.09375 L9.140625,6.09375 L9.140625,6.09375 L9.140625,6.09375 L6.09375,7.5055693 L6.09375,7.5055693 L6.09375,7.5055693 L6.09375,7.5055693 L6.09375,8.3381807 L6.09375,8.3381807 L9.140625,9.75 L9.140625,9.75 L12.1875,8.30198021 L12.1875,8.30198021 L12.1875,8.30198021 L12.1875,8.30198021 L12.1875,7.72277228 Z M9.140625,8.9375 L9.140625,8.9375 L6.90625,7.921875 L9.140625,6.90625 L9.140625,6.90625 L11.375,7.921875 L9.140625,8.9375 Z M9.140625,10.485119 L9.140625,10.485119 L6.09375,9.05357143 L6.09375,9.94345239 L9.140625,11.375 L9.140625,11.375 L9.140625,11.375 L9.140625,11.375 L9.140625,11.375 L12.1875,9.82738096 L12.1875,8.9375 L9.140625,10.485119 Z M9.140625,12.110119 L9.140625,12.110119 L6.09375,10.6785714 L6.09375,11.5684524 L9.140625,13 L9.140625,13 L9.140625,13 L9.140625,13 L9.140625,13 L12.1875,11.452381 L12.1875,10.5625 L9.140625,12.110119 Z" id="Shape" fill="#0052D9"></path>
      </g>
    </g>
  </g>
</svg>
