<?xml version="1.0" encoding="UTF-8"?>
<svg xmlns="http://www.w3.org/2000/svg" xmlns:xlink="http://www.w3.org/1999/xlink" width="60px" height="60px" viewBox="0 0 60 60" version="1.1">
  <title>防火墙</title>
  <defs>
    <polygon id="path-1" points="-3.6118909e-17 0 39.9183686 0 39.9183686 23.2893432 -3.6118909e-17 23.2893432"></polygon>
    <polygon id="path-3" points="0 50.9999228 40 50.9999228 40 0 0 0"></polygon>
  </defs>
  <g id="页面" stroke="none" stroke-width="1" fill="none" fill-rule="evenodd">
    <g id="图标" transform="translate(-211.000000, -38.000000)">
      <g id="编组" transform="translate(221.000000, 43.000000)">
        <polygon id="Fill-1" fill="#0A5FF1" points="0 32.2468898 31.5450322 50.0727273 31.627907 22.4615611 0.0756396727 4.63636364"></polygon>
        <g>
          <path d="M0.961676101,32.3626253 L31.212831,49.6996313 L31.287657,23.087401 L1.04365931,5.75039498 L0.961676101,32.3626253 Z M31.6904158,50.9999029 C31.6058299,51.0017214 31.5225454,50.9779536 31.4516234,50.9323451 L0.238792374,33.0428983 C0.0904417984,32.9574627 0,32.8007237 0,32.6317796 L0.081983213,4.92173376 C0.0813325525,4.65964556 0.296701152,4.44636432 0.562170603,4.44636432 C0.647407118,4.44573534 0.731342312,4.46821839 0.80486694,4.51061501 L32.017698,22.4007042 C32.1660485,22.4854974 32.2564903,22.6422364 32.2564903,22.8111805 L32.1745071,50.5212264 C32.1738565,50.6901705 32.082764,50.8462671 31.9357148,50.9323451 C31.8615395,50.9760265 31.7769536,50.9999029 31.6904158,50.9999029 L31.6904158,50.9999029 Z" id="Fill-2" fill="#1654E7"></path>
          <polygon id="Fill-4" fill="#488AF9" points="31.7722689 22.8114375 39.5157785 18.3662161 39.4337953 46.0762619 31.6902856 50.5214833"></polygon>
          <path d="M32.2506344,23.0875294 L32.1758084,49.6997597 L38.9569913,45.8134028 L39.032468,19.2011725 L32.2506344,23.0875294 Z M31.6904158,50.9999228 C31.6071312,50.9999228 31.525148,50.9787245 31.4516234,50.9395397 C31.3032728,50.8541041 31.2121804,50.6973651 31.2128276,50.528421 L31.2948142,22.8183751 C31.2941636,22.6487886 31.385256,22.492692 31.5336066,22.4072564 L39.2771163,17.9620349 C39.4261175,17.8746722 39.6122064,17.8746722 39.7612076,17.9620349 C39.9095582,18.0474706 40,18.2035672 40,18.3731537 L39.9180168,46.0831995 C39.9186674,46.2521436 39.827575,46.4088826 39.6792244,46.4936759 L31.9357148,50.9395397 C31.8602381,50.9793668 31.7763029,50.9999228 31.6904158,50.9999228 L31.6904158,50.9999228 Z" id="Fill-6" fill="#1654E7"></path>
          <polygon id="Fill-8" fill="#488AF9" points="0.559437829 4.92186223 8.30294749 0.476640796 39.5157785 18.3660876 31.7722689 22.811309"></polygon>
          <g transform="translate(0.081631, 0.000385)">
            <mask id="mask-2" fill="white">
              <use xlink:href="#path-1"></use>
            </mask>
            <g id="Clip-11"></g>
            <path d="M1.43974284,4.92121986 L31.6902471,22.2588682 L38.4792379,18.3660876 L8.2215764,1.02715449 L1.43974284,4.92121986 Z M31.6902471,23.2893432 C31.6056612,23.2911617 31.5223767,23.2673939 31.4514547,23.2217854 L0.238623705,5.33169623 C0.00894057655,5.19936739 -0.0684880135,4.90773003 0.0661986935,4.68097234 C0.10784096,4.61031131 0.167051059,4.55121299 0.238623705,4.51010111 L7.98213337,0.0655220501 C8.13178526,-0.0218406834 8.31722348,-0.0218406834 8.46687538,0.0655220501 L39.6797064,17.9549688 C39.9093895,18.0872977 39.9868181,18.378935 39.8527821,18.6056927 C39.8111398,18.6763538 39.7512791,18.7354521 39.6797064,18.776564 L31.9361967,23.2217854 C31.8607201,23.2628973 31.7767849,23.2860227 31.6902471,23.2893432 L31.6902471,23.2893432 Z" id="Fill-10" fill="#F7FEFE" mask="url(#mask-2)"></path>
          </g>
          <path d="M31.5656191,33.1504823 C31.4797319,33.1517163 31.3951461,33.1285909 31.3222721,33.0829824 L0.252586375,14.6211812 L0.747088295,13.8060099 L31.5591125,32.1200652 L38.973388,27.5733488 L39.4750472,28.3814541 L31.8096168,33.0829824 C31.7360921,33.1266638 31.6515063,33.1497892 31.5656191,33.1504823 M31.5656191,42.438612 C31.4797319,42.4404305 31.3944954,42.4166627 31.3222721,42.3716966 L0.252586375,23.909253 L0.747088295,23.0940816 L31.5532566,41.4017133 L38.9948598,36.5723528 L39.5166894,37.3669682 L31.824582,42.3646305 C31.7465027,42.4128084 31.6573622,42.438612 31.5656191,42.438612" id="Fill-12" fill="#7BB8FC"></path>
          <mask id="mask-4" fill="white">
            <use xlink:href="#path-3"></use>
          </mask>
          <g id="Clip-15"></g>
          <path d="M11.7346607,39.2592707 L12.6963368,39.2592707 L12.6963368,30.19346 L11.7346607,30.19346 L11.7346607,39.2592707 Z M22.3026872,36.449531 L23.2643633,36.449531 L23.2643633,27.9156052 L22.3026872,27.9156052 L22.3026872,36.449531 Z M12.0892706,21.4501206 L13.0509467,21.4501206 L13.0509467,12.4626793 L12.0892706,12.4626793 L12.0892706,21.4501206 Z" id="Fill-14" fill="#02E2DF" mask="url(#mask-4)"></path>
        </g>
      </g>
    </g>
  </g>
</svg>
