<?xml version="1.0" encoding="UTF-8"?>
<svg xmlns="http://www.w3.org/2000/svg" xmlns:xlink="http://www.w3.org/1999/xlink" width="22px" height="21px" viewBox="0 0 22 21" version="1.1">
  <title>编组 13</title>
  <g id="页面" stroke="none" stroke-width="1" fill="none" fill-rule="evenodd">
    <g id="图标" transform="translate(-630.000000, -301.000000)">
      <g id="编组-13" transform="translate(630.500000, 301.614746)">
        <g id="编组-11备份" transform="translate(3.500000, 3.385254)">
          <rect id="矩形备份-12" stroke="#1654E7" fill="#488AF9" x="0.5" y="0.5" width="13.1818182" height="12"></rect>
          <path d="M7.5,3.5 L7.5,6 L10,6 L10,7 L7.5,7 L7.5,9.5 L6.5,9.5 L6.5,7 L4,7 L4,6 L6.5,6 L6.5,3.5 L7.5,3.5 Z" id="形状结合" fill="#FFFFFF"></path>
        </g>
        <path d="M2,-6.123234e-17 L1.999,0.006 L6,0.00695800781 L6,2.00695801 L1.999,2.006 L2,6 L2.22044605e-16,6 L-2.22044605e-16,6.123234e-17 L2,-6.123234e-17 Z" id="形状结合" fill="#1654E7"></path>
        <path d="M2,14 L1.999,14.006 L6,14.006958 L6,16.006958 L1.999,16.006 L2,20 L2.22044605e-16,20 L-2.22044605e-16,14 L2,14 Z" id="形状结合备份-2" fill="#1654E7" transform="translate(3.000000, 17.000000) scale(1, -1) translate(-3.000000, -17.000000) "></path>
        <path d="M17,-6.123234e-17 L16.999,0.006 L21,0.00695800781 L21,2.00695801 L16.999,2.006 L17,6 L15,6 L15,6.123234e-17 L17,-6.123234e-17 Z" id="形状结合备份" fill="#1654E7" transform="translate(18.000000, 3.000000) scale(-1, 1) translate(-18.000000, -3.000000) "></path>
        <path d="M17,14 L16.999,14.006 L21,14.006958 L21,16.006958 L16.999,16.006 L17,20 L15,20 L15,14 L17,14 Z" id="形状结合备份-3" fill="#1654E7" transform="translate(18.000000, 17.000000) scale(-1, -1) translate(-18.000000, -17.000000) "></path>
      </g>
    </g>
  </g>
</svg>
