<?xml version="1.0" encoding="UTF-8"?>
<svg xmlns="http://www.w3.org/2000/svg" xmlns:xlink="http://www.w3.org/1999/xlink" width="60px" height="60px" viewBox="0 0 60 60" version="1.1">
  <title>关系型数据库</title>
  <g id="页面" stroke="none" stroke-width="1" fill="none" fill-rule="evenodd">
    <g id="图标" transform="translate(-126.000000, -310.000000)">
      <g id="关系型数据库" transform="translate(136.000000, 318.000000)">
        <path d="M0.000110558014,27.3144823 L0.000110558014,36.3251652 C0.0708676869,41.0421522 7.88731927,44.9136624 20.0000553,44.9136624 C32.1122385,44.9136624 39.8590385,41.1123323 40,36.3251652 L40,27.3144823 L0.000110558014,27.3144823 Z" id="Fill-1" fill="#0A5FF1"></path>
        <path d="M39.9998894,27.3147033 C39.9998894,32.3129633 32.1817795,36.3955664 19.9999447,36.3955664 C7.88720871,36.3955664 0,32.3129633 0,27.3147033 C0,22.3164433 7.81810996,18.2332877 19.9999447,18.2332877 C32.1126807,18.1631076 39.9998894,22.2462632 39.9998894,27.3147033" id="Fill-3" fill="#02E2DF"></path>
        <path d="M0.000110558014,18.2331219 L0.000110558014,26.2585204 C0.0708676869,30.9749548 7.88731927,35.3399361 20.0000553,35.3399361 C32.1122385,35.3399361 39.8590385,30.9749548 40,26.2585204 L40,18.2331219 L0.000110558014,18.2331219 Z" id="Fill-5" fill="#0A5FF1"></path>
        <path d="M39.9998894,18.162776 C39.9998894,23.161036 32.1817795,27.2441917 19.9999447,27.2441917 C7.88720871,27.2441917 0,23.161036 0,18.162776 C0,13.164516 7.81810996,9.08136038 19.9999447,9.08136038 C32.1126807,9.08136038 39.9998894,13.164516 39.9998894,18.162776" id="Fill-7" fill="#FDFFFF"></path>
        <path d="M0.000110558014,9.15181678 L0.000110558014,17.1772153 C0.0708676869,21.8936497 7.88731927,26.2586309 20.0000553,26.2586309 C32.1122385,26.2586309 39.8590385,21.8936497 40,17.1772153 L40,9.15181678 L0.000110558014,9.15181678 Z" id="Fill-9" fill="#0A5FF1"></path>
        <path d="M0.000110558014,9.08141564 L0.000110558014,38.0149584 C0.000110558014,38.0149584 3.16925603,44.9843398 18.5915462,44.9141597 C18.5915462,44.9141597 35.1409753,46.3221825 39.6478727,37.7331328 L39.9297957,9.08141564" id="Stroke-11" stroke="#1654E7" stroke-width="0.5"></path>
        <path d="M39.9998894,9.08141564 C39.9998894,14.0796756 32.1817795,18.1628313 19.9999447,18.1628313 C7.88720871,18.1628313 0,14.0796756 0,9.08141564 C0,4.08315566 7.81810996,0 19.9999447,0 C32.1126807,0 39.9998894,4.08315566 39.9998894,9.08141564" id="Fill-13" fill="#488AF9"></path>
        <path d="M39.9998894,9.08141564 C39.9998894,14.0796756 32.1817795,18.1628313 19.9999447,18.1628313 C7.88720871,18.1628313 0,14.0796756 0,9.08141564 C0,4.08315566 7.81810996,0 19.9999447,0 C32.1126807,0 39.9998894,4.08315566 39.9998894,9.08141564 Z" id="Stroke-15" stroke="#7BB8FC" stroke-width="0.5"></path>
        <path d="M20.7467088,21.6880828 C21.4012123,21.6880828 21.9324435,22.218578 21.9324435,22.8734081 C21.9324435,23.5276856 21.4012123,24.0581808 20.7467088,24.0581808 C20.0922054,24.0581808 19.5609741,23.5276856 19.5609741,22.8734081 C19.5609741,22.218578 20.0922054,21.6880828 20.7467088,21.6880828" id="Fill-17" fill="#02E2DF"></path>
        <path d="M15.275248,21.1411201 C15.9297514,21.1411201 16.4609827,21.6716153 16.4609827,22.3264454 C16.4609827,22.9807229 15.9297514,23.5112181 15.275248,23.5112181 C14.6207446,23.5112181 14.0895133,22.9807229 14.0895133,22.3264454 C14.0895133,21.6716153 14.6207446,21.1411201 15.275248,21.1411201" id="Fill-19" fill="#02E2DF"></path>
        <path d="M26.2181144,21.1411201 C26.8726178,21.1411201 27.4038491,21.6716153 27.4038491,22.3264454 C27.4038491,22.9807229 26.8726178,23.5112181 26.2181144,23.5112181 C25.5636109,23.5112181 25.0323797,22.9807229 25.0323797,22.3264454 C25.0323797,21.6716153 25.5636109,21.1411201 26.2181144,21.1411201" id="Fill-21" fill="#02E2DF"></path>
        <path d="M20.7467088,30.5296703 C21.4012123,30.5296703 21.9324435,31.0601656 21.9324435,31.7149957 C21.9324435,32.3692732 21.4012123,32.8997684 20.7467088,32.8997684 C20.0922054,32.8997684 19.5609741,32.3692732 19.5609741,31.7149957 C19.5609741,31.0601656 20.0922054,30.5296703 20.7467088,30.5296703" id="Fill-23" fill="#02E2DF"></path>
        <path d="M15.275248,29.9827076 C15.9297514,29.9827076 16.4609827,30.5132029 16.4609827,31.168033 C16.4609827,31.8223105 15.9297514,32.3528057 15.275248,32.3528057 C14.6207446,32.3528057 14.0895133,31.8223105 14.0895133,31.168033 C14.0895133,30.5132029 14.6207446,29.9827076 15.275248,29.9827076" id="Fill-25" fill="#02E2DF"></path>
        <path d="M26.2181144,29.9827076 C26.8726178,29.9827076 27.4038491,30.5132029 27.4038491,31.168033 C27.4038491,31.8223105 26.8726178,32.3528057 26.2181144,32.3528057 C25.5636109,32.3528057 25.0323797,31.8223105 25.0323797,31.168033 C25.0323797,30.5132029 25.5636109,29.9827076 26.2181144,29.9827076" id="Fill-27" fill="#02E2DF"></path>
        <path d="M20.7467088,39.3712579 C21.4012123,39.3712579 21.9324435,39.9017532 21.9324435,40.5565833 C21.9324435,41.2108607 21.4012123,41.741356 20.7467088,41.741356 C20.0922054,41.741356 19.5609741,41.2108607 19.5609741,40.5565833 C19.5609741,39.9017532 20.0922054,39.3712579 20.7467088,39.3712579" id="Fill-29" fill="#02E2DF"></path>
        <path d="M15.275248,38.8242952 C15.9297514,38.8242952 16.4609827,39.3547905 16.4609827,40.0096205 C16.4609827,40.663898 15.9297514,41.1943933 15.275248,41.1943933 C14.6207446,41.1943933 14.0895133,40.663898 14.0895133,40.0096205 C14.0895133,39.3547905 14.6207446,38.8242952 15.275248,38.8242952" id="Fill-31" fill="#02E2DF"></path>
        <path d="M26.2181144,38.8242952 C26.8726178,38.8242952 27.4038491,39.3547905 27.4038491,40.0096205 C27.4038491,40.663898 26.8726178,41.1943933 26.2181144,41.1943933 C25.5636109,41.1943933 25.0323797,40.663898 25.0323797,40.0096205 C25.0323797,39.3547905 25.5636109,38.8242952 26.2181144,38.8242952" id="Fill-33" fill="#02E2DF"></path>
        <path d="M22.1675451,5.66740238 L15.6026103,6.68529015 C15.705982,6.81625616 15.7783975,6.96877355 15.8148817,7.13123772 L22.3798165,6.11390255 C22.2769976,5.98238394 22.2040293,5.83041915 22.1675451,5.66740238 M24.6606284,7.10968635 C24.3986059,7.09255578 24.1382417,7.05221603 23.8822999,6.99032492 L22.1459863,10.7938654 C22.4085616,10.810996 22.6689257,10.8513357 22.9243147,10.9137794 L24.6606284,7.10968635 M20.0934768,11.1093995 L15.2703834,8.32319425 C15.1891233,8.38287496 15.1017825,8.44255568 15.0039386,8.50278899 C14.9060948,8.55694372 14.8076982,8.60612505 14.7043264,8.65475378 L19.5274198,11.4409591 C19.6097855,11.376305 19.6971263,11.318282 19.7888895,11.2668903 C19.8867333,11.2083148 19.9889995,11.1552653 20.0934768,11.1093995" id="Fill-35" fill="#02E2DF"></path>
        <path d="M23.8220458,11.2670561 C23.5401229,11.1090127 23.2377467,10.9896513 22.923762,10.9133926 C22.6683729,10.8509489 22.4080088,10.8111617 22.1454335,10.7934786 C21.4461541,10.7371134 20.7435579,10.8448703 20.092924,11.1090127 C19.9840244,11.1576414 19.8861805,11.2068228 19.7883367,11.2609775 C19.6976791,11.3134744 19.6103383,11.3714973 19.526867,11.4350463 C18.6888372,12.0832451 18.7811532,13.0077436 19.8049204,13.6012352 C20.9204507,14.2433555 22.7225464,14.2488815 23.8386295,13.6012352 C24.9491848,12.9535889 24.938129,11.9086238 23.8220458,11.2665035 M14.9873549,6.16822305 C13.8662967,5.52002416 12.0691761,5.52002416 10.9536458,6.16822305 C9.83756264,6.81586934 9.84861844,7.85530848 10.9641488,8.50240217 C11.987916,9.09589374 13.5827154,9.14452247 14.6987985,8.65491956 C14.8016175,8.61071162 14.9016725,8.55987249 14.9978579,8.50240217 C15.0918323,8.45045785 15.1808315,8.39022453 15.2648555,8.32280743 C15.716485,7.97466992 15.8961418,7.54474772 15.8093538,7.1314035 C15.7723168,6.96893933 15.6999013,6.81642194 15.5965296,6.68545593 C15.4312454,6.47270523 15.2239491,6.29697867 14.9873549,6.16822305 M27.0016943,4.30154288 C25.8856112,3.65942258 24.0835155,3.65389659 22.9674324,4.30154288 C22.3250903,4.67178436 22.0586455,5.18349124 22.1620172,5.66756816 C22.199607,5.83058493 22.2703641,5.98420751 22.3687607,6.11904172 C22.5351505,6.33234502 22.7424468,6.50972937 22.9784882,6.64180059 C23.2604111,6.79984397 23.5627873,6.9186528 23.876772,6.99546409 C24.132161,7.0579078 24.3925252,7.09769495 24.6551005,7.11482552 C25.4710186,7.18832122 26.2913591,7.02585705 27.0177252,6.64677398 C28.1332556,5.9941543 28.1227526,4.94366317 27.0011415,4.30099028" id="Fill-37" fill="#F7FEFE"></path>
      </g>
    </g>
  </g>
</svg>
