<?xml version="1.0" encoding="UTF-8"?>
<svg xmlns="http://www.w3.org/2000/svg" xmlns:xlink="http://www.w3.org/1999/xlink" width="60px" height="60px" viewBox="0 0 60 60" version="1.1">
  <title>ids</title>
  <defs>
    <polygon id="path-1" points="0 0 52 0 52 41 0 41"></polygon>
    <polyline id="path-3" points="0 3.0657189 2.67077751 4.60716313 2.67904814 1.54080832 0.00890683306 0"></polyline>
    <polyline id="path-5" points="0 3.06635481 2.66950511 4.60589131 2.67777574 1.54080832 0.0082706307 0"></polyline>
    <polyline id="path-7" points="0 3.0657189 2.67077751 4.60716313 2.67968435 1.54080832 0.00890683306 0"></polyline>
    <polygon id="path-9" points="8.61545238 0 25.8508105 9.94625791 17.234722 14.9508644 0 5.00460647"></polygon>
    <polygon id="path-11" points="8.61545238 0 25.8508105 9.94625791 17.234722 14.9508644 0 5.00460647"></polygon>
    <polyline id="path-13" points="8.61545238 0 25.8508105 9.94625791 17.234722 14.9508644 0 5.00460647"></polyline>
  </defs>
  <g id="页面" stroke="none" stroke-width="1" fill="none" fill-rule="evenodd">
    <g id="图标" transform="translate(-463.000000, -38.000000)">
      <g id="ids" transform="translate(467.000000, 48.000000)">
        <g id="编组">
          <path d="M26.0068074,40.5298645 C25.9253735,40.5316528 25.845212,40.5106678 25.7752297,40.4693337 L0.695496421,25.9222717 C0.55235089,25.8396035 0.463918762,25.6869853 0.463918762,25.5216488 L0.463918762,15.687311 C0.465827369,15.5238823 0.551078485,15.3731718 0.6897706,15.2866881 L25.7618695,0.518329699 C25.9101046,0.435025576 26.0901499,0.435025576 26.2377488,0.518329699 L51.3047581,15.2847804 C51.4472674,15.3668127 51.5337909,15.5207027 51.530095,15.6854032 L51.530095,25.5171975 C51.530095,25.6825339 51.4415416,25.8351521 51.2977598,25.9178204 L26.238385,40.4655182 C26.1684028,40.5068523 26.0882413,40.5291091 26.0068074,40.5298645" id="Fill-1" fill="#0A5FF1"></path>
          <g>
            <mask id="mask-2" fill="white">
              <use xlink:href="#path-1"></use>
            </mask>
            <g id="Clip-4"></g>
            <path d="M26.0069982,0.00127181867 C25.8422218,0.00254363734 25.6806264,0.0451495628 25.5374809,0.126545958 L0.457747599,14.897448 C0.175909953,15.0640562 0.00222670826,15.3661132 -0.000318101181,15.6936065 L-0.000318101181,25.5254007 C-0.000318101181,25.8560736 0.176546155,26.1619459 0.46347342,26.3272824 L4.55489081,28.700496 L25.5425705,40.8749802 C25.6838074,40.9557407 25.8434942,40.9983466 26.006362,41.0002544 C26.1692298,40.9996185 26.3289166,40.9563766 26.4701535,40.8749802 L47.4451092,28.7011319 L51.5365266,26.3323696 C51.8247262,26.168305 52.0015905,25.8617967 52.0003249,25.5311239 L52.0003249,15.6993297 C51.9990457,15.3724723 51.8253625,15.0697794 51.5422524,14.904443 L26.4765156,0.131633232 C26.3352786,0.0457854721 26.1724108,0 26.0069982,0 L26.0069982,0.00127181867 Z M26.0069982,0.92715581 L51.0733713,15.6936065 L51.0733713,25.5247648 L46.9819539,27.8986143 L26.0069982,40.0654676 L5.01868233,27.8922552 L0.927264942,25.5184057 L0.927264942,15.6866115 L26.0069982,0.92779172 L26.0069982,0.92715581 Z" id="Fill-3" fill="#1654E7" mask="url(#mask-2)"></path>
          </g>
          <polygon id="Fill-5" fill="#488AF9" points="0.927583043 15.6934793 26.0009543 30.3410149 51.0743256 15.6934793 26.0066801 0.927028628"></polygon>
          <path d="M26.0007634,30.8043942 C25.9193295,30.8061826 25.839168,30.7851976 25.7691858,30.7432276 L4.78086988,18.5693793 C4.56201627,18.4402897 4.48694439,18.1592177 4.61227626,17.9372854 C4.73824433,17.7166248 5.02008197,17.6403157 5.24084419,17.7662258 L5.24466141,17.7687694 L26.0013996,29.8039895 L46.7454138,17.7617744 C46.9668123,17.6339566 47.2499223,17.7096298 47.377799,17.9309263 C47.5056757,18.1522227 47.4306038,18.4352024 47.2092054,18.5636561 L26.2399755,30.7432276 C26.1661761,30.782018 26.084106,30.803003 26.0007634,30.8043942" id="Fill-7" fill="#7BB8FC"></path>
        </g>
        <g id="编组" transform="translate(4.997370, 22.435263)">
          <mask id="mask-4" fill="white">
            <use xlink:href="#path-3"></use>
          </mask>
          <g id="Clip-10"></g>
          <path d="M1.34480455,0.771548796 C0.607446015,0.346125451 0.0068709855,0.686336945 0.00432617606,1.53336818 C0.0545861626,2.47006263 0.5495516,3.32599659 1.33653392,3.83663179 C2.07198385,4.26141923 2.67255888,3.92120773 2.67510369,3.0741765 C2.6254799,2.13811796 2.13115067,1.28218399 1.34480455,0.770912887" id="Fill-9" fill="#02E2DF" mask="url(#mask-4)"></path>
        </g>
        <g id="编组" transform="translate(10.067266, 25.483176)">
          <mask id="mask-6" fill="white">
            <use xlink:href="#path-5"></use>
          </mask>
          <g id="Clip-12"></g>
          <path d="M1.34302318,0.770594932 C0.605664648,0.345171587 0.00636202361,0.68601899 0.00381721417,1.53305022 C0.052804796,2.46910877 0.547770233,3.32567864 1.33411635,3.83631384 C2.07211109,4.26173718 2.67077751,3.92088978 2.67332232,3.07322263 C2.62433474,2.13716409 2.1293693,1.28123013 1.34302318,0.770594932" id="Fill-11" fill="#02E2DF" mask="url(#mask-6)"></path>
        </g>
        <g id="编组" transform="translate(15.191240, 28.330778)">
          <mask id="mask-8" fill="white">
            <use xlink:href="#path-7"></use>
          </mask>
          <g id="Clip-14"></g>
          <path d="M1.34334129,0.770149795 C0.607255154,0.34536236 0.00668012479,0.685573854 0.00477151771,1.533241 C0.0543953019,2.46929954 0.548724537,3.3252335 1.33507066,3.8358687 C2.07242919,4.26129204 2.67300422,3.92108055 2.67491283,3.07404932 C2.62528904,2.13735487 2.13032361,1.28078499 1.34334129,0.770149795" id="Fill-13" fill="#02E2DF" mask="url(#mask-8)"></path>
        </g>
        <g id="编组" transform="translate(13.515483, 8.253213)">
          <g>
            <mask id="mask-10" fill="white">
              <use xlink:href="#path-9"></use>
            </mask>
            <g id="Clip-16"></g>
            <polygon id="Fill-15" fill="#FCFCFC" mask="url(#mask-10)" points="11.8086156 1.8565373 8.60342815 0.00731295735 7.13889032 0.858159647 7.82089925 1.25178753 2.34510552 4.43260602 1.66246039 4.03897814 0.197922555 4.88982483 3.40247385 6.73904918 4.86764789 5.88820249 4.18118554 5.49203097 9.65697926 2.31121248 10.3434416 2.70738399"></polygon>
          </g>
          <g>
            <mask id="mask-12" fill="white">
              <use xlink:href="#path-11"></use>
            </mask>
            <g id="Clip-18"></g>
            <path d="M15.4602263,3.96381366 L12.9784009,2.53174583 L4.57225913,7.41425771 L6.99746253,8.81389415 C8.85771824,9.88730911 12.242951,10.0138551 14.930906,8.45269765 C16.9648449,7.27117811 18.1653588,5.52497107 15.4602263,3.96381366 L15.4602263,3.96381366 Z M7.99057442,7.55988095 L13.3658482,4.43756611 L13.7475696,4.65759074 C14.8768288,5.30939781 14.9188181,6.36627912 13.1234551,7.40980634 C11.7791595,8.1900671 9.50537224,8.43425628 8.37229583,7.77990558 L7.99057442,7.55988095 Z" id="Fill-17" fill="#FCFCFC" mask="url(#mask-12)"></path>
          </g>
          <g>
            <mask id="mask-14" fill="white">
              <use xlink:href="#path-13"></use>
            </mask>
            <g id="Clip-20"></g>
            <path d="M23.218396,8.42700691 C22.7673286,8.16692 22.2806338,7.94625946 21.7653098,7.76120984 C21.2461687,7.57870386 20.7232104,7.45406563 20.184347,7.39111061 C19.6493008,7.32561195 19.118708,7.33260695 18.5932049,7.41654698 C18.0670655,7.49158428 17.5740087,7.6696389 17.1140344,7.93735673 C16.7793919,8.13194498 16.5293644,8.3239896 16.3684052,8.51603422 C16.207446,8.70807884 16.1158329,8.90775437 16.0922934,9.10933763 C16.0649367,9.31282862 16.106926,9.52395052 16.2055374,9.74906242 C16.3035126,9.96972296 16.4511115,10.2088249 16.6464256,10.4619168 C16.7609421,10.6208941 16.8951808,10.783051 17.0421435,10.9420283 C17.1884701,11.1016416 17.3150743,11.2587112 17.4168667,11.4062421 C17.5154781,11.5563168 17.5682829,11.694945 17.5733725,11.8233987 C17.5822793,11.9499446 17.505935,12.0650442 17.3487931,12.1566152 C17.0943121,12.3041461 16.7787557,12.3372134 16.4014877,12.2640838 C16.0286732,12.1890465 15.6272295,12.0275256 15.1882498,11.7744337 C14.8307041,11.568399 14.5094219,11.3127635 14.2288567,11.0100706 C13.9514724,10.7054701 13.7389809,10.3633508 13.5831113,9.98371297 L11.5288138,11.1766789 C11.991333,11.7617155 12.6504386,12.3054179 13.5175824,12.8058786 C13.5296703,12.8128736 13.5423943,12.8198686 13.5544822,12.8268636 C14.0341787,13.1034842 14.541232,13.3400424 15.0807316,13.539718 C15.6246847,13.736214 16.1762721,13.8722985 16.7348578,13.9428845 C17.285809,14.0128345 17.8405775,14.0058395 18.3908925,13.9263508 C18.9412076,13.8417749 19.4584401,13.6592689 19.9464073,13.3756534 C20.2937738,13.1740701 20.5431651,12.9724868 20.6882192,12.7658163 C20.8370906,12.5616894 20.9127987,12.3486598 20.9115263,12.1330865 C20.9058005,11.9149696 20.8440888,11.68795 20.7168484,11.4558431 C20.5946975,11.2211925 20.4267401,10.9750956 20.2193381,10.7194601 C20.1010045,10.5763805 19.9788536,10.4358445 19.86052,10.2927649 C19.7339157,10.1496853 19.6359405,10.0142366 19.5665945,9.88005974 C19.492795,9.74906242 19.4641659,9.6250601 19.4756175,9.50996051 C19.4908864,9.39295319 19.5716841,9.28993588 19.7205555,9.2028163 C19.8293461,9.13986128 19.9667658,9.09725535 20.1124561,9.08326535 C20.2664171,9.06927534 20.4241953,9.07627035 20.5908803,9.10679399 C20.7569291,9.13731764 20.9229779,9.18628266 21.0972974,9.24987359 C21.2677996,9.31537226 21.4344846,9.39295319 21.5967162,9.48643187 C21.9377207,9.68356376 22.2386444,9.91312703 22.5033046,10.1732139 C22.7603303,10.4333009 22.9518272,10.7080137 23.0790677,10.9960806 L25.0360262,9.85907474 C24.7917245,9.59199282 24.5149764,9.3389009 24.2102355,9.09725535 C23.897224,8.85624572 23.5721245,8.63113381 23.218396,8.42700691" id="Fill-19" fill="#FCFCFC" mask="url(#mask-14)"></path>
          </g>
        </g>
      </g>
    </g>
  </g>
</svg>
