<?xml version="1.0" encoding="UTF-8"?>
<svg xmlns="http://www.w3.org/2000/svg" xmlns:xlink="http://www.w3.org/1999/xlink" width="60px" height="60px" viewBox="0 0 60 60" version="1.1">
  <title>ips</title>
  <defs>
    <polygon id="path-1" points="0 0 52 0 52 41 0 41"></polygon>
    <polyline id="path-3" points="0 3.0657189 2.67077751 4.60716313 2.67904814 1.54080832 0.00890683306 0"></polyline>
    <polyline id="path-5" points="0 3.06635481 2.66950511 4.60589131 2.67777574 1.54080832 0.0082706307 0"></polyline>
    <polyline id="path-7" points="0 3.0657189 2.67077751 4.60716313 2.67968435 1.54080832 0.00890683306 0"></polyline>
    <polygon id="path-9" points="8.61608858 0 25.8546278 9.94816563 17.2391754 14.953408 0 5.00460647"></polygon>
    <polygon id="path-11" points="8.61608858 0 25.8546278 9.94816563 17.2391754 14.953408 0 5.00460647"></polygon>
    <polyline id="path-13" points="8.61608858 0 25.8546278 9.94816563 17.2391754 14.953408 0 5.00460647"></polyline>
  </defs>
  <g id="页面" stroke="none" stroke-width="1" fill="none" fill-rule="evenodd">
    <g id="图标" transform="translate(-379.000000, -38.000000)">
      <g id="ips" transform="translate(383.000000, 48.000000)">
        <g id="编组">
          <path d="M26.0068074,40.5298645 C25.9253735,40.5316528 25.845212,40.5106678 25.7752297,40.4693337 L0.695496421,25.9222717 C0.55235089,25.8396035 0.463918762,25.6869853 0.463918762,25.5216488 L0.463918762,15.687311 C0.465827369,15.5238823 0.551078485,15.3731718 0.6897706,15.2866881 L25.7618695,0.518329699 C25.9101046,0.435025576 26.0901499,0.435025576 26.2377488,0.518329699 L51.3047581,15.2847804 C51.4472674,15.3668127 51.5337909,15.5207027 51.530095,15.6854032 L51.530095,25.5171975 C51.530095,25.6825339 51.4415416,25.8351521 51.2977598,25.9178204 L26.238385,40.4655182 C26.1684028,40.5068523 26.0882413,40.5291091 26.0068074,40.5298645" id="Fill-1" fill="#0A5FF1"></path>
          <g>
            <mask id="mask-2" fill="white">
              <use xlink:href="#path-1"></use>
            </mask>
            <g id="Clip-4"></g>
            <path d="M26.0069982,0.00127181867 C25.8422218,0.00254363734 25.6806264,0.0451495628 25.5374809,0.126545958 L0.457747599,14.897448 C0.175909953,15.0640562 0.00222670826,15.3661132 -0.000318101181,15.6936065 L-0.000318101181,25.5254007 C-0.000318101181,25.8560736 0.176546155,26.1619459 0.46347342,26.3272824 L4.55489081,28.700496 L25.5425705,40.8749802 C25.6838074,40.9557407 25.8434942,40.9983466 26.006362,41.0002544 C26.1692298,40.9996185 26.3289166,40.9563766 26.4701535,40.8749802 L47.4451092,28.7011319 L51.5365266,26.3323696 C51.8247262,26.168305 52.0015905,25.8617967 52.0003249,25.5311239 L52.0003249,15.6993297 C51.9990457,15.3724723 51.8253625,15.0697794 51.5422524,14.904443 L26.4765156,0.131633232 C26.3352786,0.0457854721 26.1724108,0 26.0069982,0 L26.0069982,0.00127181867 Z M26.0069982,0.92715581 L51.0733713,15.6936065 L51.0733713,25.5247648 L46.9819539,27.8986143 L26.0069982,40.0654676 L5.01868233,27.8922552 L0.927264942,25.5184057 L0.927264942,15.6866115 L26.0069982,0.92779172 L26.0069982,0.92715581 Z" id="Fill-3" fill="#1654E7" mask="url(#mask-2)"></path>
          </g>
          <polygon id="Fill-5" fill="#488AF9" points="0.927583043 15.6934793 26.0009543 30.3410149 51.0743256 15.6934793 26.0066801 0.927028628"></polygon>
          <path d="M26.0007634,30.8043942 C25.9193295,30.8061826 25.839168,30.7851976 25.7691858,30.7432276 L4.78086988,18.5693793 C4.56201627,18.4402897 4.48694439,18.1592177 4.61227626,17.9372854 C4.73824433,17.7166248 5.02008197,17.6403157 5.24084419,17.7662258 L5.24466141,17.7687694 L26.0013996,29.8039895 L46.7454138,17.7617744 C46.9668123,17.6339566 47.2499223,17.7096298 47.377799,17.9309263 C47.5056757,18.1522227 47.4306038,18.4352024 47.2092054,18.5636561 L26.2399755,30.7432276 C26.1661761,30.782018 26.084106,30.803003 26.0007634,30.8043942" id="Fill-7" fill="#7BB8FC"></path>
        </g>
        <g id="编组" transform="translate(4.997370, 22.435263)">
          <mask id="mask-4" fill="white">
            <use xlink:href="#path-3"></use>
          </mask>
          <g id="Clip-10"></g>
          <path d="M1.34480455,0.771548796 C0.607446015,0.346125451 0.0068709855,0.686336945 0.00432617606,1.53336818 C0.0545861626,2.47006263 0.5495516,3.32599659 1.33653392,3.83663179 C2.07198385,4.26141923 2.67255888,3.92120773 2.67510369,3.0741765 C2.6254799,2.13811796 2.13115067,1.28218399 1.34480455,0.770912887" id="Fill-9" fill="#02E2DF" mask="url(#mask-4)"></path>
        </g>
        <g id="编组" transform="translate(10.067266, 25.483176)">
          <mask id="mask-6" fill="white">
            <use xlink:href="#path-5"></use>
          </mask>
          <g id="Clip-12"></g>
          <path d="M1.34302318,0.770594932 C0.605664648,0.345171587 0.00636202361,0.68601899 0.00381721417,1.53305022 C0.052804796,2.46910877 0.547770233,3.32567864 1.33411635,3.83631384 C2.07211109,4.26173718 2.67077751,3.92088978 2.67332232,3.07322263 C2.62433474,2.13716409 2.1293693,1.28123013 1.34302318,0.770594932" id="Fill-11" fill="#02E2DF" mask="url(#mask-6)"></path>
        </g>
        <g id="编组" transform="translate(15.191240, 28.330778)">
          <mask id="mask-8" fill="white">
            <use xlink:href="#path-7"></use>
          </mask>
          <g id="Clip-14"></g>
          <path d="M1.34334129,0.770149795 C0.607255154,0.34536236 0.00668012479,0.685573854 0.00477151771,1.533241 C0.0543953019,2.46929954 0.548724537,3.3252335 1.33507066,3.8358687 C2.07242919,4.26129204 2.67300422,3.92108055 2.67491283,3.07404932 C2.62528904,2.13735487 2.13032361,1.28078499 1.34334129,0.770149795" id="Fill-13" fill="#02E2DF" mask="url(#mask-8)"></path>
        </g>
        <g id="编组" transform="translate(12.878008, 8.253213)">
          <g>
            <mask id="mask-10" fill="white">
              <use xlink:href="#path-9"></use>
            </mask>
            <g id="Clip-16"></g>
            <polygon id="Fill-15" fill="#FCFCFC" mask="url(#mask-10)" points="11.812751 1.85431162 8.60819967 0.00508727468 7.13920842 0.857841693 7.82121735 1.25210548 2.34542363 4.43292397 1.66277849 4.03929609 0.197604453 4.89014278 3.40279195 6.73936713 4.86732979 5.88852044 4.18532085 5.49489256 9.66556799 2.31153043 10.3475769 2.70515831"></polygon>
          </g>
          <g>
            <mask id="mask-12" fill="white">
              <use xlink:href="#path-11"></use>
            </mask>
            <g id="Clip-18"></g>
            <path d="M15.8624971,4.19134202 L12.982409,2.52971092 L4.57244999,7.41476644 L6.41234722,8.47609912 L9.31024898,6.79348302 L10.187572,7.29966685 C11.1743219,7.86944161 12.2208748,8.16959082 13.3342289,8.20901719 C14.4437658,8.24653585 15.4222451,8.01697258 16.2658494,7.52668648 C18.0497608,6.49079017 17.9180669,5.37731293 15.8624971,4.19134202 L15.8624971,4.19134202 Z M10.7467939,5.95853406 L13.366039,4.43743893 L14.0887649,4.85459545 C15.0678803,5.41991885 15.12323,5.95153906 14.2599033,6.45327152 C13.3762183,6.96708626 12.4486352,6.94101398 11.4695198,6.37632649 L10.7467939,5.95853406 Z" id="Fill-17" fill="#FCFCFC" mask="url(#mask-12)"></path>
          </g>
          <g>
            <mask id="mask-14" fill="white">
              <use xlink:href="#path-13"></use>
            </mask>
            <g id="Clip-20"></g>
            <path d="M23.2186505,8.42707051 C22.767583,8.16698359 22.2808882,7.94632305 21.7655643,7.76127343 C21.2464232,7.57876745 20.7234649,7.45412922 20.1884187,7.38863056 C19.6495553,7.32503963 19.1234159,7.33457827 18.5972766,7.41470284 C18.0717734,7.49419151 17.5742632,7.66970249 17.1187423,7.93487668 C16.7796464,8.13200857 16.5296189,8.32405319 16.3724769,8.51864145 C16.2077005,8.70814243 16.1154512,8.90781796 16.0970013,9.11130895 C16.0696446,9.31543585 16.1071805,9.52401411 16.2096091,9.74658238 C16.3037671,9.96978655 16.451366,10.2088885 16.6466801,10.4619804 C16.7611965,10.6209577 16.8954352,10.7831146 17.042398,10.9420919 C17.193178,11.1042488 17.319146,11.2562311 17.4171212,11.4063057 C17.5150963,11.5563803 17.5729908,11.6969163 17.5774442,11.8260059 C17.586351,11.9525519 17.5100067,12.0625642 17.3484113,12.1566788 C17.0983838,12.3016661 16.7828274,12.3391847 16.4100128,12.2641474 C16.0327448,12.1916538 15.6274839,12.0275892 15.1929577,11.7770409 C14.8309586,11.5684626 14.5141298,11.3147348 14.2367456,11.0101342 C13.9555441,10.7080773 13.7392353,10.3634144 13.587183,9.98568428 L11.5335217,11.1792861 C11.9915874,11.7617791 12.6506931,12.3054815 13.5178369,12.8059422 C13.5299248,12.8129372 13.5426488,12.8199322 13.5547366,12.8269272 C14.0344332,13.1035478 14.5414865,13.340106 15.0892567,13.5397816 C15.6287563,13.7388212 16.1803438,13.8749058 16.7351123,13.9429481 C17.2943341,14.0128981 17.8446492,14.0084467 18.3949642,13.9238708 C18.941462,13.8418385 19.4625118,13.6612402 19.9511152,13.3776247 C20.2978455,13.1760414 20.5434196,12.9725504 20.6961082,12.7658799 C20.8449795,12.5623889 20.9168704,12.351267 20.9117808,12.1331501 C20.9105084,11.9124896 20.8481605,11.6899213 20.7215562,11.453363 C20.5943158,11.2212561 20.431448,10.9777028 20.2195926,10.7195237 C20.1012589,10.5764441 19.9829253,10.4333645 19.8607745,10.2928285 C19.7386236,10.1522925 19.636195,10.0143002 19.566849,9.88012334 C19.4930495,9.74912601 19.4644204,9.62512369 19.475872,9.5100241 C19.4911409,9.39301678 19.5757558,9.2919072 19.7246271,9.20542353 C19.8378712,9.13992487 19.9670202,9.09731894 20.117164,9.08587258 C20.2666716,9.06933893 20.4244497,9.07633394 20.5904986,9.10685758 C20.7571836,9.13738123 20.9232324,9.18634625 21.0975518,9.24993718 C21.2680541,9.31543585 21.4385563,9.39492451 21.5969707,9.48649546 C21.9379752,9.68362735 22.2433523,9.91573426 22.5035591,10.1732775 C22.7599486,10.4333645 22.9558989,10.709985 23.0793222,10.9961442 L25.0362807,9.85913833 C24.7957962,9.59460004 24.5152309,9.33896449 24.21049,9.09731894 C23.9051129,8.85630931 23.5717428,8.6311974 23.2186505,8.42707051" id="Fill-19" fill="#FCFCFC" mask="url(#mask-14)"></path>
          </g>
        </g>
      </g>
    </g>
  </g>
</svg>
