<?xml version="1.0" encoding="UTF-8"?>
<svg xmlns="http://www.w3.org/2000/svg" xmlns:xlink="http://www.w3.org/1999/xlink" width="60px" height="60px" viewBox="0 0 60 60" version="1.1">
  <title>服务器</title>
  <defs>
    <polygon id="path-1" points="-8.47595706e-16 0 52 0 52 41 -8.47595706e-16 41"></polygon>
  </defs>
  <g id="页面" stroke="none" stroke-width="1" fill="none" fill-rule="evenodd">
    <g id="图标" transform="translate(-139.000000, -38.000000)">
      <g id="服务器" transform="translate(143.000000, 48.000000)">
        <polygon id="Fill-1" fill="#FFFFFF" points="0.981132075 25.4372881 26 40.0238095 51.0188679 25.4372881 26.0063467 10.7380952"></polygon>
        <g id="编组">
          <path d="M26.00936,40.5310981 C25.9266533,40.5317203 25.8458552,40.5101025 25.7752365,40.4681386 L0.696024151,25.9244463 C0.552877962,25.8424258 0.465717838,25.6898296 0.468208417,25.5251528 L0.468208417,15.6947765 C0.468208417,15.5313714 0.555422783,15.3800468 0.696024151,15.2967547 L25.7752365,0.53179786 C25.9196551,0.447234116 26.0984287,0.447234116 26.2434835,0.53179786 L51.3156976,15.2967547 C51.456299,15.3800468 51.5428229,15.5313714 51.5434591,15.6947765 L51.5434591,25.5251528 C51.5428229,25.6885579 51.456299,25.8398825 51.3156976,25.9238104 L26.2371215,40.4738609 C26.1671389,40.5113742 26.0888857,40.5310981 26.00936,40.5310981" id="Fill-2" fill="#0A5FF1"></path>
          <g>
            <mask id="mask-2" fill="white">
              <use xlink:href="#path-1"></use>
            </mask>
            <g id="Clip-5"></g>
            <path d="M26.00936,0 C25.845219,0.000635817623 25.6836229,0.0445072336 25.5411129,0.126527707 L0.455538553,14.8978427 C0.171790997,15.0631553 -0.00189304595,15.3670761 4.26325675e-14,15.695158 L4.26325675e-14,25.5255343 C0.000651775188,25.8548878 0.176244434,26.1588086 0.461900606,26.3228496 L4.55079197,28.6957209 L25.5411129,40.8735359 C25.6817143,40.9549205 25.8407656,40.9981561 26.0029979,41.0000636 C26.1658665,40.9994278 26.3249178,40.9555563 26.464883,40.8735359 L47.4488419,28.6957209 L51.5377332,26.3234854 C51.8233894,26.1594445 51.9996183,25.8555236 52.00027,25.5261701 L52.00027,15.6945222 C52.0021631,15.3664403 51.8278429,15.0625195 51.5440953,14.8978427 L26.4776071,0.132885883 C26.3363695,0.0470505041 26.1747734,0.000635817623 26.00936,0 Z M26.00936,0.930201182 L51.0815741,15.6945222 L51.0815741,25.5255343 L46.9926827,27.8977698 L26.00936,40.0692266 L5.01903906,27.8977698 L0.930147696,25.5255343 L0.930147696,15.6945222 L26.00936,0.930201182 L26.00936,0.930201182 Z" id="Fill-4" fill="#1654E7" mask="url(#mask-2)"></path>
          </g>
          <polygon id="Fill-6" fill="#488AF9" points="0.923912884 15.6950309 26.0031252 30.3391823 51.0823375 15.6950309 26.0094872 0.930074018"></polygon>
          <path d="M26.0032524,30.8015002 C25.9205457,30.8021211 25.8397477,30.7805034 25.7691289,30.7385394 L4.78517,18.5670826 C4.56504297,18.4361042 4.49315177,18.1512579 4.62421006,17.931265 C4.75208732,17.7163587 5.02820041,17.641968 5.24769124,17.7634092 L26.0032524,29.8083382 L46.7524516,17.7697673 C46.9744872,17.6426038 47.2575986,17.7189019 47.3854758,17.9408023 C47.5133531,18.1627026 47.4363723,18.4456415 47.2149728,18.5734408 L26.237376,30.7442617 C26.1654848,30.7824108 26.0846867,30.8021211 26.0032524,30.8015002" id="Fill-8" fill="#7BB8FC"></path>
          <path d="M15.2672246,31.6112627 C15.1800645,31.609991 15.0954492,31.58583 15.020377,31.5413227 L13.9063815,30.8457382 C13.6868907,30.7134882 13.6162719,30.4286419 13.7486026,30.2099206 C13.8802971,29.9905635 14.1653171,29.9199878 14.3848079,30.051602 C14.3898976,30.0547811 14.3949872,30.0579602 14.4000768,30.0611393 L15.5140723,30.7573596 C15.7303821,30.8908813 15.7971836,31.1750918 15.6629443,31.3912698 C15.6616719,31.3925414 15.6610357,31.3944488 15.6597633,31.3963563 C15.5764204,31.5317855 15.4269122,31.6138059 15.2678608,31.6112627 L15.2672246,31.6112627 Z M12.5391764,30.0674975 C12.4520163,30.0662258 12.367401,30.0420648 12.2923287,29.9981933 L11.1783333,29.3019731 C10.9613873,29.1659081 10.8964943,28.8797901 11.0326423,28.6629763 C11.1687902,28.4467983 11.4550826,28.3813091 11.6720286,28.5173741 L12.786024,29.2135944 C13.0023338,29.3477519 13.0691354,29.6313266 12.9348961,29.8475046 C12.9336237,29.849412 12.9329875,29.8506837 12.931715,29.8525911 C12.8483721,29.9886561 12.6988639,30.0706766 12.5391764,30.0674975 Z M9.81112812,28.5243681 C9.723968,28.5224606 9.63871649,28.4982996 9.56428047,28.4544282 L8.44964881,27.7588437 C8.23333902,27.6221429 8.16780987,27.336025 8.30459401,27.119847 C8.44074194,26.9030332 8.72703432,26.8375439 8.94398032,26.9742447 L10.0579758,27.6698292 C10.2749218,27.8052584 10.3410871,28.0901047 10.2062116,28.3069185 C10.1215963,28.4436193 9.97145185,28.5262756 9.81112812,28.5250184 L9.81112812,28.5243681 Z M23.4583677,33.0348583 C23.3712076,33.0329509 23.2865922,33.0087898 23.21152,32.9649184 L22.0975246,32.2686981 C21.8805786,32.1326331 21.8156856,31.8465152 21.9518336,31.6297014 C22.0879815,31.4135234 22.3742739,31.3480342 22.5912199,31.4847349 L23.7058515,32.1809552 C23.9221613,32.3151128 23.9883267,32.5986874 23.8547236,32.8148654 C23.8534512,32.8167729 23.8521787,32.8180445 23.8515425,32.819952 C23.7656548,32.9534737 23.617419,33.0348583 23.4583677,33.0348583 Z M20.7303194,31.4910931 C20.6431593,31.4898215 20.5579078,31.4656604 20.4834718,31.4211532 L19.3688401,30.7255687 C19.1525303,30.5895037 19.0870012,30.3033858 19.2237853,30.086572 C19.3599332,29.870394 19.6462256,29.8049048 19.8631716,29.9409698 L20.9771671,30.6371901 C21.1934769,30.7707118 21.2596422,31.0549222 21.1260391,31.2711002 C21.1247667,31.2723719 21.1234943,31.2742793 21.1228581,31.2761868 C21.0369704,31.4097085 20.8893707,31.4904573 20.7303194,31.4910931 Z M18.001635,29.9473279 C17.915111,29.9460563 17.8298595,29.9218952 17.7547873,29.877388 L16.6407918,29.1818035 C16.4238458,29.0457385 16.3589529,28.7596206 16.4951008,28.5428068 C16.6312488,28.3266288 16.9175411,28.2611396 17.1344871,28.3972046 L18.2484826,29.0934249 C18.4647924,29.2275824 18.531594,29.511157 18.3973546,29.727335 C18.3967184,29.7292425 18.395446,29.7305141 18.3941736,29.7324216 C18.3089221,29.8659433 18.1613225,29.9466921 18.0022712,29.9473279 L18.001635,29.9473279 Z M15.2672246,28.4035627 C15.1807007,28.4022911 15.0954492,28.37813 15.020377,28.3342586 L13.9063815,27.6386741 C13.6926166,27.4981585 13.6328133,27.2107689 13.7734146,26.9964984 C13.9101988,26.788586 14.1869481,26.72564 14.4000768,26.8540752 L15.5140723,27.5496597 C15.7303821,27.6838172 15.7971836,27.9673919 15.6629443,28.1835699 C15.6623081,28.1854773 15.6610357,28.1873848 15.6597633,28.1886564 C15.5764204,28.3247214 15.4275484,28.4067418 15.2678608,28.4035627 L15.2672246,28.4035627 Z M12.5391764,26.8540752 C12.4526525,26.8521678 12.367401,26.8286425 12.2923287,26.7841353 L11.1783333,26.0885508 C10.9620235,25.95185 10.8964943,25.6657321 11.0332785,25.4495541 C11.1694264,25.2327403 11.4557188,25.1678869 11.6720286,25.3039518 L12.7866602,26.0001721 C13.0023338,26.1336938 13.0691354,26.4179043 12.9348961,26.6334465 C12.9342599,26.6353539 12.9329875,26.6372614 12.931715,26.638533 C12.8483721,26.7752338 12.6988639,26.8566185 12.5391764,26.8540752 Z M9.81112812,25.31031 C9.7246042,25.3090384 9.63935269,25.2848773 9.56428047,25.2410059 L8.45028502,24.5447856 C8.23079419,24.4131713 8.16017541,24.1283251 8.2918699,23.908968 C8.4242006,23.6896109 8.70922057,23.6190351 8.92871139,23.7506494 C8.93380103,23.7538285 8.93889068,23.7570076 8.94398032,23.7608225 L10.0579758,24.4564069 C10.2749218,24.5912003 10.3417233,24.8760466 10.2068478,25.0928604 C10.1215963,25.2295612 9.97208806,25.3122175 9.81112812,25.3115853 L9.81112812,25.31031 Z" id="Fill-10" fill="#02E2DF"></path>
          <polygon id="Fill-12" fill="#FFFFFF" points="13.4524491 16.3325016 19.585468 16.1175952 19.6280938 17.3440874 24.7317326 14.7105308 19.4563183 12.4406619 19.5091234 13.9494572 13.3767406 14.1643635"></polygon>
          <polygon id="Fill-14" fill="#FFFFFF" points="27.6713191 9.47628943 29.9355737 9.39681223 26.0458146 12.7138728 21.6330947 9.6880167 24.1594659 9.59900223 24.0366783 6.11027094 27.5491677 5.98755813"></polygon>
          <polygon id="Fill-16" fill="#FFFFFF" points="24.2531153 19.8577288 21.9888607 19.937206 25.8786198 16.6201455 30.2913397 19.6460016 27.7649685 19.735016 27.8877561 23.2237473 24.3752667 23.3464601"></polygon>
          <polygon id="Fill-18" fill="#FFFFFF" points="38.559718 12.9979561 32.4266991 13.2128624 32.3840733 11.9863702 27.2804345 14.6199268 32.5558488 16.8897957 32.5030437 15.3810005 38.6354265 15.1660942"></polygon>
        </g>
      </g>
    </g>
  </g>
</svg>
