<?xml version="1.0" encoding="UTF-8"?>
<svg xmlns="http://www.w3.org/2000/svg" xmlns:xlink="http://www.w3.org/1999/xlink" width="60px" height="60px" viewBox="0 0 60 60" version="1.1">
  <title>浏览器</title>
  <g id="页面" stroke="none" stroke-width="1" fill="none" fill-rule="evenodd">
    <g id="图标" transform="translate(-54.000000, -132.000000)">
      <g id="浏览器" transform="translate(69.000000, 136.000000)">
        <path d="M4.16901407,0.164886309 L29.3551895,15.3778115 C30.37608,15.9944486 31,17.1002109 31,18.2928796 L31,50.8159516 C31,51.0608338 30.8685422,51.2868672 30.6556958,51.4079609 L28.204358,52.8025892 C27.9900791,52.9244979 27.7266501,52.9211009 27.5155861,52.7937073 L0.3291505,36.384574 C0.124865423,36.261272 -3.41246981e-15,36.0400588 0,35.8014466 L0,1.83054286 C1.86469434e-16,1.54004954 0.184240944,1.28152595 0.458829025,1.18672219 L3.59457854,0.104079258 C3.78559645,0.0381287749 3.99603726,0.0604050516 4.16901407,0.164886309 Z" id="路径-18" stroke="#1654E7" stroke-width="0.68111333" fill="#488AF9"></path>
        <path d="M0.365275601,1.6195109 L0.365275601,35.928932 L27.8250145,52.5794591 L27.426193,19.6166126 C27.4148407,18.6783355 26.9214473,17.8119333 26.1202864,17.3234316 L0.365275601,1.6195109 L0.365275601,1.6195109 Z" id="路径-19" stroke="#1654E7" stroke-width="0.68111333" fill="#0A5FF1"></path>
        <path d="M2.04487771,5.78590454 L2.04487771,34.6977249 C2.04487771,34.939484 2.17303144,35.1631264 2.38161165,35.2853628 L24.9412846,48.5062382 C25.265828,48.6964337 25.6831063,48.5875232 25.8733018,48.2629798 C25.9359176,48.1561342 25.9682179,48.0342387 25.966728,47.9104061 L25.6369923,20.5045176 C25.6257223,19.5678156 25.1340108,18.7025952 24.335023,18.2135593 L3.08156276,5.2049707 C2.76072186,5.00859386 2.34143404,5.10949192 2.14505721,5.43033282 C2.0795461,5.53736501 2.04487771,5.66041512 2.04487771,5.78590454 Z" id="路径-19" stroke="#1654E7" stroke-width="0.646350562" fill="#FFFFFF"></path>
        <path d="M17.8931449,17.5713655 C18.9647373,17.768175 20.0115998,18.7917495 19.0009281,22.8616625 C19.0397671,21.2577563 19.334882,19.0196564 18.4884208,18.4517678 C17.9493175,18.0992481 17.0006187,18.564197 15.6508951,19.8047746 C17.6109513,21.4660478 18.9427548,25.2335516 18.8431825,29.2202002 C18.8326958,29.6353487 18.8072842,30.0378141 18.7680082,30.4259609 L12.387923,28.1643335 C12.5409229,30.2902215 13.0162152,31.5048822 13.8137913,31.8138995 C14.6095117,32.1290606 15.1517398,31.6651501 15.4433852,30.4051217 L18.5924896,31.6360939 C17.9194034,35.1227188 15.9945627,36.8909553 13.7672132,35.8276101 C12.1256506,35.0854395 10.6740976,33.1896885 9.77702812,30.8841829 L9.80309174,30.8482383 C9.56786106,31.1531733 9.31674264,31.8422916 9.20438901,32.8771293 C9.0366893,34.4137225 9.80885424,35.2347519 10.3825825,35.4897583 C10.7644324,35.6615344 11.5199996,35.5958968 12.649533,35.2749495 C12.7533589,35.3217753 12.8052568,35.3452279 12.8052568,35.3452279 C10.1858131,37.0417839 8.94636289,35.6760609 8.42078019,33.9874756 C8.06999956,32.8790419 8.29139278,30.8675317 9.06470851,28.4386035 C9.06284401,28.427136 9.06067339,28.4157707 9.0585177,28.4044022 C9.9938959,25.5109188 11.2666387,23.1566257 12.8789215,21.3610632 L13.0602754,21.1580693 L13.0636082,20.7842417 C11.6649954,21.5717509 10.2535111,23.2998606 8.83556252,25.879292 C8.89983885,21.6632266 11.1687806,18.53632 13.9574256,18.9924419 C14.3029614,19.0538623 14.6397649,19.1732508 14.9645456,19.3452959 L14.9484842,19.361691 L15.0855641,19.2193423 C16.2691418,18.0122591 17.2071283,17.4509043 17.8931449,17.5713655 Z M12.408799,25.5372458 L15.5050099,26.4388598 C15.5345054,24.53664 15.0673443,23.4578127 14.1028872,23.2163534 C13.1375154,22.9835106 12.572344,23.7639545 12.408799,25.5372458 Z" id="形状结合备份-2" fill="#0A5FF1" transform="translate(13.834824, 26.845144) rotate(1.000000) translate(-13.834824, -26.845144) "></path>
        <ellipse id="椭圆形" fill="#0A5FF1" transform="translate(4.449976, 9.029969) rotate(-18.000000) translate(-4.449976, -9.029969) " cx="4.44997608" cy="9.02996863" rx="1" ry="1"></ellipse>
        <path d="M5.81978542,10.5704333 C6.07073513,10.5704887 6.27410261,10.265567 6.27401942,9.88937141 C6.27393622,9.51317588 6.07043384,9.20816417 5.81948414,9.20810871 C5.56853443,9.20805324 5.36516694,9.51297502 5.36525014,9.88917056 C5.36533334,10.2653661 5.56883571,10.5703778 5.81978542,10.5704333 Z" id="椭圆形备份" fill="#0A5FF1" transform="translate(5.819635, 9.889271) rotate(-18.000000) translate(-5.819635, -9.889271) "></path>
        <path d="M7.17417576,11.3607766 C7.42512547,11.3608321 7.62849295,11.0559103 7.62840976,10.6797148 C7.62832656,10.3035193 7.42482418,9.99850756 7.17387448,9.9984521 C6.92292477,9.99839663 6.71955728,10.3033184 6.71964048,10.6795139 C6.71972368,11.0557095 6.92322605,11.3607212 7.17417576,11.3607766 Z" id="椭圆形备份-2" fill="#0A5FF1" transform="translate(7.174025, 10.679614) rotate(-18.000000) translate(-7.174025, -10.679614) "></path>
      </g>
    </g>
  </g>
</svg>
