<?xml version="1.0" encoding="UTF-8"?>
<svg xmlns="http://www.w3.org/2000/svg" xmlns:xlink="http://www.w3.org/1999/xlink" width="60px" height="60px" viewBox="0 0 60 60" version="1.1">
  <title>icon/路由器</title>
  <defs>
    <polygon id="path-1" points="0 0 52 0 52 41 0 41"></polygon>
  </defs>
  <g id="页面" stroke="none" stroke-width="1" fill="none" fill-rule="evenodd">
    <g id="图标" transform="translate(-64.000000, -38.000000)">
      <g id="编组-2" transform="translate(64.000000, 38.000000)">
        <g id="编组" transform="translate(1.000000, 7.000000)">
          <g id="编组-2" transform="translate(3.000000, 3.000000)">
            <polygon id="Fill-1" fill="#FFFFFF" points="0.896551724 26.3506947 26 41 51.1034483 26.3506947 26.0063682 11.5869565"></polygon>
            <g id="编组">
              <path d="M26.0092964,40.5314789 C25.9265899,40.5321011 25.845792,40.5104833 25.7751734,40.4685192 L0.696022448,25.9248044 C0.552876609,25.8434196 0.465716698,25.6908231 0.468207272,25.5261461 L0.468207272,15.6951188 C0.468897717,15.5317134 0.555421424,15.3797527 0.696022448,15.2964605 L25.7751734,0.531480775 C25.9195916,0.4469169 26.0990011,0.4469169 26.2434193,0.531480775 L51.3162082,15.2977321 C51.4574455,15.3816602 51.5439692,15.532985 51.5446054,15.6963904 L51.5446054,25.5274177 C51.5439692,25.6914589 51.4574455,25.8427838 51.3162082,25.926076 L26.2370573,40.4748774 C26.1670749,40.5117549 26.0888218,40.5314789 26.0092964,40.5314789" id="Fill-2" fill="#0A5FF1"></path>
              <g>
                <mask id="mask-2" fill="white">
                  <use xlink:href="#path-1"></use>
                </mask>
                <g id="Clip-5"></g>
                <path d="M26.0092964,-0.000127163722 C25.8445196,0.000508654887 25.6835601,0.0443801389 25.5410504,0.126400739 L0.455537439,14.8983745 C0.171790576,15.0630515 -0.00189304132,15.3669728 7.0006155e-14,15.6950552 L7.0006155e-14,25.5267183 C0.000651773593,25.8554366 0.176880206,26.1593579 0.461899476,26.3233991 L4.55141704,28.6956383 L25.5410504,40.8734721 C25.6816514,40.9548569 25.8407024,40.9987284 26.0029343,41 C26.1658025,40.9993642 26.3248534,40.9554927 26.4654544,40.8734721 L47.4487258,28.6956383 L51.5382433,26.3233991 C51.8232626,26.1593579 51.999491,25.8554366 52.0001428,25.5267183 L52.0001428,15.6950552 C52.0020359,15.3669728 51.8283522,15.0630515 51.5446054,14.8983745 L26.4775423,0.133394744 C26.3369413,0.0469234133 26.1747093,0.0011444735 26.0092964,0.000508654887 L26.0092964,-0.000127163722 Z M26.0092964,0.930711279 L51.0820853,15.6950552 L51.0820853,25.5267183 L46.9932039,27.8989576 L26.0092964,40.0697974 L5.01966298,27.8989576 L0.93014542,25.5260825 L0.93014542,15.6950552 L26.0092964,0.930075461 L26.0092964,0.930711279 Z" id="Fill-4" fill="#1654E7" mask="url(#mask-2)"></path>
              </g>
              <polygon id="Fill-6" fill="#488AF9" points="0.924165104 15.6953731 26.003316 30.3401831 51.082467 15.6953731 26.0096781 0.93039337"></polygon>
              <path d="M26.0031888,30.8030735 C25.9204823,30.8036949 25.8396844,30.782077 25.7690658,30.7394772 L4.78515829,18.5673658 C4.56312319,18.4395662 4.48677874,18.1566269 4.61465569,17.9347262 C4.74189643,17.7128255 5.0256433,17.6358915 5.2476784,17.763691 L26.0031888,29.8086388 L46.7529734,17.7700492 C46.9750085,17.6428855 47.2581191,17.7191837 47.3859961,17.9410844 C47.513873,18.1629851 47.4368924,18.4459244 47.2148573,18.5737239 L26.237948,30.7451996 C26.1654208,30.7833487 26.0852591,30.8036949 26.0031888,30.8030735" id="Fill-8" fill="#7BB8FC"></path>
              <path d="M15.2669964,31.6107394 C15.1798365,31.608832 15.0952214,31.5846709 15.0201494,31.5401636 L13.9061566,30.844578 C13.6892112,30.707877 13.6243184,30.4217586 13.760466,30.2055803 C13.8966136,29.9887662 14.1829053,29.9239127 14.3998507,30.0599779 L15.5138435,30.7555634 C15.7301527,30.8897211 15.7963179,31.1739321 15.6620789,31.3901104 C15.6614427,31.391382 15.6601703,31.3932895 15.6595341,31.3945611 C15.5761914,31.5312621 15.4273198,31.6139185 15.2676326,31.6113753 L15.2669964,31.6107394 Z M12.5389548,30.0669719 C12.4517949,30.0657002 12.3671798,30.0415391 12.2921078,29.9976676 L11.1781151,29.3020821 C10.9586248,29.169196 10.8886424,28.8843492 11.0216089,28.6656276 C11.1539393,28.4462702 11.4395948,28.3763302 11.6584489,28.5092163 C11.6629023,28.5117595 11.6673557,28.5143028 11.6718092,28.5174819 L12.7858019,29.2130675 C13.0014749,29.3472252 13.0682763,29.6308003 12.9346736,29.8469786 C12.9334011,29.8488861 12.9321287,29.8501577 12.9308563,29.8520652 C12.8475136,29.9887662 12.698642,30.070151 12.5383186,30.0676077 L12.5389548,30.0669719 Z M9.81027705,28.5238401 C9.72375334,28.5219326 9.63850204,28.4977715 9.56343,28.4532642 L8.44943728,27.7570429 C8.23503662,27.6171628 8.17459727,27.3304086 8.31456209,27.1155019 C8.45134589,26.9063176 8.72936692,26.8433715 8.94313137,26.9724427 L10.0583965,27.6705715 C10.275342,27.8060009 10.340871,28.0914834 10.2053596,28.3076618 C10.1201083,28.4430911 9.97123659,28.5251117 9.81154946,28.5244796 L9.81027705,28.5238401 Z M23.4574832,33.0343373 C23.3709595,33.0324299 23.2857082,33.0082687 23.2112724,32.9637614 L22.0966434,32.2675401 C21.8803342,32.1314749 21.8148052,31.8453565 21.951589,31.6285424 C22.0877366,31.412364 22.3740283,31.3468747 22.5903375,31.4829399 L23.7049665,32.1791613 C23.9212757,32.313319 23.9874409,32.5968941 23.8532019,32.8130724 C23.8525657,32.8149799 23.8512933,32.8162515 23.8500209,32.818159 C23.7647696,32.9523167 23.6171703,33.0337015 23.4574832,33.0343373 L23.4574832,33.0343373 Z M20.7300778,31.4912055 C20.6435541,31.4899339 20.5583028,31.4664086 20.4832308,31.4219013 L19.3692381,30.7263158 C19.1522926,30.5896148 19.0873998,30.3041322 19.2235474,30.0873181 C19.3603312,29.8705039 19.6466229,29.8056504 19.8629321,29.9417156 L20.9769249,30.637937 C21.1932341,30.7714589 21.2600355,31.055034 21.1257965,31.2712123 C21.1245241,31.2731198 21.1238879,31.2750272 21.1226155,31.2769347 C21.036728,31.4104566 20.8891288,31.4912055 20.730714,31.4912055 L20.7300778,31.4912055 Z M18.0020362,29.9480738 C17.9148763,29.9461663 17.8302612,29.9220052 17.7551892,29.8774979 L16.6411965,29.1812765 C16.4299768,29.0369457 16.3758995,28.7482841 16.520954,28.5371923 C16.6577378,28.3375452 16.9255795,28.2765067 17.1355268,28.397948 L18.2495195,29.0935336 C18.4658288,29.2276913 18.5326302,29.5119022 18.3983912,29.7274447 C18.3971188,29.7293522 18.3964826,29.7312596 18.3952101,29.7325313 C18.3093226,29.866689 18.1610872,29.9480738 18.0020362,29.947438 L18.0020362,29.9480738 Z M15.2676326,28.4043062 C15.1811089,28.4030346 15.0958576,28.3788735 15.0207856,28.3343662 L13.9067929,27.6387806 C13.6923922,27.4989005 13.6319528,27.2115105 13.7719177,26.9972396 C13.9087015,26.7880553 14.1867225,26.7251093 14.4004869,26.8541804 L15.5144797,27.549766 C15.7307889,27.6839237 15.7975903,27.9681346 15.6633513,28.184313 C15.6620789,28.1862204 15.6608065,28.1874921 15.6601703,28.1893995 C15.5768276,28.3254647 15.4273198,28.4068495 15.2676326,28.4036704 L15.2676326,28.4043062 Z M12.539591,26.8541804 C12.4524311,26.852273 12.3671798,26.8281119 12.292744,26.7836046 L11.1787513,26.0873832 C10.9618058,25.951318 10.896913,25.6651996 11.0330606,25.4490213 C11.1692082,25.2322072 11.4554999,25.1667178 11.6724454,25.3034188 L12.7864381,25.9990044 C13.0027474,26.1331621 13.0689125,26.4167372 12.9346736,26.6329156 C12.9340374,26.634823 12.9327649,26.6360946 12.9314925,26.6380021 C12.8487861,26.7747031 12.6992782,26.8567237 12.539591,26.8541804 L12.539591,26.8541804 Z M9.81154946,25.3110487 C9.72438955,25.3091412 9.63913825,25.2843443 9.56406621,25.239837 L8.45007348,24.5442514 C8.2312194,24.4120012 8.16123699,24.1265186 8.29420357,23.907797 C8.42653394,23.6890754 8.71155321,23.6184995 8.9310435,23.7513856 C8.93549692,23.7539289 8.93995035,23.757108 8.94440378,23.7596513 L10.0583965,24.4565085 C10.275342,24.5919378 10.340871,24.8774204 10.2053596,25.0935987 C10.1201083,25.2290281 9.97123659,25.3110487 9.81154946,25.3110487 Z" id="Fill-10" fill="#02E2DF"></path>
              <path d="M26.0159129,6.26942581 L22.0027398,9.32517004 L24.0850346,9.33152823 L24.1041207,12.7026385 L27.9906892,12.7026385 L27.9716031,9.33152823 L30.0538979,9.33152823 L26.0159129,6.26942581 M28.0224994,17.6810982 L24.1416567,17.6874564 L24.1607428,21.0592025 L22.078448,21.0592025 L26.1170693,24.1206691 L30.1238803,21.0592025 L28.0479476,21.0655607 L28.0224994,17.6810982 M22.1732424,14.0702843 L16.3500696,14.0639261 L16.3373456,12.8609573 L11.0708511,15.1950474 L16.3691558,17.5234152 L16.3627937,16.314724 L22.1796044,16.314724 L22.1732424,14.0690127 M41.055769,15.1956833 L35.7638264,12.8615931 L35.7701884,14.0696485 L29.9406537,14.0696485 L29.9591036,16.3153598 L35.7765505,16.3153598 L35.7829125,17.524051 L41.0551328,15.1956833" id="Fill-12" fill="#F7FEFE"></path>
            </g>
          </g>
        </g>
      </g>
    </g>
  </g>
</svg>
