<?xml version="1.0" encoding="UTF-8"?>
<svg xmlns="http://www.w3.org/2000/svg" xmlns:xlink="http://www.w3.org/1999/xlink" width="60px" height="60px" viewBox="0 0 60 60" version="1.1">
  <title>nosql数据库</title>
  <g id="页面" stroke="none" stroke-width="1" fill="none" fill-rule="evenodd">
    <g id="图标" transform="translate(-198.000000, -310.000000)">
      <g id="nosql数据库" transform="translate(208.000000, 318.000000)">
        <g id="编组备份-2">
          <path d="M0.000110558014,27.3144823 L0.000110558014,36.3251652 C0.0708676869,41.0421522 7.88731927,44.9136624 20.0000553,44.9136624 C32.1122385,44.9136624 39.8590385,41.1123323 40,36.3251652 L40,27.3144823 L0.000110558014,27.3144823 Z" id="Fill-1" fill="#0A5FF1"></path>
          <path d="M39.9998894,27.3147033 C39.9998894,32.3129633 32.1817795,36.3955664 19.9999447,36.3955664 C7.88720871,36.3955664 0,32.3129633 0,27.3147033 C0,22.3164433 7.81810996,18.2332877 19.9999447,18.2332877 C32.1126807,18.1631076 39.9998894,22.2462632 39.9998894,27.3147033" id="Fill-3" fill="#02E2DF"></path>
          <path d="M0.000110558014,18.2331219 L0.000110558014,26.2585204 C0.0708676869,30.9749548 7.88731927,35.3399361 20.0000553,35.3399361 C32.1122385,35.3399361 39.8590385,30.9749548 40,26.2585204 L40,18.2331219 L0.000110558014,18.2331219 Z" id="Fill-5" fill="#0A5FF1"></path>
          <path d="M39.9998894,18.162776 C39.9998894,23.161036 32.1817795,27.2441917 19.9999447,27.2441917 C7.88720871,27.2441917 0,23.161036 0,18.162776 C0,13.164516 7.81810996,9.08136038 19.9999447,9.08136038 C32.1126807,9.08136038 39.9998894,13.164516 39.9998894,18.162776" id="Fill-7" fill="#FDFFFF"></path>
          <path d="M0.000110558014,9.15181678 L0.000110558014,17.1772153 C0.0708676869,21.8936497 7.88731927,26.2586309 20.0000553,26.2586309 C32.1122385,26.2586309 39.8590385,21.8936497 40,17.1772153 L40,9.15181678 L0.000110558014,9.15181678 Z" id="Fill-9" fill="#0A5FF1"></path>
          <path d="M0.000110558014,9.08141564 L0.000110558014,38.0149584 C0.000110558014,38.0149584 3.16925603,44.9843398 18.5915462,44.9141597 C18.5915462,44.9141597 35.1409753,46.3221825 39.6478727,37.7331328 L39.9297957,9.08141564" id="Stroke-11" stroke="#1654E7" stroke-width="0.5"></path>
          <path d="M39.9998894,9.08141564 C39.9998894,14.0796756 32.1817795,18.1628313 19.9999447,18.1628313 C7.88720871,18.1628313 0,14.0796756 0,9.08141564 C0,4.08315566 7.81810996,0 19.9999447,0 C32.1126807,0 39.9998894,4.08315566 39.9998894,9.08141564" id="Fill-13" fill="#488AF9"></path>
          <path d="M39.9998894,9.08141564 C39.9998894,14.0796756 32.1817795,18.1628313 19.9999447,18.1628313 C7.88720871,18.1628313 0,14.0796756 0,9.08141564 C0,4.08315566 7.81810996,0 19.9999447,0 C32.1126807,0 39.9998894,4.08315566 39.9998894,9.08141564 Z" id="Stroke-15" stroke="#7BB8FC" stroke-width="0.5"></path>
          <path d="M20.7467088,21.6880828 C21.4012123,21.6880828 21.9324435,22.218578 21.9324435,22.8734081 C21.9324435,23.5276856 21.4012123,24.0581808 20.7467088,24.0581808 C20.0922054,24.0581808 19.5609741,23.5276856 19.5609741,22.8734081 C19.5609741,22.218578 20.0922054,21.6880828 20.7467088,21.6880828" id="Fill-17" fill="#02E2DF"></path>
          <path d="M15.275248,21.1411201 C15.9297514,21.1411201 16.4609827,21.6716153 16.4609827,22.3264454 C16.4609827,22.9807229 15.9297514,23.5112181 15.275248,23.5112181 C14.6207446,23.5112181 14.0895133,22.9807229 14.0895133,22.3264454 C14.0895133,21.6716153 14.6207446,21.1411201 15.275248,21.1411201" id="Fill-19" fill="#02E2DF"></path>
          <path d="M26.2181144,21.1411201 C26.8726178,21.1411201 27.4038491,21.6716153 27.4038491,22.3264454 C27.4038491,22.9807229 26.8726178,23.5112181 26.2181144,23.5112181 C25.5636109,23.5112181 25.0323797,22.9807229 25.0323797,22.3264454 C25.0323797,21.6716153 25.5636109,21.1411201 26.2181144,21.1411201" id="Fill-21" fill="#02E2DF"></path>
          <path d="M20.7467088,30.5296703 C21.4012123,30.5296703 21.9324435,31.0601656 21.9324435,31.7149957 C21.9324435,32.3692732 21.4012123,32.8997684 20.7467088,32.8997684 C20.0922054,32.8997684 19.5609741,32.3692732 19.5609741,31.7149957 C19.5609741,31.0601656 20.0922054,30.5296703 20.7467088,30.5296703" id="Fill-23" fill="#02E2DF"></path>
          <path d="M15.275248,29.9827076 C15.9297514,29.9827076 16.4609827,30.5132029 16.4609827,31.168033 C16.4609827,31.8223105 15.9297514,32.3528057 15.275248,32.3528057 C14.6207446,32.3528057 14.0895133,31.8223105 14.0895133,31.168033 C14.0895133,30.5132029 14.6207446,29.9827076 15.275248,29.9827076" id="Fill-25" fill="#02E2DF"></path>
          <path d="M26.2181144,29.9827076 C26.8726178,29.9827076 27.4038491,30.5132029 27.4038491,31.168033 C27.4038491,31.8223105 26.8726178,32.3528057 26.2181144,32.3528057 C25.5636109,32.3528057 25.0323797,31.8223105 25.0323797,31.168033 C25.0323797,30.5132029 25.5636109,29.9827076 26.2181144,29.9827076" id="Fill-27" fill="#02E2DF"></path>
          <path d="M20.7467088,39.3712579 C21.4012123,39.3712579 21.9324435,39.9017532 21.9324435,40.5565833 C21.9324435,41.2108607 21.4012123,41.741356 20.7467088,41.741356 C20.0922054,41.741356 19.5609741,41.2108607 19.5609741,40.5565833 C19.5609741,39.9017532 20.0922054,39.3712579 20.7467088,39.3712579" id="Fill-29" fill="#02E2DF"></path>
          <path d="M15.275248,38.8242952 C15.9297514,38.8242952 16.4609827,39.3547905 16.4609827,40.0096205 C16.4609827,40.663898 15.9297514,41.1943933 15.275248,41.1943933 C14.6207446,41.1943933 14.0895133,40.663898 14.0895133,40.0096205 C14.0895133,39.3547905 14.6207446,38.8242952 15.275248,38.8242952" id="Fill-31" fill="#02E2DF"></path>
          <path d="M26.2181144,38.8242952 C26.8726178,38.8242952 27.4038491,39.3547905 27.4038491,40.0096205 C27.4038491,40.663898 26.8726178,41.1943933 26.2181144,41.1943933 C25.5636109,41.1943933 25.0323797,40.663898 25.0323797,40.0096205 C25.0323797,39.3547905 25.5636109,38.8242952 26.2181144,38.8242952" id="Fill-33" fill="#02E2DF"></path>
        </g>
        <path d="M9.02955568,5.36374051 L11.0362771,4.25394058 C11.3296185,4.09171068 11.587632,3.94163993 11.8103178,3.80372833 L11.823194,3.81136442 C11.7580726,3.94084126 11.6987794,4.09414972 11.6453142,4.27128979 L10.9674241,6.51297199 L12.1874442,7.23649148 L16.9675747,4.59288166 L15.6799545,3.8292727 L13.4384508,5.06936872 C13.251723,5.17444391 13.1219715,5.25342981 13.0491965,5.30632642 L13.0363203,5.29869033 C13.054556,5.27384804 13.0713348,5.24304785 13.0866565,5.20628975 C13.1019782,5.16953166 13.1168015,5.13120454 13.1311264,5.09130841 C13.1454514,5.05141228 13.1586652,5.01213065 13.1707678,4.97346353 C13.1828705,4.93479641 13.1937095,4.90174719 13.2032849,4.87431587 L13.8354386,2.73540287 L12.522066,1.95652174 L7.74193548,4.60013156 L9.02955568,5.36374051 Z M14.6407204,8.78688916 C15.2437558,9.14451269 15.8776496,9.33196472 16.5424018,9.34924527 C17.2071539,9.36652582 17.8273156,9.21600874 18.4028869,8.89769403 C18.7295625,8.71702892 18.9484054,8.50807165 19.0594156,8.27082221 C19.1704259,8.03357277 19.1571298,7.78882458 19.0195272,7.53657762 C18.8819247,7.28433067 18.6178344,7.04239317 18.2272562,6.81076512 C17.8495543,6.58677316 17.444733,6.42819963 17.0127924,6.33504453 C16.5808517,6.24188943 16.1532142,6.22259987 15.7298798,6.27717583 C15.3065454,6.33175179 14.9137621,6.45920444 14.55153,6.65953378 C13.9870702,6.97170342 13.7111344,7.31553552 13.7237228,7.69103007 C13.7363111,8.06652463 14.041977,8.43181099 14.6407204,8.78688916 Z M15.693625,8.21934654 C15.3459675,8.01317212 15.4288125,7.76813376 15.9421598,7.48423145 C16.4288398,7.21507731 16.8438624,7.18231477 17.1872278,7.38594383 C17.5305932,7.58957288 17.4700473,7.81981941 17.0055902,8.0766834 C16.47002,8.37287585 16.0326983,8.42043023 15.693625,8.21934654 Z M18.3909142,11.0109002 C18.8072447,11.2578005 19.2212657,11.4371112 19.632977,11.5488326 C20.0446884,11.6605539 20.4504108,11.6999568 20.8501444,11.6670415 C21.2498779,11.6341261 21.608638,11.5297939 21.9264244,11.3540448 C22.2531,11.1733797 22.4360759,10.9584334 22.475352,10.7092058 C22.5146282,10.4599782 22.3949862,10.1381548 22.1164262,9.7437355 C21.9783717,9.5421588 21.904031,9.4006524 21.8934042,9.31921628 C21.8827773,9.23778016 21.9274653,9.16940928 22.027468,9.11410363 C22.1319153,9.05633996 22.2613525,9.03886542 22.4157796,9.06168003 C22.5702067,9.08449463 22.7246775,9.14171847 22.8791919,9.23335154 C23.2547478,9.45607082 23.5267388,9.74344436 23.6951649,10.0954721 L24.9118648,9.4225868 C24.7678407,9.27350205 24.6505686,9.16065756 24.5600484,9.08405333 C24.4695282,9.0074491 24.3633349,8.92537047 24.2414685,8.83781745 C24.1196021,8.75026442 23.9781926,8.65876235 23.8172401,8.56331123 C23.2463951,8.22477792 22.6530989,8.03147557 22.0373513,7.98340416 C21.4216038,7.93533275 20.8826126,8.03911454 20.4203778,8.29474952 C19.7603597,8.65976677 19.6538327,9.14417877 20.1007968,9.74798551 C20.241531,9.93332301 20.3287261,10.0652609 20.3623819,10.1437991 C20.3960377,10.2223374 20.4043442,10.2902996 20.3873014,10.3476858 C20.3702586,10.4050719 20.3228472,10.4552728 20.2450673,10.4982883 C20.1361754,10.55851 20.0115477,10.5794735 19.8711842,10.5611788 C19.7308207,10.542884 19.5844547,10.4885565 19.4320863,10.3981961 C19.2303592,10.278564 19.057538,10.1244993 18.9136228,9.93600193 C18.7697075,9.74750456 18.6745138,9.55542773 18.6280414,9.35977144 L17.3180056,10.0842754 C17.5504204,10.4156719 17.9080566,10.7245469 18.3909142,11.0109002 Z M25.3184103,15.7609979 L25.3184235,14.3627496 C26.2576116,14.372138 27.0972157,14.1722014 27.8372359,13.7629396 C28.3150267,13.4987015 28.6472986,13.2061074 28.8340516,12.8851571 C29.0208046,12.5642069 29.0414853,12.244099 28.8960937,11.9248334 C28.7507021,11.6055678 28.4569648,11.3148488 28.0148819,11.0526764 C27.5556307,10.7803226 27.0396243,10.5959258 26.4668626,10.4994862 C25.8941009,10.4030465 25.3134798,10.4031858 24.7249991,10.4999039 C24.1365185,10.596622 23.5989382,10.7795581 23.1122582,11.0487123 C22.6478011,11.3055763 22.3303962,11.5942526 22.1600435,11.9147411 C21.9896907,12.2352297 21.9804292,12.5570158 22.1322589,12.8800994 C22.2840886,13.203183 22.5767528,13.4932657 23.0102516,13.7503474 C23.1969566,13.8610707 23.3950398,13.956893 23.6045013,14.0378142 L23.573685,14.7263078 L25.3184103,15.7609979 Z M24.2660376,13.0853601 C24.0020755,12.9288203 23.9022656,12.7448303 23.9666079,12.5333902 C24.0309502,12.32195 24.2575711,12.1086912 24.6464706,11.8936137 C25.0442593,11.6736201 25.4293027,11.5492182 25.8016008,11.5204078 C26.173899,11.4915975 26.4984672,11.5592803 26.7753055,11.7234562 C27.0285375,11.8736327 27.1147822,12.0546718 27.0340396,12.2665736 C26.9532971,12.4784754 26.7162538,12.6931941 26.3229097,12.9107296 C25.9517884,13.115975 25.5789676,13.2336174 25.2044472,13.2636567 C24.8299267,13.2936961 24.5171236,13.2342639 24.2660376,13.0853601 Z M27.477934,16.3043478 L32.2580645,13.660738 L30.8674347,12.8360403 L26.0873042,15.4796502 L27.477934,16.3043478 Z" id="NoSQI" fill="#FFFFFF" fill-rule="nonzero" transform="translate(20.000000, 9.130435) rotate(-360.000000) translate(-20.000000, -9.130435) "></path>
      </g>
    </g>
  </g>
</svg>
