<?xml version="1.0" encoding="UTF-8"?>
<svg xmlns="http://www.w3.org/2000/svg" xmlns:xlink="http://www.w3.org/1999/xlink" width="60px" height="60px" viewBox="0 0 60 60" version="1.1">
  <title>pc终端</title>
  <defs>
    <polygon id="path-1" points="0 0 44.6627518 0 44.6627518 27.2887229 0 27.2887229"></polygon>
    <polygon id="path-3" points="0 0 33.2609163 0 33.2609163 19.5976193 0 19.5976193"></polygon>
  </defs>
  <g id="页面" stroke="none" stroke-width="1" fill="none" fill-rule="evenodd">
    <g id="图标" transform="translate(-198.000000, -132.000000)">
      <g id="编组" transform="translate(200.000000, 133.000000)">
        <path d="M46.0674485,37.0024147 C46.0611007,37.1060793 46.0476997,37.2097439 46.0350041,37.3063565 C46.0272456,37.3613623 46.0166659,37.4149576 46.0025597,37.4685529 C45.9835162,37.546125 45.9637675,37.6236972 45.9376709,37.7012694 C45.9186274,37.7598011 45.8988787,37.8112808 45.8798352,37.8634657 C45.8516227,37.9339858 45.8191783,38.0030956 45.782502,38.0700897 C45.7571107,38.1222746 45.7310142,38.1737543 45.6985698,38.2259393 C45.6534297,38.2971646 45.6075844,38.3690952 45.5553912,38.4396153 C45.5229468,38.4847482 45.4905024,38.5298811 45.4517102,38.575014 C45.354377,38.701245 45.2457588,38.8176033 45.1279715,38.9247939 L45.1145706,38.9374875 C44.9100298,39.1236607 44.6864456,39.2886779 44.4480498,39.4297182 C44.4156054,39.450169 44.383161,39.4748511 44.3443688,39.4945967 C44.1482918,39.6088393 43.9451616,39.7103883 43.7356837,39.7985385 C43.6651524,39.8309778 43.5868626,39.8570703 43.515626,39.8824575 C43.3724475,39.9409892 43.2306796,39.9924689 43.0818585,40.038307 C42.7440136,40.143382 42.4005261,40.2294166 42.0528068,40.297116 C41.9357249,40.3175668 41.825696,40.335902 41.7093194,40.3549425 C41.5541505,40.3810349 41.3982764,40.4007806 41.2367597,40.419821 L40.80934,40.4586071 C40.6661615,40.4720059 40.5314467,40.4783527 40.3882681,40.4846996 C40.2330993,40.4910464 40.0779304,40.4973932 39.9220562,40.4973932 C39.7788777,40.4973932 39.6314673,40.5044452 39.4882887,40.4973932 C39.3331199,40.4973932 39.177951,40.4910464 39.0227822,40.4846996 C38.8542124,40.4783527 38.6919904,40.4720059 38.5241259,40.4586071 C38.3753048,40.4459135 38.2264838,40.4332199 38.0840106,40.419821 C37.8829963,40.3993702 37.6826875,40.3810349 37.4753254,40.3485957 C37.3392,40.3281448 37.1967268,40.3098096 37.0613067,40.2907692 C36.7890559,40.2519831 36.5175104,40.1997982 36.2389117,40.1476133 C36.1288829,40.1271624 36.0252019,40.1088272 35.9151731,40.0827347 C35.4750577,39.9917637 35.0349424,39.8817523 34.5941218,39.7590472 C34.5165374,39.7385964 34.4389529,39.7139144 34.3613685,39.6878219 C33.7724321,39.5129319 33.1827905,39.3197067 32.6002019,39.0919267 C32.503574,39.0531406 32.4125887,39.0143545 32.3152555,38.9755684 C32.0112656,38.8528634 31.7072757,38.7167595 31.4089283,38.5806556 C31.2988994,38.5291759 31.1825228,38.476991 31.072494,38.4255113 C30.6909196,38.2379277 30.30864,38.0432921 29.9397613,37.8303212 C26.9231375,36.0891788 25.2917486,33.9594704 25.2973911,32.1597962 L25.2910248,33.6421297 C25.2846954,35.4418039 26.9160844,37.5715123 29.9334135,39.3126547 C30.3015868,39.5263308 30.6838665,39.7202612 31.0661461,39.9078448 C31.176175,39.9600297 31.2862038,40.0115094 31.4025804,40.0636943 C31.7002225,40.199093 32.0049178,40.3351968 32.3089077,40.4579019 C32.3801443,40.4839944 32.4450331,40.5227804 32.5162697,40.5488729 C32.5409556,40.5601561 32.5670522,40.5693237 32.5938541,40.5749653 C33.1700948,40.801335 33.7597365,40.9952654 34.3543154,41.1701554 C34.4001607,41.182849 34.4389529,41.2025947 34.484093,41.2152883 C34.5165374,41.2286871 34.5553296,41.2286871 34.587774,41.2413807 C35.0278893,41.3640858 35.4680046,41.4748024 35.9081199,41.5650682 C35.9342165,41.571415 35.9666609,41.5777618 35.9920522,41.5855191 C36.0766897,41.6052647 36.1542742,41.6116115 36.2375011,41.6306519 C36.5097519,41.6828369 36.7812974,41.7343166 37.0535482,41.7738078 C37.118437,41.7872067 37.1826205,41.7999003 37.2475093,41.8062471 C37.3257991,41.8189407 37.3963304,41.8189407 37.4746201,41.8323396 C37.674929,41.858432 37.882291,41.8838193 38.0825999,41.9035649 C38.1672375,41.9099117 38.2575176,41.9240158 38.3421551,41.9360042 C38.4063386,41.942351 38.4641743,41.942351 38.5297684,41.9486978 C38.6976329,41.9613914 38.8662027,41.9691487 39.0284247,41.9747903 C39.1250525,41.9811371 39.2223857,41.9874839 39.3197189,41.9874839 L40.2126452,41.9874839 C40.2711862,41.9874839 40.3297272,41.9811371 40.3939106,41.9747903 C40.5370892,41.9684435 40.6788571,41.9550446 40.8149825,41.9486978 C40.8989148,41.942351 40.9899001,41.942351 41.0808855,41.928247 C41.1394265,41.9219002 41.1909143,41.9077961 41.2494553,41.9021545 C41.410972,41.8831141 41.5661409,41.8633684 41.722015,41.8379812 C41.8059473,41.8245824 41.8898795,41.8175303 41.9745171,41.8055419 C42.0062562,41.7991951 42.0394059,41.7857963 42.071145,41.7794495 C42.4188643,41.7131605 42.763057,41.6264207 43.100902,41.5206405 C43.1135976,41.5142937 43.132641,41.5142937 43.1523898,41.5072417 C43.2814621,41.4621088 43.4048919,41.4106291 43.5346695,41.3640858 C43.6052008,41.3386985 43.6834905,41.3126061 43.7540218,41.2801668 C43.9627945,41.1906062 44.1659246,41.0890572 44.3627069,40.976225 L44.4212479,40.9374389 C44.4360595,40.9282713 44.4487551,40.9176933 44.4600401,40.9049996 C44.6977306,40.7632541 44.9213148,40.598237 45.1272662,40.412769 L45.1399619,40.4000754 C45.2577491,40.2928848 45.365662,40.1765265 45.4637005,40.0502955 C45.4763962,40.0390122 45.4869759,40.0263186 45.4961449,40.0115094 C45.5215362,39.9790701 45.541285,39.940284 45.5666762,39.9078448 C45.6188694,39.8366194 45.6640094,39.7646889 45.7098548,39.6948739 L45.7493523,39.6363422 C45.7669851,39.6053133 45.7817967,39.5728741 45.7944923,39.5390244 C45.8269367,39.467799 45.8657289,39.4029205 45.8918255,39.3324004 L45.9306177,39.254123 C45.9433134,39.2287357 45.9433134,39.1962965 45.9567143,39.1638572 C45.9821056,39.0855798 46.0018544,39.0087129 46.0208978,38.9304355 C46.0279509,38.8987015 46.0406466,38.865557 46.0469944,38.8338229 C46.0526369,38.8126669 46.0547528,38.7908056 46.0533422,38.7689444 C46.070975,38.6681006 46.0815547,38.5665516 46.0857866,38.4642974 C46.0857866,38.4325633 46.0984822,38.3994188 46.0984822,38.3676848 L46.0984822,38.2964594 L46.1055354,36.8141259 C46.0815547,36.874068 46.0688591,36.9375362 46.0667432,37.0017095 L46.0674485,37.0024147 Z" id="Fill-1" fill="#0A5FF1"></path>
        <path d="M34.6932183,40.8150864 C35.1269858,40.9314447 35.5544055,41.0414561 35.9818251,41.1324271 L36.3055638,41.1973056 C36.5707615,41.2487854 36.8359592,41.2939182 37.1018622,41.3327043 L37.5095331,41.391236 C37.709842,41.4173285 37.9045084,41.4363689 38.0984695,41.4561146 L38.532237,41.4949007 C38.694459,41.5075943 38.8559756,41.5153515 39.0181976,41.5209931 L39.3094919,41.5336867 L39.4710086,41.5336867 C39.6141871,41.5400336 39.7496072,41.5336867 39.8920804,41.5336867 L40.3448914,41.5209931 C40.4810168,41.5146463 40.6171422,41.5075943 40.7525623,41.4949007 L41.1609385,41.4561146 C41.3224552,41.4356637 41.4719816,41.4173285 41.6200973,41.391236 L41.9572369,41.3327043 C42.2845022,41.2713518 42.6089461,41.191664 42.9277476,41.093641 C43.0293127,41.0640226 43.1287618,41.0294677 43.226095,40.9899764 L43.5427806,40.8672714 C43.735331,40.7847628 43.9236496,40.6916762 44.1063257,40.5887168 L44.1902579,40.5372371 C44.4074943,40.4088904 44.6113298,40.2593877 44.798943,40.0908445 C44.9033294,39.9935267 45.0006625,39.8898621 45.0902373,39.7798507 L45.1741695,39.6634924 C45.2193096,39.6049607 45.2588071,39.5407874 45.296894,39.4822557 L45.3681306,39.3524986 C45.3744784,39.336279 45.3829422,39.3207645 45.3942272,39.3073657 C45.1748749,39.5055273 44.9364791,39.6811225 44.6825664,39.8313304 L44.5725376,39.9025557 C44.3651755,40.018914 44.1451179,40.1296306 43.9180071,40.23259 C43.8629927,40.2579773 43.8072729,40.2798385 43.7494373,40.2974686 C43.5293796,40.3813875 43.3812639,40.4406245 43.2176313,40.4921042 C42.8621535,40.6014104 42.5017386,40.6923814 42.1363864,40.7636067 C42.0200098,40.7840576 41.8972853,40.8023928 41.7738555,40.8221385 C41.605991,40.8475257 41.4437691,40.8736182 41.2822524,40.8926586 C41.1334313,40.9060574 40.9846103,40.9250979 40.8357892,40.9321499 C40.6862629,40.9448435 40.544495,40.9526007 40.3949686,40.9645892 C40.2397998,40.970936 40.0782831,40.9772828 39.9160611,40.9772828 C39.76724,40.9772828 39.618419,40.9836296 39.469598,40.9772828 C39.3137238,40.9772828 39.1585549,40.970936 39.0033861,40.9645892 C38.8221206,40.9575371 38.6535508,40.9511903 38.4793385,40.9384967 L38.0258222,40.8997106 C37.8184602,40.8792598 37.6118035,40.8538725 37.4044415,40.8284853 L36.9770218,40.7699536 C36.6991285,40.7248207 36.4205298,40.6796878 36.1355834,40.621156 L35.8054969,40.5562775 C35.3590338,40.4596649 34.9055175,40.3496535 34.4590544,40.2262432 L34.2255958,40.1550179 C33.5978672,39.9737811 32.9955299,39.7664519 32.4263423,39.5471342 L32.135048,39.4300708 C31.824005,39.3003137 31.5136672,39.1712618 31.208972,39.0288111 L30.8661899,38.86732 C30.4712146,38.6726844 30.0825872,38.4724072 29.7073606,38.2523843 C28.4857585,37.5697493 27.3777118,36.7002359 26.4248339,35.6755781 C27.1632966,36.8151837 28.4582513,37.9674829 30.1601716,38.9448922 C30.5163547,39.1515162 30.8915812,39.339805 31.267513,39.5273886 L31.5975995,39.6825329 C31.8888938,39.8186368 32.1865358,39.9483938 32.4841779,40.0710989 L32.6851921,40.1550179 C33.3065729,40.3947864 33.8828136,40.5887168 34.4844456,40.7636067 L34.5690832,40.796046 L34.5895373,41.2748778 L34.6932183,40.8150864 Z M39.593733,42.4462174 L39.28269,42.4462174 L38.9850479,42.4264718 C38.8164781,42.420125 38.6479083,42.4137782 38.473696,42.4003793 L38.0201797,42.3615933 C37.813523,42.3425528 37.606161,42.3164604 37.398799,42.2903679 L37.0426159,42.245235 C36.693486,42.1937553 36.4148873,42.1415704 36.1299409,42.0837439 L35.7935066,42.0188654 C35.3470434,41.9278944 34.899875,41.8115361 34.4534119,41.6888311 L34.2460498,41.6302993 C33.5922247,41.4363689 32.9842449,41.2353865 32.4206998,41.0090169 L32.2069899,40.9250979 C31.8183625,40.7629015 31.5080247,40.6275029 31.2040348,40.4850522 L30.8605474,40.3228558 C30.4655721,40.1289254 30.0769446,39.927943 29.7017181,39.714267 C26.6463022,37.9477373 24.8265946,35.681925 24.8336273,33.6495343 L24.8399956,32.1735476 L25.7463228,32.1735476 C25.739975,33.8505167 27.4362528,35.8695085 30.1615822,37.4484546 C30.51706,37.6557839 30.8929918,37.8504195 31.2682183,38.0316563 L31.546817,38.1607081 C31.8895991,38.3229045 32.1872412,38.4456095 32.4855886,38.5683146 L32.7634819,38.685378 C33.3072782,38.8990541 33.8835189,39.0929845 34.4858562,39.2678744 L34.7122617,39.3320478 C35.1460292,39.4547528 35.5734489,39.5591226 36.0072164,39.6493884 L36.3239019,39.714267 C36.5898049,39.7657467 36.8613505,39.8115848 37.1272535,39.8574229 C37.2626736,39.8778737 37.398799,39.8962089 37.5285766,39.9159546 C37.7288855,39.9413418 37.9235518,39.9674343 38.1238607,39.9801279 L38.5576282,40.0196192 C38.7198502,40.0323128 38.8813669,40.0386596 39.0435889,40.0450064 C39.1987578,40.0513533 39.3475788,40.0584053 39.4963998,40.0584053 C39.6395784,40.0647521 39.7749985,40.0584053 39.9174717,40.0584053 C40.0662928,40.0584053 40.2151138,40.0513533 40.3702827,40.0450064 C40.5064081,40.0386596 40.6425335,40.0245556 40.7786589,40.0196192 L41.1926776,39.9801279 C41.3478465,39.9610875 41.4966675,39.9413418 41.6525417,39.9159546 L41.9826282,39.8574229 C42.3127147,39.7953651 42.6392746,39.7135618 42.960192,39.6120127 C43.0956121,39.5668798 43.2317375,39.5154001 43.3615151,39.4632152 L43.5688771,39.3856431 C43.7614276,39.3031345 43.9490409,39.2100479 44.1317169,39.1070885 L44.4618034,39.4371228 L44.221997,39.0485568 C44.4364121,38.9244413 44.636721,38.7770542 44.8179865,38.6085111 C44.9216675,38.5118985 45.0190007,38.4075286 45.1092807,38.2982224 L45.1607686,38.2262919 C45.2171936,38.1536561 45.2686815,38.0781995 45.3166428,37.9999222 C45.3406234,37.9604309 45.3617828,37.9195292 45.3815316,37.8772171 C45.4132707,37.8130438 45.4393672,37.7545121 45.4654638,37.6959804 C45.4845073,37.6508475 45.4972029,37.6057146 45.5169517,37.5598765 L45.5754926,37.3659461 L45.6072317,37.2305474 C45.6206327,37.1459232 45.6269805,37.0620042 45.6333283,36.9773801 L45.6467293,36.8349294 L46.5530565,36.8349294 L46.5460033,38.3102108 C46.5488246,38.3729738 46.5445927,38.4364419 46.5333077,38.4977944 C46.5255493,38.6219099 46.5100324,38.7446149 46.4881677,38.8659096 L46.4493755,39.0407996 C46.4232789,39.1444642 46.3971823,39.2354352 46.3647379,39.3257009 C46.3583901,39.3581402 46.3442838,39.3905795 46.3386413,39.4230187 L46.2935013,39.5203366 C46.2610569,39.5979087 46.2222647,39.6818277 46.1834725,39.7593998 C46.1573759,39.8115848 46.1446802,39.8433188 46.1319846,39.8757581 L46.0797914,39.9533303 C46.0346514,40.0245556 45.9768157,40.1091798 45.9182748,40.1930988 C45.8942941,40.2332952 45.8681975,40.2720813 45.839985,40.309457 C45.7158499,40.4667169 45.5797245,40.6133988 45.4323141,40.7502079 C45.2009714,40.9610632 44.9491747,41.1493519 44.6818611,41.3129587 L44.3447215,40.9892712 L44.5718322,41.384184 C44.3644702,41.5005423 44.1444126,41.6105537 43.9173018,41.7142183 C43.8721617,41.733964 43.8199686,41.7530044 43.7614276,41.77275 L43.5738143,41.8439754 C43.4771865,41.8827615 43.3798533,41.9215476 43.2761722,41.9539868 C42.9044723,42.0696399 42.5264245,42.1648421 42.1434396,42.2388882 C42.1095845,42.2494662 42.0750242,42.2579287 42.0397585,42.2642755 C41.9819229,42.2769691 41.9240872,42.2854315 41.8648409,42.2903679 C41.619392,42.329154 41.4508222,42.3488996 41.2822524,42.3679401 L40.8421371,42.4067262 C40.6989585,42.420125 40.5508428,42.427177 40.4020217,42.4391654 L40.2144085,42.4525643 L39.9167664,42.4525643 C39.8010951,42.4462174 39.6974141,42.4462174 39.593733,42.4462174 L39.593733,42.4462174 Z" id="Fill-3" fill="#1654E7"></path>
        <path d="M41.4321314,31.1641928 C46.2162695,33.9278773 47.517572,37.6626243 44.3387263,39.5074314 C41.1598806,41.3522384 34.7126144,40.6082509 29.9284763,37.8438611 C25.150686,35.0865234 23.8430356,31.3517764 27.0218814,29.5069693 C30.2000218,27.6628675 36.6543411,28.4005082 41.4321314,31.1641928" id="Fill-5" fill="#488AF9"></path>
        <path d="M31.6762419,28.9375897 C29.9284763,28.9375897 28.3683239,29.2478783 27.2482868,29.9023053 C26.2446264,30.4848017 25.7332745,31.2548817 25.7332745,32.1935049 C25.7332745,33.8958612 27.3844122,35.8633733 30.1485339,37.4557182 C34.7965466,40.1418306 41.0569049,40.8865234 44.105973,39.1115313 C45.0962325,38.5360869 45.6209853,37.7462612 45.6209853,36.8203317 C45.6209853,35.1179753 43.9698476,33.1504632 41.2057259,31.5517715 C38.2666866,29.8564672 34.6865178,28.9375897 31.6762419,28.9375897 Z M39.7034092,40.9640955 C36.1930664,40.9126158 32.7532549,39.9754031 29.7020708,38.2384918 C26.653708,36.478309 24.8332951,34.2202539 24.8332951,32.1935049 C24.8332951,30.9311942 25.5132168,29.8621088 26.7954759,29.1188264 C30.0899929,27.2027941 36.7643699,27.9404348 41.6585369,30.7697031 C44.707605,32.529886 46.5266072,34.7886463 46.5266072,36.8217421 C46.5266072,38.0889891 45.8473908,39.1524329 44.5651318,39.9027673 C43.3287181,40.6143156 41.6197447,40.9640955 39.7034092,40.9640955 L39.7034092,40.9640955 Z" id="Fill-7" fill="#7BB8FC"></path>
        <path d="M36.641857,33.5396639 C38.0270918,34.3421832 38.4030236,35.4232571 37.4832955,35.9606206 C36.5642726,36.4972789 34.6930772,36.277256 33.3078425,35.4810836 C31.9226077,34.6785643 31.5473812,33.5974905 32.4664041,33.067179 C33.3854269,32.5234686 35.2566223,32.7371447 36.641857,33.5396639" id="Fill-9" fill="#FFFFFF"></path>
        <path d="M33.8187712,33.2166111 C33.4280278,33.2010967 33.038695,33.2807845 32.6860385,33.4500328 C32.4074399,33.611524 32.4074399,33.7793619 32.4074399,33.8315468 C32.4074399,34.1101014 32.6987342,34.6016268 33.5274769,35.0811638 C34.8936682,35.8702843 36.5511538,35.9676021 37.2494137,35.5599956 C37.5280123,35.3977993 37.5280123,35.2299613 37.5280123,35.1714296 C37.5280123,34.892875 37.2360127,34.4013496 36.4079753,33.9225178 C35.6180247,33.4733045 34.7272144,33.2307152 33.8187712,33.2166111 M36.1293766,36.6981908 C35.0587115,36.6826764 34.009911,36.3949542 33.0803085,35.8632323 C32.0837012,35.2870827 31.5074605,34.5494419 31.5074605,33.8308416 C31.5152189,33.335085 31.7966388,32.8844613 32.2388701,32.659502 C33.3003661,32.0445663 35.3330782,32.2518955 36.8678393,33.1383338 C37.8644466,33.7144834 38.4406873,34.4591761 38.4406873,35.1707244 C38.4329289,35.666481 38.151509,36.1171048 37.7092778,36.3427693 C37.2233171,36.5987574 36.6781101,36.7214624 36.1293766,36.6981908" id="Fill-11" fill="#1654E7"></path>
        <path d="M12.0674118,31.3324539 L1.09415207,37.7081803 C0.481235064,38.0621915 0.271051788,38.8456703 0.625118917,39.4591956 C0.737968998,39.6538312 0.899485677,39.8153223 1.09415207,39.9281546 L31.3139931,57.3720181 C31.712495,57.6019138 32.2033928,57.6019138 32.6018947,57.3720181 L43.5751544,50.9962916 C44.1880714,50.6422805 44.3982547,49.8580964 44.0434823,49.2452764 C43.9313375,49.0506408 43.7698208,48.8891496 43.5751544,48.7763174 L13.3560187,31.3324539 C12.9561062,31.1060842 12.466619,31.1060842 12.0674118,31.3324539" id="Fill-13" fill="#0A5FF1"></path>
        <g transform="translate(0.000000, 30.711277)">
          <mask id="mask-2" fill="white">
            <use xlink:href="#path-1"></use>
          </mask>
          <g id="Clip-16"></g>
          <path d="M12.714607,0.905923999 C12.5693126,0.90741799 12.4268393,0.944793668 12.3005883,1.01601902 L1.32732855,7.3917455 C1.07341586,7.5398378 0.916131064,7.80992997 0.913300444,8.10329378 C0.911899186,8.4001836 1.0698893,8.67450697 1.32732855,8.82189407 L31.5464643,26.2657576 C31.8053142,26.4145551 32.1234103,26.4145551 32.3822602,26.2657576 L43.3484668,19.8970831 C43.7455581,19.6671875 43.8809781,19.1594424 43.6510461,18.762414 C43.5783989,18.6368881 43.4740125,18.5325183 43.3484668,18.4598825 L13.1286258,1.01601902 C13.0037854,0.941972862 12.8599015,0.903891983 12.714607,0.905923999 M31.9548405,27.2890095 C31.6501453,27.2890095 31.3503873,27.208612 31.0873055,27.0555833 L0.867464466,9.61171972 C0.037311058,9.13147752 -0.246930083,8.06944411 0.233388074,7.23871678 C0.384325057,6.97779223 0.60085615,6.76059018 0.861116649,6.60826666 L11.8343764,0.233245386 C12.3732355,-0.0777484619 13.0369351,-0.0777484619 13.5757942,0.233245386 L43.79493,17.6771089 C44.6257887,18.1573511 44.9093245,19.2193845 44.4290064,20.0501119 C44.2780694,20.3110364 44.0622436,20.5282385 43.8012778,20.680562 L32.8287233,27.0555833 C32.5628203,27.2093172 32.2616517,27.2897101 31.9548405,27.2890095" id="Fill-15" fill="#1654E7" mask="url(#mask-2)"></path>
        </g>
        <polygon id="Fill-17" fill="#0A5FF1" points="51.9908787 19.1444569 49.4270659 43.0740583 19.629002 25.8763101 22.1921095 1.94670865"></polygon>
        <path d="M20.1143279,25.6292075 L49.0519099,42.3361355 L51.5056939,19.3902901 L22.5681119,2.68406731 L20.1143279,25.6292075 Z M49.4271364,43.5335676 C49.3481414,43.5335676 49.2698516,43.5131167 49.200731,43.4750359 L19.4019618,26.2709408 C19.2467929,26.1813802 19.1579235,26.0093111 19.1755563,25.8308951 L21.7393691,1.89424167 C21.766171,1.64530555 21.9897552,1.46547917 22.2387307,1.49227683 C22.3022088,1.49862364 22.3635711,1.51907448 22.4192908,1.55151375 L52.2173547,18.7499672 C52.3725236,18.8395278 52.461393,19.0115969 52.4437602,19.1900129 L49.8806527,43.1189091 C49.8651358,43.2719378 49.7727398,43.4066313 49.6352038,43.4750359 C49.5724309,43.5131167 49.500489,43.5335676 49.4271364,43.5335676 L49.4271364,43.5335676 Z" id="Fill-19" fill="#1654E7"></path>
        <polygon id="Fill-21" fill="#488AF9" points="51.9908787 19.1444569 54.546933 17.6621234 51.9838256 41.5917248 49.4270659 43.0740583"></polygon>
        <path d="M52.4180162,19.4227294 L49.9776332,42.2324709 L51.5638822,41.3128882 L53.9972121,18.5024415 L52.4180162,19.4227294 Z M49.4274891,43.5335676 C49.3407356,43.5328624 49.2553927,43.5081803 49.1820402,43.4623422 C49.0395669,43.3699608 48.9612772,43.2042385 48.981026,43.0356954 L51.5434281,19.1053887 C51.5568291,18.9622328 51.6393507,18.8345913 51.7634858,18.7626608 L54.3195401,17.2739805 C54.5346606,17.1491598 54.8097326,17.2217956 54.9345731,17.4361768 C54.9832396,17.5200958 55.0036937,17.6174136 54.993114,17.7140262 L52.4314172,41.6436277 C52.4173109,41.7867836 52.3354946,41.914425 52.2113595,41.9863556 L49.6545999,43.4750359 C49.5840686,43.5110011 49.5064842,43.5307468 49.4274891,43.5335676 L49.4274891,43.5335676 Z" id="Fill-23" fill="#1654E7"></path>
        <polygon id="Fill-25" fill="#488AF9" points="22.1926032 1.94642657 24.7486575 0.457746273 54.5474267 17.6625465 51.9913724 19.1441748"></polygon>
        <g transform="translate(21.739084, 0.000000)">
          <mask id="mask-4" fill="white">
            <use xlink:href="#path-3"></use>
          </mask>
          <g id="Clip-28"></g>
          <path d="M1.35963513,1.94642657 L30.2520771,18.6265569 L31.9032149,17.6688933 L3.01006756,0.981710965 L1.35963513,1.94642657 Z M30.2520771,19.5976193 C30.1723767,19.5976193 30.0947923,19.5771685 30.0249663,19.5390876 L0.226902437,2.3413394 C0.00896071856,2.21369793 -0.0650971471,1.93373295 0.062564507,1.71582569 C0.102767348,1.64742115 0.159192389,1.59100503 0.226902437,1.55151375 L2.78295677,0.0628334509 C2.92190343,-0.0210855239 3.09682106,-0.0210855239 3.23576772,0.0628334509 L33.0345369,17.2605817 C33.2524786,17.3882231 33.3258312,17.6688933 33.1981695,17.8868006 C33.158672,17.9544999 33.102247,18.010916 33.0345369,18.0504073 L30.4784826,19.5390876 C30.4086566,19.5771685 30.3310722,19.5976193 30.2520771,19.5976193 L30.2520771,19.5976193 Z" id="Fill-27" fill="#1654E7" mask="url(#mask-4)"></path>
        </g>
        <path d="M20.1658158,46.5756112 C20.0832941,46.5763004 20.0028884,46.5537339 19.9323571,46.5107166 L8.75244069,39.8571408 C8.53802553,39.7280889 8.46819955,39.4502395 8.59727183,39.2351531 C8.72563879,39.0207718 9.00423743,38.9509569 9.21865258,39.0800088 L20.398569,45.7335846 C20.6129842,45.8626365 20.6828102,46.1404859 20.5544432,46.3548671 C20.4733322,46.4923814 20.3252165,46.5763004 20.1665211,46.5756112 L20.1658158,46.5756112 Z M24.3610175,51.6241703 C24.1980902,51.6262481 24.0471532,51.5395083 23.9660422,51.3977628 C23.8433178,51.181266 23.9145544,50.9062374 24.1275589,50.7764803 L35.5733784,44.1229045 C35.7863829,43.9903266 36.0663922,44.0552051 36.198991,44.268176 C36.3315899,44.4811468 36.2659957,44.7611118 36.0529912,44.8936897 C36.0466434,44.8979209 36.0395903,44.9021521 36.0325371,44.9056781 L24.5937708,51.5599591 C24.5232395,51.6022712 24.4428338,51.6241703 24.3610175,51.6241703 L24.3610175,51.6241703 Z" id="Fill-29" fill="#02E2DF"></path>
        <path d="M31.9613294,55.9547042 C31.8823344,55.9547042 31.8040446,55.9342533 31.7349239,55.8961725 L0.712436668,38.1998468 C0.494494949,38.0750261 0.419026457,37.7964716 0.543866859,37.5785643 C0.669412574,37.3606571 0.947305899,37.2852005 1.16524762,37.4100212 L31.9676772,54.9836418 L41.3934802,49.6692435 C41.6128326,49.5465384 41.8914312,49.6241106 42.014861,49.8441335 C42.1382908,50.0641563 42.060001,50.3427109 41.8399434,50.4654159 L32.1940827,55.9088661 C32.1193195,55.9363689 32.0403245,55.9511782 31.9606241,55.9547042 L31.9613294,55.9547042 Z" id="Fill-31" fill="#7BB8FC"></path>
        <polygon id="Fill-33" fill="#FFFFFF" points="48.8642967 20.471364 46.8767246 39.0287406 22.3346532 24.5100528 24.3222253 5.95338132"></polygon>
        <path d="M22.8201907,24.2643606 L46.5074227,38.2781242 L48.3849659,20.7108504 L24.6977339,6.7041388 L22.8201907,24.2643606 Z M46.8770067,39.4811979 C46.7944851,39.4816263 46.7140794,39.4600418 46.6435481,39.4170245 L22.1014768,24.8983367 C21.9470132,24.8087761 21.8602597,24.6360018 21.8814191,24.458291 L23.8689912,5.90091433 C23.8957931,5.65197821 24.1193773,5.47215184 24.3683528,5.49894949 C24.4318309,5.50529631 24.4938985,5.52574715 24.5489129,5.55818642 L49.0909843,20.0761691 C49.2454478,20.1657296 49.331496,20.3392092 49.3103366,20.51692 L47.3227646,39.0742966 C47.3093636,39.2273253 47.2162623,39.362724 47.0773156,39.4297182 C47.017364,39.4663886 46.947538,39.4847239 46.8770067,39.4811979 L46.8770067,39.4811979 Z" id="Fill-35" fill="#1654E7"></path>
      </g>
    </g>
  </g>
</svg>
