<?xml version="1.0" encoding="UTF-8"?>
<svg xmlns="http://www.w3.org/2000/svg" xmlns:xlink="http://www.w3.org/1999/xlink" width="60px" height="60px" viewBox="0 0 60 60" version="1.1">
  <title>手持设备</title>
  <defs>
    <linearGradient x1="59.0277778%" y1="53.8454001%" x2="7.11805556%" y2="53.8454001%" id="linearGradient-1">
      <stop stop-color="#EEEEEE" offset="0%"></stop>
      <stop stop-color="#C8C3C3" offset="100%"></stop>
    </linearGradient>
  </defs>
  <g id="页面" stroke="none" stroke-width="1" fill="none" fill-rule="evenodd">
    <g id="图标" transform="translate(-269.000000, -132.000000)">
      <g id="编组-2" transform="translate(286.000000, 135.000000)">
        <path d="M0.94623959,3.5044461 L6.3092363,0.365298189 C6.6961921,0.138799543 7.17383635,0.132843617 7.56631955,0.349623144 L24.4518857,9.67599693 C25.6674919,10.3474105 26.4221807,11.6263991 26.4221807,13.0151015 L26.4221807,34.2125569 C26.4221807,34.4314747 26.3656595,34.6466844 26.2580891,34.8373507 L21.2463646,43.7205271 L21.2463646,43.7205271 L21.2463646,50.8241896 C21.2463646,51.2410119 21.0420711,51.6313661 20.6995862,51.8689474 L17.9145079,53.8009525 L17.9145079,53.8009525 L17.9145079,14.3483594 L0.950741295,4.60441625 C0.646272103,4.42952995 0.541224419,4.04093553 0.716110727,3.73646634 C0.771293462,3.64039568 0.850623819,3.56041333 0.94623959,3.5044461 Z" id="路径-4" stroke="#1654E7" stroke-width="0.635762751" fill="#488AF9"></path>
        <path d="M21.2463646,17.0900576 L26.1390676,13.0524016 L26.1390676,34.2241772 C26.1390676,34.4454964 26.0813003,34.6629828 25.9714777,34.8551315 L20.9537829,43.6342327 L20.9537829,43.6342327 L20.9537829,50.7143386 C20.9537829,51.1441575 20.7366377,51.5448827 20.3765507,51.7795775 L17.6655422,53.546538 L17.6655422,53.546538 L17.6655422,42.7805906 L21.0703013,37.0029392 C21.1855718,36.8073328 21.2463646,36.5844297 21.2463646,36.3573854 L21.2463646,17.0900576 L21.2463646,17.0900576 Z" id="路径-5" fill="#3279EF"></path>
        <path d="M23.2511395,17.9077505 L23.913898,17.47979 C24.2007486,17.294563 24.5834431,17.3769453 24.76867,17.6637959 C24.8332117,17.7637478 24.8675421,17.8801999 24.8675421,17.9991789 L24.8675421,33.5904387 C24.8675421,33.8063081 24.7580041,34.0074296 24.5766565,34.1245305 L23.913898,34.5524911 C23.6270474,34.737718 23.2443529,34.6553358 23.0591259,34.3684852 C22.9945843,34.2685332 22.9602539,34.1520812 22.9602539,34.0331021 L22.9602539,18.4418423 C22.9602539,18.2259729 23.0697918,18.0248515 23.2511395,17.9077505 Z" id="矩形" fill="#0A5FF1"></path>
        <path d="M1.91341524,3.790675 L19.3574574,13.9920392 C20.5273218,14.6761819 21.2463646,15.929654 21.2463646,17.2848787 L21.2463646,37.0643366 C21.2463646,37.2879096 21.1874154,37.5075304 21.0754612,37.7010534 L18.2633658,42.5620122 L18.2633658,42.5620122 L18.2633658,52.9522463 C18.2633658,53.6544904 17.6940845,54.2237718 16.9918403,54.2237718 C16.7962443,54.2237718 16.6032851,54.1786474 16.4279732,54.0919089 L4.61904337,48.2492442 C3.31885746,47.6059556 2.49606814,46.280878 2.49606814,44.8302562 L2.49606814,33.3879986 L2.49606814,33.3879986 L5.68434189e-14,25.0735277 L5.68434189e-14,4.88828816 C5.66676043e-14,4.18604402 0.569281358,3.61676266 1.2715255,3.61676266 C1.49712832,3.61676266 1.71866915,3.6767865 1.91341524,3.790675 Z" id="路径-2" stroke="#1654E7" stroke-width="0.635762751" fill="#0A5FF1"></path>
        <path d="M4.8343931,35.7248249 L7.3009153,37.1097208 C7.50134402,37.2222569 7.62541904,37.4342172 7.62541904,37.6640781 L7.62541904,38.5252815 C7.62541904,38.8764036 7.34077836,39.1610443 6.98965629,39.1610443 C6.88063985,39.1610443 6.77345485,39.1330115 6.67839728,39.0796389 L4.21187508,37.694743 C4.01144636,37.5822068 3.88737134,37.3702466 3.88737134,37.1403856 L3.88737134,36.2791822 C3.88737134,35.9280602 4.17201202,35.6434195 4.52313409,35.6434195 C4.63215053,35.6434195 4.73933553,35.6714522 4.8343931,35.7248249 Z" id="矩形" fill="#488AF9"></path>
        <path d="M4.8343931,39.5119188 L7.3009153,40.8968147 C7.50134402,41.0093508 7.62541904,41.2213111 7.62541904,41.451172 L7.62541904,42.3123754 C7.62541904,42.6634975 7.34077836,42.9481382 6.98965629,42.9481382 C6.88063985,42.9481382 6.77345485,42.9201054 6.67839728,42.8667328 L4.21187508,41.4818369 C4.01144636,41.3693007 3.88737134,41.1573405 3.88737134,40.9274795 L3.88737134,40.0662761 C3.88737134,39.7151541 4.17201202,39.4305134 4.52313409,39.4305134 C4.63215053,39.4305134 4.73933553,39.4585461 4.8343931,39.5119188 Z" id="矩形备份-5" fill="#488AF9"></path>
        <path d="M4.8343931,43.2990127 L7.3009153,44.6839086 C7.50134402,44.7964447 7.62541904,45.008405 7.62541904,45.2382659 L7.62541904,46.0994693 C7.62541904,46.4505914 7.34077836,46.7352321 6.98965629,46.7352321 C6.88063985,46.7352321 6.77345485,46.7071993 6.67839728,46.6538267 L4.21187508,45.2689308 C4.01144636,45.1563946 3.88737134,44.9444344 3.88737134,44.7145734 L3.88737134,43.85337 C3.88737134,43.502248 4.17201202,43.2176073 4.52313409,43.2176073 C4.63215053,43.2176073 4.73933553,43.24564 4.8343931,43.2990127 Z" id="矩形备份-8" fill="#488AF9"></path>
        <path d="M9.28449508,38.2495541 L11.7510173,39.63445 C11.951446,39.7469862 12.075521,39.9589465 12.075521,40.1888074 L12.075521,41.0500108 C12.075521,41.4011329 11.7908803,41.6857735 11.4397583,41.6857735 C11.3307418,41.6857735 11.2235568,41.6577408 11.1284993,41.6043682 L8.66197706,40.2194723 C8.46154834,40.1069361 8.33747332,39.8949758 8.33747332,39.6651149 L8.33747332,38.8039115 C8.33747332,38.4527894 8.622114,38.1681488 8.97323607,38.1681488 C9.0822525,38.1681488 9.18943751,38.1961815 9.28449508,38.2495541 Z" id="矩形备份-3" fill="#488AF9"></path>
        <path d="M9.28449508,42.036648 L11.7510173,43.4215439 C11.951446,43.5340801 12.075521,43.7460404 12.075521,43.9759013 L12.075521,44.8371047 C12.075521,45.1882268 11.7908803,45.4728674 11.4397583,45.4728674 C11.3307418,45.4728674 11.2235568,45.4448347 11.1284993,45.3914621 L8.66197706,44.0065662 C8.46154834,43.89403 8.33747332,43.6820697 8.33747332,43.4522088 L8.33747332,42.5910054 C8.33747332,42.2398833 8.622114,41.9552427 8.97323607,41.9552427 C9.0822525,41.9552427 9.18943751,41.9832754 9.28449508,42.036648 Z" id="矩形备份-6" fill="#488AF9"></path>
        <path d="M9.28449508,45.8237419 L11.7510173,47.2086378 C11.951446,47.321174 12.075521,47.5331343 12.075521,47.7629952 L12.075521,48.6241986 C12.075521,48.9753206 11.7908803,49.2599613 11.4397583,49.2599613 C11.3307418,49.2599613 11.2235568,49.2319286 11.1284993,49.178556 L8.66197706,47.7936601 C8.46154834,47.6811239 8.33747332,47.4691636 8.33747332,47.2393027 L8.33747332,46.3780993 C8.33747332,46.0269772 8.622114,45.7423366 8.97323607,45.7423366 C9.0822525,45.7423366 9.18943751,45.7703693 9.28449508,45.8237419 Z" id="矩形备份-9" fill="#488AF9"></path>
        <path d="M13.7345971,40.7742834 L16.2011193,42.1591793 C16.401548,42.2717154 16.525623,42.4836757 16.525623,42.7135367 L16.525623,43.57474 C16.525623,43.9258621 16.2409823,44.2105028 15.8898602,44.2105028 C15.7808438,44.2105028 15.6736588,44.1824701 15.5786012,44.1290974 L13.112079,42.7442015 C12.9116503,42.6316654 12.7875753,42.4197051 12.7875753,42.1898441 L12.7875753,41.3286408 C12.7875753,40.9775187 13.072216,40.692878 13.423338,40.692878 C13.5323545,40.692878 13.6395395,40.7209107 13.7345971,40.7742834 Z" id="矩形备份-4" fill="#488AF9"></path>
        <path d="M13.7345971,44.5613773 L16.2011193,45.9462732 C16.401548,46.0588093 16.525623,46.2707696 16.525623,46.5006306 L16.525623,47.3618339 C16.525623,47.712956 16.2409823,47.9975967 15.8898602,47.9975967 C15.7808438,47.9975967 15.6736588,47.969564 15.5786012,47.9161913 L13.112079,46.5312954 C12.9116503,46.4187593 12.7875753,46.206799 12.7875753,45.976938 L12.7875753,45.1157347 C12.7875753,44.7646126 13.072216,44.4799719 13.423338,44.4799719 C13.5323545,44.4799719 13.6395395,44.5080046 13.7345971,44.5613773 Z" id="矩形备份-7" fill="#02E2DF"></path>
        <path d="M13.7345971,48.3484712 L16.2011193,49.7333671 C16.401548,49.8459032 16.525623,50.0578635 16.525623,50.2877245 L16.525623,51.1489278 C16.525623,51.5000499 16.2409823,51.7846906 15.8898602,51.7846906 C15.7808438,51.7846906 15.6736588,51.7566579 15.5786012,51.7032852 L13.112079,50.3183893 C12.9116503,50.2058532 12.7875753,49.9938929 12.7875753,49.7640319 L12.7875753,48.9028286 C12.7875753,48.5517065 13.072216,48.2670658 13.423338,48.2670658 C13.5323545,48.2670658 13.6395395,48.2950985 13.7345971,48.3484712 Z" id="矩形备份-10" fill="#E7987D"></path>
        <path d="M2.93372721,8.20413612 L17.4111236,16.2007777 C17.8950992,16.4867248 18.1920332,17.0070507 18.1920332,17.5691879 L18.1920332,17.5691879 L18.1920332,34.6430245 C18.1920332,34.7308051 18.1564532,34.8102754 18.0989279,34.8678006 C18.0576265,34.909102 18.0050128,34.9390911 17.9461331,34.9527216 L17.9461331,34.9527216 L3.402273,26.4618291 C3.11188763,26.2902609 2.93372721,25.9780653 2.93372721,25.640783 L2.93372721,25.640783 L2.93372721,8.20413612 Z" id="矩形" stroke="#1654E7" stroke-width="0.635762751" fill="#FFFFFF"></path>
        <path d="M23.6046485,18.6951915 L28.0549878,16.2175818 C28.3617714,16.046788 28.7489244,16.1570296 28.9197182,16.4638132 C28.9723668,16.5583819 29,16.6648263 29,16.7730627 L29,30.7632769 C29,30.9864259 28.8830075,31.1932388 28.6917454,31.3081922 L24.2414061,33.9829608 C23.9404577,34.1638386 23.5498604,34.0665021 23.3689827,33.7655537 C23.30954,33.6666516 23.2781352,33.5534364 23.2781352,33.4380455 L23.2781352,19.2506724 C23.2781352,19.0199874 23.4030936,18.807402 23.6046485,18.6951915 Z" id="路径-6" fill="url(#linearGradient-1)"></path>
        <rect id="矩形" fill="#B6B6B6" x="24.2317794" y="20.3448996" width="1" height="11.992464"></rect>
        <rect id="矩形备份" fill="#D8D8D8" x="26.1390676" y="21.6072642" width="1" height="8.83655243"></rect>
        <rect id="矩形备份-2" fill="#D8D8D8" x="27.4105931" y="23.5008112" width="1" height="5.68064085"></rect>
        <path d="M9.23627747,9.15835134 L12.1665427,11.1066285 C12.3306992,11.2157731 12.4293468,11.3998239 12.4293468,11.5969531 C12.4293468,11.6903723 12.3536155,11.7661036 12.2601963,11.7661036 C12.226873,11.7661036 12.1942921,11.7562609 12.1665427,11.7378108 L9.23627747,9.78953365 C9.07212091,9.6803891 8.97347335,9.49633824 8.97347335,9.29920907 C8.97347335,9.20578982 9.04920461,9.13005855 9.14262387,9.13005855 C9.17594711,9.13005855 9.20852801,9.13990125 9.23627747,9.15835134 Z" id="矩形" fill="#FFFFFF"></path>
      </g>
    </g>
  </g>
</svg>
