<?xml version="1.0" encoding="UTF-8"?>
<svg xmlns="http://www.w3.org/2000/svg" xmlns:xlink="http://www.w3.org/1999/xlink" width="60px" height="60px" viewBox="0 0 60 60" version="1.1">
  <title>手机</title>
  <defs>
    <polygon id="path-1" points="0 0 1.85754466 0 1.85754466 1.03298904 0 1.03298904"></polygon>
    <polygon id="path-3" points="0 0 1.8355072 0 1.8355072 1.01964641 0 1.01964641"></polygon>
    <polygon id="path-5" points="0 0 1.83124189 0 1.83124189 1.01524618 0 1.01524618"></polygon>
    <polygon id="path-7" points="0 0 2.14047722 0 2.14047722 1.09459223 0 1.09459223"></polygon>
    <polygon id="path-9" points="0 0 1.81115936 0 1.81115936 1.17528674 0 1.17528674"></polygon>
    <polygon id="path-11" points="0 0 21.2305341 0 21.2305341 54.9877955 0 54.9877955"></polygon>
  </defs>
  <g id="页面" stroke="none" stroke-width="1" fill="none" fill-rule="evenodd">
    <g id="图标" transform="translate(-127.000000, -132.000000)">
      <g id="编组" transform="translate(145.000000, 134.000000)">
        <g>
          <path d="M0.627570007,1.13021988 L2.39696483,0.118877131 C2.7993262,-0.0613902794 3.26779996,-0.0145491414 3.6267973,0.242367404 L1.87943995,1.25371016 C1.5154664,0.988277042 1.03632936,0.941435904 0.627570007,1.13021988 Z" id="Fill-1" fill="#488AF9"></path>
          <path d="M0.627570007,1.13021988 L2.39696483,0.119586845 C2.43464178,0.0940371333 2.47445138,0.0720359926 2.51639365,0.0535834231 L0.769036286,1.06350675 C0.719985164,1.0812496 0.6730667,1.10325074 0.627570007,1.13021988" id="Fill-3" fill="#488AF9"></path>
          <polyline id="Fill-5" fill="#488AF9" points="0.769249552 1.06386161 2.53864437 0.0525188518 2.6523861 0 0.882991284 1.03263418 0.75929715 1.06386161"></polyline>
          <g transform="translate(0.884413, 0.000000)">
            <mask id="mask-2" fill="white">
              <use xlink:href="#path-1"></use>
            </mask>
            <g id="Clip-8"></g>
            <path d="M0,1.03298904 L1.76868393,-0.000354857107 L1.85754466,-0.000354857107 L0.110187303,1.01950447 C0.0767756692,1.01524618 0.0426531495,1.01524618 0.00924151573,1.01950447" id="Fill-7" fill="#488AF9" mask="url(#mask-2)"></path>
          </g>
          <g transform="translate(0.994814, 0.000000)">
            <mask id="mask-4" fill="white">
              <use xlink:href="#path-3"></use>
            </mask>
            <g id="Clip-10"></g>
            <polyline id="Fill-9" fill="#488AF9" mask="url(#mask-4)" points="0 1.01964641 1.74735736 -0.000212914264 1.8355072 -0.000212914264 0.0881498424 1.01538812 0 1.01538812"></polyline>
          </g>
          <g transform="translate(1.083106, 0.000000)">
            <mask id="mask-6" fill="white">
              <use xlink:href="#path-5"></use>
            </mask>
            <g id="Clip-12"></g>
            <polygon id="Fill-11" fill="#488AF9" mask="url(#mask-6)" points="0 1.01524618 1.74735736 -0.000354857107 1.83124189 -0.000354857107 0.0838845274 1.01524618"></polygon>
          </g>
          <g transform="translate(1.167132, 0.000000)">
            <mask id="mask-8" fill="white">
              <use xlink:href="#path-7"></use>
            </mask>
            <g id="Clip-14"></g>
            <path d="M0.30141559,1.0733008 L2.07009952,0.0569900513 L2.14047722,0.0832494772 L0.371082401,1.09459223 L0.299993818,1.09459223 M0.225350807,1.05058995 L1.97270817,0.0399569102 L2.04877295,0.0399569102 L0.30141559,1.0733008 L0.226061693,1.05129966 M0.159238425,1.03781509 L1.92863324,0.0215043407 L1.99901094,0.0215043407 L0.225350807,1.05058995 L0.159238425,1.03710538 M0.0796192125,1.02433052 L1.84901403,0.00872948482 L1.92436793,0.00872948482 L0.159238425,1.03781509 L0.0838845274,1.03781509 M0,1.01510424 L1.74735736,-0.000496799949 L1.82697657,-0.000496799949 L0.0796192125,1.02433052 L0,1.02433052" id="Fill-13" fill="#488AF9" mask="url(#mask-8)"></path>
          </g>
          <polyline id="Fill-15" fill="#488AF9" points="1.53864128 1.09473417 3.3080361 0.0833914201 3.3784138 0.11036056 1.61044075 1.12170331 1.53935217 1.09473417"></polyline>
          <polyline id="Fill-17" fill="#488AF9" points="1.60937442 1.12134846 3.37876924 0.110005703 3.44914694 0.136265129 1.680463 1.15186617 1.60937442 1.12134846"></polyline>
          <path d="M1.7688972,1.18692605 L3.53829202,0.171325011 L3.60866972,0.211778721 L1.82221364,1.22312148 L1.7688972,1.18763576 M1.68003647,1.15215005 L3.44943129,0.1358393 L3.52051987,0.171325011 L1.7688972,1.18692605 L1.68003647,1.15144034" id="Fill-19" fill="#488AF9"></path>
          <polyline id="Fill-21" fill="#488AF9" points="1.82178711 1.22283759 3.59118192 0.211494836 3.62672622 0.242722261 1.88007974 1.25406501 1.82249799 1.22283759"></polyline>
          <path d="M22.3361037,54.8834776 L20.5667089,55.8948204 C20.9413457,55.6421621 21.1467917,55.2049781 21.1020059,54.755729 L22.8493633,53.7443863 C22.8977035,54.1886674 22.701499,54.6251416 22.3361037,54.8834776" id="Fill-23" fill="#2074EF"></path>
          <polygon id="Fill-25" fill="#2074EF" points="21.1020059 54.7692136 22.8493633 53.7536126 22.8493633 53.7628389 21.1020059 54.7734719"></polygon>
          <path d="M21.0931199,54.9398999 L22.8625147,53.9285571 C22.8646473,53.9569457 22.8646473,53.9846245 22.8625147,54.0130131 L21.1151573,55.0243559 C21.1180009,54.9959673 21.1180009,54.9682884 21.1151573,54.9398999 M21.0973852,54.8561536 L22.8447425,53.8448108 C22.8468752,53.8731994 22.8468752,53.9008783 22.8447425,53.9292668 L21.0753477,54.9398999 C21.0781913,54.912221 21.0781913,54.8838325 21.0753477,54.8561536 M21.1023614,54.7553742 L22.8490079,53.7440314 C22.8511405,53.7717103 22.8511405,53.8000989 22.8490079,53.8277777 L21.1023614,54.8391205 C21.104494,54.8114416 21.104494,54.783053 21.1023614,54.7553742" id="Fill-27" fill="#2074EF"></path>
          <path d="M21.0751345,55.1088119 L22.8445293,54.0974691 C22.8431075,54.1258577 22.8431075,54.1535365 22.8445293,54.1819251 L21.0751345,55.1968164 C21.0737127,55.1677181 21.0737127,55.1379101 21.0751345,55.1088119 M21.084376,55.0250656 L22.8310224,54.0137228 C22.8331551,54.0414017 22.8331551,54.0697903 22.8310224,54.0974691 L21.0623385,55.1088119 C21.0644712,55.081133 21.0644712,55.0527444 21.0623385,55.0250656" id="Fill-29" fill="#2074EF"></path>
          <polyline id="Fill-31" fill="#2074EF" points="21.0577888 55.1973842 22.8271837 54.1817832 22.8008809 54.2747557 21.0314861 55.2860985 21.0577888 55.1973842"></polyline>
          <path d="M21.0311306,55.2853888 L22.8005254,54.274046 C22.7919948,54.3059831 22.7820424,54.3365009 22.7692465,54.3670186 L20.9998516,55.3776516 C21.0126476,55.3478436 21.0226,55.3166162 21.0311306,55.2853888" id="Fill-33" fill="#2074EF"></path>
          <path d="M20.9599709,55.4800634 L22.7293658,54.4644623 C22.7059065,54.5084646 22.6838691,54.5482086 22.6632534,54.5836943 L20.915896,55.5992954 L20.9820084,55.4800634 M21.0004914,55.3785742 L22.7698863,54.3672315 L22.7293658,54.4644623 L20.9599709,55.4800634 L21.0004914,55.3792839" id="Fill-35" fill="#2074EF"></path>
          <path d="M20.8942851,55.5989405 L22.6416425,54.5833395 C22.5641559,54.7054103 22.4596557,54.8083189 22.3359616,54.8835486 L20.5665667,55.8948913 C20.6902609,55.821081 20.7947611,55.7195919 20.8722476,55.5989405" id="Fill-37" fill="#2074EF"></path>
          <polygon id="Fill-39" fill="#2074EF" points="21.2172405 14.4216057 22.9645979 13.4060047 22.8494344 53.7532577 21.102077 54.7688588"></polygon>
          <polygon id="Fill-41" fill="#488AF9" points="1.87922668 1.25349724 3.62658404 0.24215449 21.2124776 10.3768735 19.4658311 11.3924745"></polygon>
          <path d="M19.4611393,11.3923326 L21.2305341,10.3760218 C22.2726927,11.0445726 22.9302621,12.170889 22.9999289,13.4050821 L21.2305341,14.4206831 C21.1629999,13.1857804 20.5040088,12.0587542 19.4611393,11.3923326" id="Fill-43" fill="#488AF9"></path>
          <path d="M19.4835322,11.4004233 L21.252927,10.3848223 L21.3233047,10.4337925 L19.5759473,11.4451353 L19.5055696,11.401133 M19.4607838,11.3926164 L21.2308895,10.375596 L19.4614947,11.391197" id="Fill-45" fill="#488AF9"></path>
          <polyline id="Fill-47" fill="#488AF9" points="19.5541231 11.4454192 21.3014805 10.4340764 21.3761235 10.4830467 19.6287661 11.4809049 19.5541231 11.4319346"></polyline>
          <path d="M19.8637139,11.6706115 L21.6331087,10.6592687 L21.7084626,10.7252722 L19.9390678,11.7408732 L19.8637139,11.6706115 L19.8637139,11.6706115 Z M19.7840947,11.6088664 L21.5534895,10.5932653 L21.6331087,10.6592687 L19.8637139,11.6706115 L19.7840947,11.6088664 L19.7840947,11.6088664 Z M19.7087408,11.5513795 L21.4560982,10.5357785 L21.5314521,10.5932653 L19.7620572,11.6088664 L19.6867033,11.5513795 L19.7087408,11.5513795 Z M19.6291216,11.4804081 L21.376479,10.4690653 L21.4560982,10.5222939 L19.7087408,11.5378949 L19.6291216,11.4804081 Z" id="Fill-49" fill="#488AF9"></path>
          <polyline id="Fill-51" fill="#488AF9" points="19.9387124 11.7410151 21.7081072 10.7254141 21.7877264 10.8006438 20.0183316 11.8119866 19.9387124 11.7410151"></polyline>
          <polyline id="Fill-53" fill="#488AF9" points="20.0183316 11.8118446 21.7877264 10.8005019 21.8630803 10.8714733 20.0936855 11.8863646 20.0183316 11.8118446"></polyline>
          <polyline id="Fill-55" fill="#488AF9" points="20.0935433 11.8869324 21.8629381 10.8713313 21.9333158 10.9465611 20.1866693 11.9621621 20.1155808 11.8869324"></polyline>
          <path d="M20.2309575,12.0372499 L21.9783149,11.0393917 L22.0486926,11.1188797 L20.2792978,12.1344807 L20.2089201,12.0549927 M20.1641343,11.9620202 L21.9114916,10.9464191 L21.9783149,11.0216488 L20.2309575,12.0372499 L20.1648452,11.9620202" id="Fill-57" fill="#488AF9"></path>
          <polygon id="Fill-59" fill="#488AF9" points="20.3014774 12.1165249 22.0708722 11.1009239 22.1369846 11.1846702 20.3675898 12.2002712"></polygon>
          <polygon id="Fill-61" fill="#488AF9" points="20.3678031 12.2004841 22.1371979 11.1848831 22.2168171 11.2856625 20.4474223 12.3012635"></polygon>
          <polyline id="Fill-63" fill="#488AF9" points="20.4474223 12.3019733 22.2168171 11.2863722 22.3270044 11.4453482 20.5583205 12.4609492 20.4474223 12.3019733"></polyline>
          <path d="M20.557965,12.4609492 L22.3273598,11.4453482 C22.3714348,11.5156099 22.4155097,11.582323 22.4553193,11.6525848 L20.7086728,12.6681858 C20.6681523,12.5979241 20.6254992,12.5283721 20.5800025,12.4609492" id="Fill-65" fill="#488AF9"></path>
          <path d="M20.7880077,12.8055865 L22.5574025,11.7899854 L22.5574025,11.922702 L20.8100451,12.9340447 L20.7880077,12.8055865 M20.686351,12.6686116 L22.4337084,11.6530106 C22.4642764,11.7062391 22.4955554,11.75379 22.5218582,11.8077283 L20.7880077,12.8055865 C20.760994,12.7523579 20.7318477,12.7012585 20.6991469,12.6508688" id="Fill-67" fill="#488AF9"></path>
          <path d="M20.8720344,13.0172942 L22.6414292,12.0059515 L22.6819497,12.0896977 L20.9345923,13.1060085 L20.8940718,13.0172942 M20.8279594,12.9250314 L22.5575447,11.9222052 C22.573895,11.9520132 22.5888236,11.9832406 22.6016196,12.0151777 L20.8322248,13.0265205 C20.8194288,12.9945834 20.8045002,12.9633559 20.7881498,12.9335479" id="Fill-69" fill="#488AF9"></path>
          <path d="M20.9472461,13.1897548 L22.7166409,12.1741537 C22.7123756,12.2060909 22.7258824,12.2387377 22.7521852,12.2579 L20.9827904,13.273501 C20.9877666,13.2408542 20.9742598,13.2089171 20.9472461,13.1897548 M20.9117018,13.1052988 L22.6590592,12.0904075 C22.672566,12.1173766 22.684651,12.1450554 22.6946034,12.1741537 L20.9252086,13.1897548 C20.9159671,13.1606565 20.9045929,13.1322679 20.8896643,13.1060085" id="Fill-71" fill="#488AF9"></path>
          <path d="M21.0753477,13.5378696 L22.8447425,12.5265268 L22.8710453,12.6194994 L21.123688,13.6308422 L21.0973852,13.5378696 L21.0753477,13.5378696 Z M21.0440687,13.4491553 L22.8134636,12.4335543 C22.8262595,12.464072 22.8362119,12.4952994 22.8447425,12.5265268 L21.0753477,13.5378696 C21.067528,13.5073519 21.0575756,13.4782536 21.0440687,13.4491553 L21.0440687,13.4491553 Z M21.0135006,13.3576022 L22.7828955,12.3462594 C22.7956914,12.374648 22.8063547,12.404456 22.8134636,12.434264 L21.0440687,13.449865 C21.036249,13.4179279 21.0255857,13.3874102 21.0135006,13.3568925 L21.0135006,13.3576022 Z M20.9822217,13.2738559 L22.7516165,12.2575451 C22.7644124,12.2866434 22.7743648,12.3157417 22.7828955,12.3462594 L21.0135006,13.3576022 L20.9822217,13.2738559 Z" id="Fill-73" fill="#488AF9"></path>
          <polygon id="Fill-75" fill="#488AF9" points="21.1020059 13.631268 22.8493633 12.6199252 22.8756661 12.7128978 21.1283087 13.7242405"></polygon>
          <path d="M21.181483,13.9973386 L22.9508778,12.9817375 L22.9508778,13.0697421 L21.2035204,14.0860528 L21.2035204,13.9973386 M21.1679761,13.9086243 L22.937371,12.8930233 L22.937371,12.9817375 L21.1679761,13.9973386 L21.1679761,13.9086243 M21.1459387,13.8163614 L22.893296,12.8050187 C22.8897416,12.8376655 22.8975614,12.8703124 22.9153335,12.8979913 L21.1459387,13.9135923 L21.1459387,13.8206197 M21.1288774,13.7240986 L22.8755239,12.7127558 L22.8755239,12.8007604 L21.1288774,13.8163614 L21.1288774,13.7233889" id="Fill-77" fill="#488AF9"></path>
          <path d="M21.2036626,14.170225 L22.9730574,13.1588822 L22.9730574,13.2426285 L21.2299654,14.2589392 L21.2299654,14.1709347 M21.195132,14.085769 L22.9417785,13.0708776 C22.9439111,13.0999759 22.9439111,13.1297839 22.9417785,13.1588822 L21.1723836,14.170225 C21.1752272,14.1425461 21.1752272,14.1141575 21.1723836,14.0864787" id="Fill-79" fill="#488AF9"></path>
          <g transform="translate(21.188841, 13.247029)">
            <mask id="mask-10" fill="white">
              <use xlink:href="#path-9"></use>
            </mask>
            <g id="Clip-82"></g>
            <path d="M0.0421199852,1.09508903 L1.8115148,0.0794879919 L1.8115148,0.158975984 L0.0414090993,1.17528674 L0.0414090993,1.09437932 M0.0414090993,1.01134275 L1.77099431,0 C1.76886166,0.0276788543 1.76886166,0.0560674229 1.77099431,0.0837462772 L0.00159949311,1.09934732 C-0.000533164369,1.07166846 -0.000533164369,1.04327989 0.00159949311,1.01560104" id="Fill-81" fill="#488AF9" mask="url(#mask-10)"></path>
          </g>
          <g transform="translate(0.000000, 1.012204)">
            <mask id="mask-12" fill="white">
              <use xlink:href="#path-11"></use>
            </mask>
            <g id="Clip-84"></g>
            <path d="M19.4611393,10.3801281 C20.5047197,11.0472594 21.1629999,12.1742856 21.2305341,13.4091883 L21.1018638,53.7429568 C21.1018638,54.8607567 20.3099369,55.3064572 19.3324689,54.745783 L1.76932373,44.6245486 C0.727875997,43.9559978 0.0695957223,42.8296813 -7.10885826e-05,41.5954883 L0.115092415,1.243977 C0.115092415,0.131145111 0.907019225,-0.319523414 1.88448723,0.241150815 L19.4611393,10.3801281 Z" id="Fill-83" fill="#0A5FF1" mask="url(#mask-12)"></path>
          </g>
        </g>
        <g transform="translate(1.273197, 6.448463)">
          <path d="M0.0924151573,0.249819403 L-1.57848362e-16,33.7355554 C0.000710885826,33.9953108 0.131513878,34.2380331 0.34904494,34.3799759 L0.34904494,34.3799759 L17.2325833,44.0945441 C17.4266551,44.2052595 17.5858936,44.1129966 17.5858936,43.8915658 L17.5858936,43.8915658 L17.6797305,10.3887967 C17.6669345,10.1432355 17.5368424,9.91825613 17.3292638,9.78341043 L17.3292638,9.78341043 L0.446436298,0.0468411381 C0.390276318,0.0149039985 0.336248995,0 0.288619645,0 L0.288619645,0 C0.172745256,0 0.0924151573,0.0908434193 0.0924151573,0.249819403 M5.72334178,1.64085926 C5.73542684,1.88642038 5.86480806,2.11139978 6.07238672,2.24624549 L6.07238672,2.24624549 C6.26716944,2.36050947 6.42640786,2.26824663 6.42640786,2.04681579 L6.42640786,2.04681579 C6.41219015,1.79983524 6.27996538,1.57343641 6.07238672,1.437881 L6.07238672,1.437881 L6.07309761,1.437881 C6.01693763,1.40594386 5.96504296,1.39103986 5.9181245,1.39103986 L5.9181245,1.39103986 C5.80225011,1.39103986 5.72334178,1.48330271 5.72334178,1.64085926 M6.95246337,2.35128319 C6.96454843,2.59755402 7.09464054,2.82253343 7.3022192,2.95666941 L7.3022192,2.95666941 L10.1151944,4.57765668 C10.3099771,4.69192066 10.4692156,4.59965782 10.4692156,4.3789367 L10.4692156,4.3789367 C10.4564196,4.13195615 10.3263275,3.90555732 10.1194597,3.76929219 L10.1194597,3.76929219 L7.30648452,2.14830492 C7.24961365,2.11636778 7.19629721,2.10075407 7.14866786,2.10075407 L7.14866786,2.10075407 C7.03279347,2.10075407 6.95246337,2.19159749 6.95246337,2.35128319" id="Clip-86"></path>
          <path d="M0.0924151573,0.249819403 L-1.57848362e-16,33.7355554 C0.000710885826,33.9953108 0.131513878,34.2380331 0.34904494,34.3799759 L0.34904494,34.3799759 L17.2325833,44.0945441 C17.4266551,44.2052595 17.5858936,44.1129966 17.5858936,43.8915658 L17.5858936,43.8915658 L17.6797305,10.3887967 C17.6669345,10.1432355 17.5368424,9.91825613 17.3292638,9.78341043 L17.3292638,9.78341043 L0.446436298,0.0468411381 C0.390276318,0.0149039985 0.336248995,0 0.288619645,0 L0.288619645,0 C0.172745256,0 0.0924151573,0.0908434193 0.0924151573,0.249819403 M5.72334178,1.64085926 C5.73542684,1.88642038 5.86480806,2.11139978 6.07238672,2.24624549 L6.07238672,2.24624549 C6.26716944,2.36050947 6.42640786,2.26824663 6.42640786,2.04681579 L6.42640786,2.04681579 C6.41219015,1.79983524 6.27996538,1.57343641 6.07238672,1.437881 L6.07238672,1.437881 L6.07309761,1.437881 C6.01693763,1.40594386 5.96504296,1.39103986 5.9181245,1.39103986 L5.9181245,1.39103986 C5.80225011,1.39103986 5.72334178,1.48330271 5.72334178,1.64085926 M6.95246337,2.35128319 C6.96454843,2.59755402 7.09464054,2.82253343 7.3022192,2.95666941 L7.3022192,2.95666941 L10.1151944,4.57765668 C10.3099771,4.69192066 10.4692156,4.59965782 10.4692156,4.3789367 L10.4692156,4.3789367 C10.4564196,4.13195615 10.3263275,3.90555732 10.1194597,3.76929219 L10.1194597,3.76929219 L7.30648452,2.14830492 C7.24961365,2.11636778 7.19629721,2.10075407 7.14866786,2.10075407 L7.14866786,2.10075407 C7.03279347,2.10075407 6.95246337,2.19159749 6.95246337,2.35128319" id="Fill-85" fill="#FFFFFF"></path>
        </g>
        <path d="M7.87661495,47.80493 C8.42684058,48.7495596 9.31758052,49.257715 9.86638437,48.9390533 C10.4158991,48.6196819 10.4151882,47.596274 9.86567349,46.6516444 C9.31544786,45.7070148 8.42470792,45.1988594 7.87519318,45.5175211 C7.32638932,45.8368925 7.3271002,46.8603004 7.87661495,47.80493" id="Fill-87" fill="#02E2DF"></path>
      </g>
    </g>
  </g>
</svg>
