<?xml version="1.0" encoding="UTF-8"?>
<svg xmlns="http://www.w3.org/2000/svg" xmlns:xlink="http://www.w3.org/1999/xlink" width="60px" height="60px" viewBox="0 0 60 60" version="1.1">
  <title>数据仓库</title>
  <g id="页面" stroke="none" stroke-width="1" fill="none" fill-rule="evenodd">
    <g id="图标" transform="translate(-54.000000, -310.000000)">
      <g id="数据仓库" transform="translate(64.000000, 318.000000)">
        <path d="M0.000110558014,27.3144823 L0.000110558014,36.3251652 C0.0708676869,41.0421522 7.88731927,44.9136624 20.0000553,44.9136624 C32.1122385,44.9136624 39.8590385,41.1123323 40,36.3251652 L40,27.3144823 L0.000110558014,27.3144823 Z" id="Fill-1" fill="#0A5FF1"></path>
        <path d="M39.9998894,27.3147033 C39.9998894,32.3129633 32.1817795,36.3955664 19.9999447,36.3955664 C7.88720871,36.3955664 0,32.3129633 0,27.3147033 C0,22.3164433 7.81810996,18.2332877 19.9999447,18.2332877 C32.1126807,18.1631076 39.9998894,22.2462632 39.9998894,27.3147033" id="Fill-3" fill="#02E2DF"></path>
        <path d="M0.000110558014,18.2331219 L0.000110558014,26.2585204 C0.0708676869,30.9749548 7.88731927,35.3399361 20.0000553,35.3399361 C32.1122385,35.3399361 39.8590385,30.9749548 40,26.2585204 L40,18.2331219 L0.000110558014,18.2331219 Z" id="Fill-5" fill="#0A5FF1"></path>
        <path d="M39.9998894,18.162776 C39.9998894,23.161036 32.1817795,27.2441917 19.9999447,27.2441917 C7.88720871,27.2441917 0,23.161036 0,18.162776 C0,13.164516 7.81810996,9.08136038 19.9999447,9.08136038 C32.1126807,9.08136038 39.9998894,13.164516 39.9998894,18.162776" id="Fill-7" fill="#FDFFFF"></path>
        <path d="M0.000110558014,9.15181678 L0.000110558014,17.1772153 C0.0708676869,21.8936497 7.88731927,26.2586309 20.0000553,26.2586309 C32.1122385,26.2586309 39.8590385,21.8936497 40,17.1772153 L40,9.15181678 L0.000110558014,9.15181678 Z" id="Fill-9" fill="#0A5FF1"></path>
        <path d="M0.000110558014,9.08141564 L0.000110558014,38.0149584 C0.000110558014,38.0149584 3.16925603,44.9843398 18.5915462,44.9141597 C18.5915462,44.9141597 35.1409753,46.3221825 39.6478727,37.7331328 L39.9297957,9.08141564" id="Stroke-11" stroke="#1654E7" stroke-width="0.5"></path>
        <path d="M39.9998894,9.08141564 C39.9998894,14.0796756 32.1817795,18.1628313 19.9999447,18.1628313 C7.88720871,18.1628313 0,14.0796756 0,9.08141564 C0,4.08315566 7.81810996,0 19.9999447,0 C32.1126807,0 39.9998894,4.08315566 39.9998894,9.08141564" id="Fill-13" fill="#488AF9"></path>
        <path d="M39.9998894,9.08141564 C39.9998894,14.0796756 32.1817795,18.1628313 19.9999447,18.1628313 C7.88720871,18.1628313 0,14.0796756 0,9.08141564 C0,4.08315566 7.81810996,0 19.9999447,0 C32.1126807,0 39.9998894,4.08315566 39.9998894,9.08141564 Z" id="Stroke-15" stroke="#7BB8FC" stroke-width="0.5"></path>
        <path d="M20.7467088,21.6880828 C21.4012123,21.6880828 21.9324435,22.218578 21.9324435,22.8734081 C21.9324435,23.5276856 21.4012123,24.0581808 20.7467088,24.0581808 C20.0922054,24.0581808 19.5609741,23.5276856 19.5609741,22.8734081 C19.5609741,22.218578 20.0922054,21.6880828 20.7467088,21.6880828" id="Fill-17" fill="#02E2DF"></path>
        <path d="M15.275248,21.1411201 C15.9297514,21.1411201 16.4609827,21.6716153 16.4609827,22.3264454 C16.4609827,22.9807229 15.9297514,23.5112181 15.275248,23.5112181 C14.6207446,23.5112181 14.0895133,22.9807229 14.0895133,22.3264454 C14.0895133,21.6716153 14.6207446,21.1411201 15.275248,21.1411201" id="Fill-19" fill="#02E2DF"></path>
        <path d="M26.2181144,21.1411201 C26.8726178,21.1411201 27.4038491,21.6716153 27.4038491,22.3264454 C27.4038491,22.9807229 26.8726178,23.5112181 26.2181144,23.5112181 C25.5636109,23.5112181 25.0323797,22.9807229 25.0323797,22.3264454 C25.0323797,21.6716153 25.5636109,21.1411201 26.2181144,21.1411201" id="Fill-21" fill="#02E2DF"></path>
        <path d="M20.7467088,30.5296703 C21.4012123,30.5296703 21.9324435,31.0601656 21.9324435,31.7149957 C21.9324435,32.3692732 21.4012123,32.8997684 20.7467088,32.8997684 C20.0922054,32.8997684 19.5609741,32.3692732 19.5609741,31.7149957 C19.5609741,31.0601656 20.0922054,30.5296703 20.7467088,30.5296703" id="Fill-23" fill="#02E2DF"></path>
        <path d="M15.275248,29.9827076 C15.9297514,29.9827076 16.4609827,30.5132029 16.4609827,31.168033 C16.4609827,31.8223105 15.9297514,32.3528057 15.275248,32.3528057 C14.6207446,32.3528057 14.0895133,31.8223105 14.0895133,31.168033 C14.0895133,30.5132029 14.6207446,29.9827076 15.275248,29.9827076" id="Fill-25" fill="#02E2DF"></path>
        <path d="M26.2181144,29.9827076 C26.8726178,29.9827076 27.4038491,30.5132029 27.4038491,31.168033 C27.4038491,31.8223105 26.8726178,32.3528057 26.2181144,32.3528057 C25.5636109,32.3528057 25.0323797,31.8223105 25.0323797,31.168033 C25.0323797,30.5132029 25.5636109,29.9827076 26.2181144,29.9827076" id="Fill-27" fill="#02E2DF"></path>
        <path d="M20.7467088,39.3712579 C21.4012123,39.3712579 21.9324435,39.9017532 21.9324435,40.5565833 C21.9324435,41.2108607 21.4012123,41.741356 20.7467088,41.741356 C20.0922054,41.741356 19.5609741,41.2108607 19.5609741,40.5565833 C19.5609741,39.9017532 20.0922054,39.3712579 20.7467088,39.3712579" id="Fill-29" fill="#02E2DF"></path>
        <path d="M15.275248,38.8242952 C15.9297514,38.8242952 16.4609827,39.3547905 16.4609827,40.0096205 C16.4609827,40.663898 15.9297514,41.1943933 15.275248,41.1943933 C14.6207446,41.1943933 14.0895133,40.663898 14.0895133,40.0096205 C14.0895133,39.3547905 14.6207446,38.8242952 15.275248,38.8242952" id="Fill-31" fill="#02E2DF"></path>
        <path d="M26.2181144,38.8242952 C26.8726178,38.8242952 27.4038491,39.3547905 27.4038491,40.0096205 C27.4038491,40.663898 26.8726178,41.1943933 26.2181144,41.1943933 C25.5636109,41.1943933 25.0323797,40.663898 25.0323797,40.0096205 C25.0323797,39.3547905 25.5636109,38.8242952 26.2181144,38.8242952" id="Fill-33" fill="#02E2DF"></path>
      </g>
    </g>
  </g>
</svg>
