<?xml version="1.0" encoding="UTF-8"?>
<svg xmlns="http://www.w3.org/2000/svg" xmlns:xlink="http://www.w3.org/1999/xlink" width="60px" height="60px" viewBox="0 0 60 60" version="1.1">
  <title>数据库服务器</title>
  <defs>
    <polygon id="path-1" points="-1.33537134e-16 0 35.5349478 0 35.5349478 54 -1.33537134e-16 54"></polygon>
  </defs>
  <g id="页面" stroke="none" stroke-width="1" fill="none" fill-rule="evenodd">
    <g id="图标" transform="translate(-342.000000, -221.000000)">
      <g id="数据库服务器" transform="translate(349.000000, 224.000000)">
        <path d="M15.2470431,53.5806169 C15.1748754,53.5806169 15.1844978,53.6166722 15.1177426,53.5806169 L0.64630771,45.5757428 C0.501370844,45.4970221 0.4045458,45.3522 0.387706662,45.1881485 L0.387706662,12.5238633 C0.40995838,12.3616145 0.505580628,12.2191961 0.64630771,12.1362689 L19.898855,0.516251586 C19.9650088,0.474187087 19.954785,0.387654403 20.0281555,0.387654403 C20.1213722,0.412893103 20.2091763,0.456760366 20.2861552,0.516251586 L34.887492,8.65032383 C35.0324289,8.72904453 35.1286525,8.8738666 35.1454917,9.03791814 L35.1454917,42.347593 C35.1454917,42.4978233 35.0197995,42.5272685 34.887492,42.6059892 L15.5056442,53.5806169 C15.4382876,53.6166722 15.3137983,53.5806169 15.2470431,53.5806169" id="Fill-1" fill="#0A5FF1"></path>
        <g id="编组">
          <mask id="mask-2" fill="white">
            <use xlink:href="#path-1"></use>
          </mask>
          <g id="Clip-4"></g>
          <path d="M20.0280954,-6.00921412e-05 C19.8891725,0.00474727916 19.7544594,0.0498163851 19.6401938,0.129138012 L0.387646522,11.7485545 C0.137465044,11.9264272 -0.00807322022,12.2166722 2.39422197e-14,12.5237431 L2.39422197e-14,45.1886292 C0.0322204314,45.5167323 0.225870518,45.8075783 0.516947046,45.9632169 L14.8596828,53.9680911 C14.9865778,54.0402016 15.1080601,53.9680911 15.246983,53.9680911 C15.3919199,53.9680911 15.6312762,54.0402016 15.7641851,53.9680911 L35.1460329,42.9928624 C35.395613,42.8774855 35.5489694,42.621493 35.5339345,42.3474728 L35.5339345,9.03779796 C35.5477666,8.76377779 35.3944102,8.50838619 35.1460329,8.39180744 L20.5446961,0.129138012 C20.3835215,0.0504173065 20.2073119,0.0065500434 20.0280954,-6.00921412e-05 L20.0280954,-6.00921412e-05 Z M20.0280954,0.774527609 L34.6288308,9.03779796 L34.6288308,42.3480737 L15.246983,53.1929025 L0.904848618,45.1886292 L0.904848618,12.5237431 L20.0280954,0.774527609 Z" id="Fill-3" fill="#1654E7" mask="url(#mask-2)"></path>
        </g>
        <polygon id="Fill-5" fill="#488AF9" points="20.027915 0.774587701 0.904668198 12.5238032 15.2468026 20.3994792 34.6286504 9.03785805"></polygon>
        <line x1="15.2472236" y1="51.2565534" x2="15.2472236" y2="20.3992388" id="Fill-7" fill="#B5D6FB"></line>
        <path d="M15.2470431,51.7729852 C15.0118966,51.7729852 14.8591416,51.491754 14.8591416,51.2567938 L14.8591416,20.3994792 C14.8591416,20.163918 15.0112952,19.8826868 15.2470431,19.8826868 C15.5170707,19.9175402 15.7293642,20.1296655 15.7636438,20.3994792 L15.7636438,51.2567938 C15.7233502,51.5236029 15.5140638,51.7327235 15.2470431,51.7729852" id="Fill-9" fill="#7BB8FC"></path>
        <line x1="32.3031654" y1="10.4569941" x2="15.2469229" y2="20.3986379" id="Fill-11" fill="#B5D6FB"></line>
        <path d="M15.2472236,20.7866529 C15.1022867,20.7866529 15.0674056,20.6670695 14.9886225,20.5282567 C14.8773639,20.3690125 14.9158534,20.1490752 15.0758252,20.0373039 C15.0890559,20.0276891 15.1034895,20.0192762 15.117923,20.0120652 L32.1741656,10.0704213 C32.3521794,9.9634573 32.5837175,10.0211458 32.6907663,10.1996194 C32.7978151,10.3780931 32.7400809,10.6088469 32.5614658,10.7158109 L15.5058246,20.6574548 C15.4390695,20.69351 15.3193913,20.7866529 15.2472236,20.7866529" id="Fill-13" fill="#7BB8FC"></path>
        <line x1="2.7136126" y1="13.5564265" x2="15.2473438" y2="20.3991186" id="Fill-15" fill="#B5D6FB"></line>
        <path d="M15.2472236,20.7866529 C15.1804684,20.7866529 15.1780628,20.8166989 15.117923,20.7866529 L2.45549267,13.8147626 C2.2822901,13.7288309 2.21132517,13.5191093 2.29732505,13.3460439 C2.30574462,13.3292181 2.31536698,13.3135942 2.32619214,13.2979702 C2.43444374,13.093056 2.76701672,13.0606063 2.97209336,13.1687721 L15.5058246,20.0120652 C15.6790272,20.097396 15.7493907,20.3071176 15.6639922,20.4801829 C15.6555727,20.4970087 15.6459503,20.5132336 15.6351251,20.5282567 C15.5545378,20.671276 15.4102024,20.7674234 15.2472236,20.7866529" id="Fill-17" fill="#7BB8FC"></path>
        <line x1="2.45525211" y1="40.798718" x2="13.1799788" y2="46.8668225" id="Fill-19" fill="#B5D6FB"></line>
        <path d="M13.1798585,47.2541163 C13.1070894,47.2541163 12.9880126,47.1603726 12.9212575,47.1249182 L2.3258313,41.1860119 C2.14781756,41.0790479 2.09008337,40.8476931 2.19713218,40.6692195 C2.30418098,40.4913467 2.53511773,40.4336583 2.71373288,40.5406223 L13.4384596,46.4795286 C13.6110607,46.5630567 13.6832285,46.7703746 13.5996342,46.942839 C13.5906132,46.9614676 13.5797881,46.9788943 13.5677601,46.9957201 C13.4883756,47.1405422 13.3434387,47.2366896 13.1798585,47.2541163" id="Fill-21" fill="#F3F9FF"></path>
        <line x1="2.45525211" y1="37.8290846" x2="13.1799788" y2="43.7679909" id="Fill-23" fill="#B5D6FB"></line>
        <path d="M13.1798585,44.2846632 C13.1070894,44.2846632 12.9880126,44.1909194 12.9212575,44.155465 L2.3258313,38.2165587 C2.15383154,38.1330306 2.0816638,37.9257128 2.1646567,37.7532483 C2.17367766,37.7346198 2.18450282,37.7165921 2.19713218,37.6997663 C2.31139776,37.4948521 2.50865623,37.327195 2.71373288,37.441971 L13.3091591,43.5100754 C13.5142357,43.6248514 13.6820257,43.8213527 13.5677601,44.0262669 C13.4895784,44.1716899 13.3440401,44.2690392 13.1798585,44.2846632" id="Fill-25" fill="#F3F9FF"></path>
        <line x1="2.45525211" y1="34.8596314" x2="13.1799788" y2="40.7985378" id="Fill-27" fill="#B5D6FB"></line>
        <path d="M13.1798585,41.3140682 C13.1070894,41.3140682 12.9880126,41.2203245 12.9212575,41.1848701 L2.3258313,35.2465647 C2.15383154,35.1636376 2.0816638,34.9563197 2.1646567,34.7838552 C2.17367766,34.7652267 2.18450282,34.747199 2.19713218,34.7303732 C2.31139776,34.525459 2.50865623,34.357802 2.71373288,34.471977 L13.3091591,40.5406824 C13.5142357,40.6548574 13.6820257,40.8513588 13.5677601,41.0568739 C13.4895784,41.2016959 13.3440401,41.2984443 13.1798585,41.3140682" id="Fill-29" fill="#F3F9FF"></path>
        <line x1="0.387646522" y1="28.6622087" x2="15.246983" y2="36.796281" id="Fill-31" fill="#B5D6FB"></line>
        <polygon id="Fill-33" fill="#7BB8FC" points="0.129286034 29.0496228 0.517187605 28.2750351 15.5058246 36.4091073 15.117923 37.183695"></polygon>
        <line x1="10.5954117" y1="22.0785137" x2="13.0503174" y2="23.3698938" id="Fill-35" fill="#B5D6FB"></line>
        <path d="M13.0497161,23.756106 C12.9829609,23.756106 12.8518562,23.7861521 12.791115,23.756106 L10.4655098,22.4647259 C10.2544191,22.3625693 10.1046711,22.1594578 10.2075101,21.9485344 C10.3097477,21.7436202 10.6417193,21.7165788 10.8534113,21.8193363 L13.1790166,22.9815183 C13.3907086,23.0842759 13.5404566,23.2867864 13.4376176,23.4977098 C13.3642471,23.6473393 13.2163032,23.7458904 13.0497161,23.756106" id="Fill-37" fill="#02E2DF"></path>
        <path d="M45.6120984,32.793904 C45.6060845,33.6207719 45.1917214,34.5167457 44.4489951,35.2468652 C44.0568838,35.5996061 43.6226746,35.9030714 43.1571927,36.150651 C39.9324977,38.0213194 34.7640852,38.0153101 31.5279637,36.150651 C31.0564678,35.9120852 30.6216572,35.608019 30.2355599,35.2468652 C29.5535748,34.5714295 29.1392117,33.8124658 29.0730579,33.0523002 L29.0730579,32.793904 C29.0730579,31.5686252 29.7923297,30.3661815 31.3986632,29.4365561 C34.6233581,27.5664886 39.9204698,27.5664886 43.1565913,29.4365561 C44.793596,30.3902183 45.6301404,31.5572077 45.6120984,32.793904" id="Fill-39" fill="#FFFFFF"></path>
        <path d="M37.3423978,28.4040529 C35.3012537,28.4040529 33.2029768,28.9250517 31.6573845,29.8240302 C30.2440997,30.6328704 29.4604784,31.6652534 29.4604784,32.7937838 L29.4604784,33.05218 C29.5206182,33.6855512 29.9025058,34.2744542 30.4942812,34.8597516 C30.8202388,35.1914602 31.1618327,35.6091006 31.6573845,35.8921346 C34.7738278,37.6846832 39.9302124,37.5620952 43.0280124,35.7635374 C43.4868789,35.4979302 43.8645567,35.3086399 44.1905143,34.9889497 C44.831003,34.3549776 45.2122892,33.5239033 45.2243171,32.7937838 C45.2435619,31.6592442 44.3540945,30.6629165 42.8987119,29.8240302 C41.2027701,28.8727716 39.2867168,28.3830206 37.3423978,28.4040529 M37.3423978,37.9581024 C35.1503028,37.9581024 32.9419702,37.4971957 31.2694829,36.5381251 C30.751078,36.2598985 30.2729668,35.911965 29.84838,35.5051412 C29.1784228,34.8537424 28.7652626,33.9830073 28.6852766,33.05218 L28.6852766,32.7937838 C28.6852766,31.3581825 29.5849677,30.0211324 31.2694829,29.0494425 C34.6024295,27.1126728 40.0643241,27.1126728 43.4153126,29.0494425 C45.142527,30.0451693 46.0175608,31.339554 45.9995189,32.7937838 C45.9917007,33.817153 45.5731279,34.7942512 44.8364156,35.5051412 C44.4058148,35.904754 43.9289063,36.2514856 43.4153126,36.5381251 C41.7368114,37.5032049 39.5405067,37.9581024 37.3423978,37.9581024" id="Fill-41" fill="#0276F7"></path>
        <path d="M42.8982909,44.1555852 C42.6980255,44.1694064 42.5248229,44.0185751 42.5109907,43.8184683 C42.509788,43.8016425 42.509788,43.7848167 42.5109907,43.7685918 L42.5109907,43.5101956 C42.5109907,43.2752354 42.6631444,42.9940041 42.8988923,42.9940041 C43.1340389,42.9940041 43.2861925,43.2752354 43.2861925,43.5101956 L43.2861925,43.7685918 C43.2982205,43.9705014 43.1442626,44.1435668 42.942193,44.1555852 C42.9277594,44.1561862 42.9133259,44.1561862 42.8982909,44.1555852 Z M28.6854571,33.0523603 L29.4606588,33.0523603 L29.4606588,32.664766 L28.6854571,32.664766 L28.6854571,33.0523603 Z" id="Fill-43" fill="#0276F7"></path>
        <path d="M45.6120984,32.7940843 L45.6120984,37.7000067 C45.6120984,38.5328838 45.2037493,39.2816318 44.4489951,40.0237698 C44.0622963,40.419777 43.6280871,40.7665086 43.1571927,41.0567537 C39.9324977,42.927422 34.7640852,42.927422 31.5279637,41.0567537 C31.0540622,40.7701142 30.619853,40.4227816 30.2355599,40.0237698 C29.5535748,39.3483341 29.1392117,38.5893704 29.0730579,37.8286039 L29.0730579,33.0518795 C29.1392117,33.8120451 29.5535748,34.5716098 30.2355599,35.2470455 C30.6216572,35.6075983 31.0564678,35.9122655 31.5279637,36.1508313 C34.7646866,38.0094812 39.9397145,38.0269079 43.1571927,36.1508313 C43.6226746,35.9032517 44.0568838,35.5997863 44.4489951,35.2470455 C45.1917214,34.516926 45.6060845,33.6203512 45.6120984,32.7940843" id="Fill-45" fill="#488AF9"></path>
        <path d="M29.4603581,35.117607 L29.4603581,37.8289644 C29.5210993,38.4623356 29.9023855,39.1798357 30.4941609,39.7657341 C30.8387618,40.118475 31.2302718,40.4219403 31.6572642,40.6695199 C34.7737075,42.4674768 39.9300922,42.4674768 43.0278921,40.6695199 C43.4518776,40.4183348 43.8427861,40.1148695 44.1909955,39.7657341 C44.8429107,39.1257528 45.2247983,38.4419043 45.2247983,37.6997663 L45.2247983,35.117607 C45.1039173,35.2678374 44.858547,35.3603792 44.7075962,35.5052013 C44.323303,35.9042131 43.8890938,36.2509448 43.4157937,36.5381852 C40.0822458,38.4749549 34.6209525,38.4629365 31.2693627,36.5381852 C30.7509578,36.2599586 30.2728465,35.912626 29.8482597,35.5052013 C29.7117424,35.3838152 29.5818405,35.2540162 29.4603581,35.117607 Z M37.3422775,42.8640849 C35.150784,42.8640849 32.9490667,42.2865995 31.2693627,41.3149095 C30.7539647,41.0318755 30.2764549,40.684543 29.8482597,40.2819256 C29.1746942,39.6329305 28.7615339,38.7609935 28.6851564,37.8289644 L28.6851564,33.0522401 C28.6851564,32.8286973 28.843324,32.5474661 29.0730579,32.5354477 C29.2865542,32.5366495 29.4591553,32.7097149 29.4603581,32.923042 C29.5210993,33.5924685 29.9023855,34.2739133 30.4941609,34.8598117 C30.8201185,35.1915203 31.1617124,35.6091607 31.6572642,35.8927956 C34.7731061,37.6847433 39.9300922,37.5621553 43.0278921,35.7635975 C43.4867587,35.4979903 43.8644365,35.3087 44.1909955,34.9890098 C44.8308827,34.3556386 45.2121689,33.5239634 45.2247983,32.7938439 C45.2199871,32.5799159 45.3895812,32.4026441 45.6036789,32.3983378 C45.8177765,32.3936302 45.9951888,32.5630901 46,32.7770181 C46,32.7824264 46,32.7884356 46,32.7938439 L46,37.6997663 C46,38.6714562 45.5230916,39.6028844 44.7075962,40.4111237 C44.323303,40.8101355 43.8890938,41.1574681 43.4151923,41.4441076 C41.7427051,42.3977699 39.5343724,42.8640849 37.3422775,42.8640849 L37.3422775,42.8640849 Z" id="Fill-47" fill="#1654E7"></path>
        <path d="M45.6120984,37.7000067 L45.6120984,42.60653 C45.5760146,43.8011618 44.7208269,44.9230821 43.1571927,45.833478 C39.9324977,47.7035454 34.7640852,47.7035454 31.5279637,45.833478 C30.0184553,44.9585364 29.1879249,43.8810843 29.0730579,42.7345263 L29.0730579,37.8292048 C29.1392117,38.5893704 29.5535748,39.348935 30.2355599,40.0243707 C30.6180488,40.4245844 31.0528594,40.7719169 31.5279637,41.0567537 C34.7646866,42.927422 39.9397145,42.927422 43.1571927,41.0567537 C43.6280871,40.7665086 44.0622963,40.419777 44.4489951,40.0243707 C45.197134,39.2816318 45.6120984,38.5322828 45.6120984,37.7000067" id="Fill-49" fill="#488AF9"></path>
        <path d="M29.4603581,39.894812 L29.4603581,42.7353676 C29.5571832,43.7371036 30.3167486,44.6673299 31.6572642,45.446725 C34.7737075,47.2446818 39.9300922,47.2446818 43.0278921,45.446725 C44.4044917,44.643894 45.194127,43.5748548 45.2247983,42.4769714 L45.2247983,39.894812 C45.0612181,40.0762903 44.8886169,40.2487548 44.7075962,40.4116045 C44.3184918,40.7685518 43.8842826,41.072618 43.4157937,41.3153903 C40.0822458,43.25216 34.6149385,43.25216 31.2693627,41.3153903 C30.7545661,41.0317554 30.2770563,40.6850237 29.8482597,40.2824064 C29.7099382,40.162823 29.5806377,40.033024 29.4603581,39.894812 Z M37.3422775,47.64129 C35.150784,47.64129 32.9490667,47.1930026 31.2693627,46.2213127 C29.6870851,45.3043066 28.8120513,44.0567938 28.685078,42.7353676 L28.685078,37.8294451 C28.6809466,37.6197236 28.8469324,37.4460573 29.0568202,37.4418508 C29.0622328,37.4418508 29.0676454,37.4418508 29.0730579,37.4418508 C29.2853514,37.4454564 29.4567497,37.616719 29.4603581,37.8294451 C29.5210993,38.4988716 29.9023855,39.1803165 30.4941609,39.7662149 C30.8387618,40.1183548 31.2302718,40.422421 31.6572642,40.6693997 C34.7731061,42.4673566 39.9300922,42.4673566 43.0278921,40.6693997 C43.4518776,40.4188155 43.8427861,40.1153502 44.1909955,39.7662149 C44.8429107,39.1262336 45.2247983,38.442385 45.2247983,37.700247 C45.2247983,37.4646859 45.3763505,37.1834546 45.6120984,37.1834546 C45.847245,37.1834546 46,37.4652868 46,37.700247 L46,42.6061695 C45.9573008,44.0123256 45.0521971,45.2682513 43.4157937,46.2213127 C41.7366911,47.1930026 39.5343724,47.64129 37.3422775,47.64129 L37.3422775,47.64129 Z" id="Fill-51" fill="#1654E7"></path>
        <path d="M42.8986518,42.864806 C42.6983863,42.8786272 42.5251837,42.727796 42.5107502,42.5276891 C42.5095474,42.5108633 42.5095474,42.4940375 42.5107502,42.4772117 L42.5107502,37.6998865 C42.5107502,37.4649262 42.6629038,37.183695 42.8986518,37.183695 C43.1343997,37.183695 43.2859519,37.4649262 43.2859519,37.6998865 L43.2859519,42.4772117 C43.2985813,42.6785204 43.1446235,42.8521867 42.9431552,42.864806 C42.9281203,42.865407 42.9136867,42.865407 42.8986518,42.864806" id="Fill-53" fill="#02E2DF"></path>
      </g>
    </g>
  </g>
</svg>
