<svg xmlns="http://www.w3.org/2000/svg" viewBox="0 0 29 26" class="design-iconfont">
  <g fill="none" fill-rule="evenodd">
    <path d="M11.0710587,1.025885 C11.8146356,0.834679519 12.6311549,0.927139051 13.3443698,1.34858421 C13.7800453,1.60602883 14.1435168,1.96950036 14.4009614,2.40517586 L14.4009614,2.40517586 L22.7142464,16.4738121 C23.1356916,17.187027 23.2281511,18.0035463 23.0369456,18.7471231 C22.8457402,19.4907 22.3708697,20.1613344 21.6576548,20.5827796 C21.195425,20.8559154 20.6683649,21 20.1314668,21 L20.1314668,21 L3.50489679,21 C2.67646966,21 1.92646966,20.6642136 1.38357645,20.1213203 C0.840683227,19.5784271 0.504896789,18.8284271 0.504896789,18 C0.504896789,17.4631019 0.648981418,16.9360419 0.922117204,16.4738121 L0.922117204,16.4738121 L9.23540223,2.40517586 C9.65684739,1.69196097 10.3274818,1.21709048 11.0710587,1.025885 Z" transform="translate(2.826445 1)" fill="#E44345" stroke="#FFF" stroke-width="2"/>
    <path fill="#FFF" d="M12.8264453 9A2 2 0 1 0 12.8264453 13A2 2 0 1 0 12.8264453 9Z" transform="translate(2 1)"/>
    <path d="M12.8264453,13 C15.0355843,13 16.8264453,14.790861 16.8264453,17 L16.8264453,17 L8.8264453,17 C8.8264453,14.790861 10.6173063,13 12.8264453,13 Z" fill="#FFF" transform="translate(2 1)"/>
    <path stroke="#FFF" fill="#E44345" transform="rotate(-2 42.20409382 -37.28768863)" d="M12.9538483 15.5022731L16.0270947 23.5022731 12.553814 21.9931672 9.0911307 23.2452612z"/>
    <path stroke="#FFF" fill="#E44345" transform="scale(1 -1) rotate(-58 4.39521159 -2.30404776)" d="M20.6246784 4.83164396L23.6979248 12.831644 20.2290667 11.2254155 16.7619609 12.5746321z"/>
    <path stroke="#FFF" fill="#E44345" transform="rotate(122 5.95278847 9.88595305)" d="M5.62467844 4.83164396L8.69792484 12.831644 5.22906671 11.2254155 1.76196086 12.5746321z"/>
  </g>
</svg>
