<?xml version="1.0" encoding="UTF-8"?>
<svg xmlns="http://www.w3.org/2000/svg" xmlns:xlink="http://www.w3.org/1999/xlink" width="60px" height="60px" viewBox="0 0 60 60" version="1.1">
  <title>web服务器</title>
  <defs>
    <polygon id="path-1" points="0 0 12.5194557 0 12.5194557 16.0952217 0 16.0952217"></polygon>
    <polyline id="path-3" points="0 6.49188908 0.0362383971 19.411608 11.1441184 12.9197189 11.1084209 0"></polyline>
  </defs>
  <g id="页面" stroke="none" stroke-width="1" fill="none" fill-rule="evenodd">
    <g id="图标" transform="translate(-53.000000, -221.000000)">
      <g id="web服务器" transform="translate(64.000000, 227.000000)">
        <g id="编组">
          <path d="M13.6753466,48.6281202 C13.6109829,48.6281202 13.5477009,48.6111472 13.4914502,48.5788438 L0.567323393,41.3713522 C0.44779077,41.3040078 0.373150489,41.1764367 0.372609617,41.0379154 L0.372609617,11.3488974 C0.373691361,11.2147562 0.443463797,11.0904702 0.556505961,11.0203882 L17.7616315,0.438559767 C17.8200457,0.401876241 17.8876546,0.382713205 17.9563453,0.3837584 C18.020709,0.382713205 18.083991,0.399686179 18.1402416,0.432537098 L31.1995864,7.89079071 C31.3180373,7.95868261 31.3905141,8.08680119 31.3889181,8.22422754 L31.3889181,38.3578279 C31.386728,38.4958017 31.3126286,38.6228253 31.1941777,38.6912647 L13.8581612,48.5788438 C13.8024514,48.6105997 13.7391694,48.6275726 13.6753466,48.6281202" id="Fill-1" fill="#0A5FF1"></path>
          <path d="M17.9574811,0.000547515314 C17.819018,0.00219006126 17.6832592,0.0394211026 17.5631857,0.110050578 L0.362387144,10.6924266 C0.136843688,10.8304004 -0.000537698582,11.0773298 1.58184307e-06,11.3434223 L1.58184307e-06,41.0329877 C1.58184307e-06,41.3111255 0.149283734,41.5668151 0.389430724,41.7004089 L13.3135576,48.9068055 C13.4244363,48.9697697 13.5493776,49.0015256 13.6764824,48.9999437 C13.8068325,48.9993355 13.935019,48.9653896 14.049143,48.9013303 L31.3948951,39.0082761 C31.6328786,38.8724923 31.7799957,38.6173501 31.7794563,38.3403074 L31.7794563,8.22477505 C31.7783731,7.94827982 31.6317969,7.6936852 31.3948951,7.55735388 L18.3290599,0.0991002719 C18.2154769,0.0339459495 18.0872903,0 17.9569403,0 L17.9574811,0.000547515314 Z M17.9569403,0.761046287 L31.016285,8.21875238 L31.016285,38.3523527 L13.6759415,48.2448594 L0.751814695,41.0390104 L0.751814695,11.3488974 L17.9574811,0.761046287 L17.9569403,0.761046287 Z" id="Fill-3" fill="#1654E7"></path>
          <polygon id="Fill-5" fill="#488AF9" points="17.9567239 0.760882032 0.751598347 11.3487332 13.6757252 18.4620521 31.0214774 8.22296825"></polygon>
          <line x1="13.6751843" y1="46.5266469" x2="13.6751843" y2="18.4621069" id="Fill-7" fill="#B5D6FB"></line>
          <path d="M13.6755089,46.9036712 C13.4678142,46.904761 13.2985213,46.7355787 13.2974396,46.5253328 C13.2974396,46.5253328 13.2974396,46.5253328 13.2974396,46.5247853 C13.2968987,46.5231428 13.2968987,46.5215002 13.2974396,46.5198577 L13.2974396,18.4602453 C13.2963579,18.2489044 13.4651098,18.0764371 13.6744271,18.0758883 C13.8832035,18.0753421 14.0530372,18.2461669 14.054119,18.4575078 L14.054119,46.5264279 C14.0508737,46.7361262 13.8821218,46.9036712 13.6755089,46.9036712" id="Fill-9" fill="#7BB8FC"></path>
          <line x1="28.9404198" y1="9.44995007" x2="13.6754007" y2="18.4620521" id="Fill-11" fill="#B5D6FB"></line>
          <path d="M13.6756711,18.8398497 C13.5409941,18.8409327 13.4165936,18.7670182 13.351689,18.6482074 C13.2483825,18.4647897 13.3084193,18.2320957 13.4869069,18.1231402 L28.7513852,9.11158561 C28.9309546,9.00317757 29.1624476,9.06285674 29.2695402,9.24408431 C29.3766328,9.42531188 29.3176777,9.66019595 29.1386493,9.76860398 C29.1359449,9.77024653 29.1326997,9.77188908 29.1299953,9.77353162 L13.8649762,18.7916564 C13.8071029,18.8234123 13.7416574,18.8398497 13.6756711,18.8398497" id="Fill-13" fill="#7BB8FC"></path>
          <line x1="2.39449583" y1="12.2516407" x2="13.6754548" y2="18.4615594" id="Fill-15" fill="#B5D6FB"></line>
          <path d="M13.6751843,18.8398377 C13.6129841,18.8387427 13.5524065,18.8239598 13.4966967,18.7960365 L2.21573776,12.5861178 C2.02805532,12.4930402 1.95016981,12.2636313 2.04157711,12.0730959 C2.13190267,11.8858457 2.35366002,11.8059085 2.5408016,11.8935109 C2.55378251,11.8995336 2.56622256,11.9066513 2.57812174,11.9143165 L13.8596215,18.1247827 C14.0424361,18.2266206 14.1100451,18.4587671 14.0105247,18.6443747 C13.9402114,18.7642806 13.8131066,18.8381952 13.6751843,18.8398377" id="Fill-17" fill="#7BB8FC"></path>
          <line x1="2.22157918" y1="37.0442291" x2="11.7625542" y2="42.455323" id="Fill-19" fill="#B5D6FB"></line>
          <path d="M11.7566587,42.8388057 C11.692295,42.8388057 11.629013,42.8218298 11.5727623,42.7895263 L2.03773692,37.37898 C1.85654494,37.2738571 1.79380383,37.0406155 1.89711031,36.8571979 C1.99933504,36.6770654 2.22487849,36.6119111 2.40552961,36.7110113 L11.9465046,42.1221052 C12.1276966,42.2223005 12.1947647,42.4522569 12.0957852,42.6356745 C12.0957852,42.6362221 12.0952443,42.6367696 12.0952443,42.6373171 L12.0925399,42.6416972 C12.0238492,42.7643406 11.8956627,42.8393502 11.7566587,42.8388057" id="Fill-21" fill="#FFFFFF"></path>
          <line x1="2.22157918" y1="34.3356709" x2="11.7625542" y2="39.7467647" id="Fill-23" fill="#B5D6FB"></line>
          <path d="M11.7566587,40.1301927 C11.692295,40.1301927 11.629013,40.1132167 11.5727623,40.0809133 L2.03773692,34.670367 C1.85654494,34.5652441 1.79380383,34.3320025 1.89711031,34.1485849 C1.99933504,33.9684524 2.22487849,33.903298 2.40552961,34.0023983 L11.9465046,39.4134922 C12.1276966,39.5136875 12.1947647,39.7436439 12.0957852,39.9270615 C12.0957852,39.927609 12.0952443,39.9281566 12.0952443,39.9287041 L12.0925399,39.9330842 C12.0238492,40.0557276 11.8956627,40.1307372 11.7566587,40.1301927" id="Fill-25" fill="#FFFFFF"></path>
          <line x1="2.22157918" y1="31.6326973" x2="11.7625542" y2="37.0437911" id="Fill-27" fill="#B5D6FB"></line>
          <path d="M11.7566587,37.4274381 C11.692295,37.4274381 11.629013,37.4104621 11.5727623,37.3781587 L2.03773692,31.9670649 C1.85546319,31.8646795 1.7905586,31.6319855 1.89170159,31.4474729 C1.99338545,31.2629602 2.22325588,31.1972584 2.40552961,31.2996437 L11.9465046,36.7107376 C12.1276966,36.8109329 12.1947647,37.0408893 12.0957852,37.2243069 C12.0957852,37.2248545 12.0952443,37.225402 12.0952443,37.2259495 L12.0925399,37.2303296 C12.0238492,37.352973 11.8956627,37.4279826 11.7566587,37.4274381" id="Fill-29" fill="#FFFFFF"></path>
          <line x1="0.30819181" y1="25.9695274" x2="13.6758334" y2="33.3505813" id="Fill-31" fill="#B5D6FB"></line>
          <polygon id="Fill-33" fill="#7BB8FC" points="0.128622439 26.3013764 0.49100641 25.6295751 13.858648 33.0139142 13.4957231 33.6857155"></polygon>
          <line x1="9.48083325" y1="20.0709806" x2="11.647024" y2="21.1649162" id="Fill-35" fill="#B5D6FB"></line>
          <path d="M11.6486466,21.5484507 C11.5907734,21.5495458 11.5329001,21.5364054 11.4809764,21.5101247 L9.31478567,20.4161891 C9.13034846,20.3165413 9.06057602,20.0843948 9.15901465,19.897692 C9.25420805,19.717012 9.47272018,19.6441925 9.65553478,19.7323424 L11.8217255,20.826278 C12.0077854,20.9199031 12.0835074,21.1487645 11.9904775,21.3376573 C11.9904775,21.3376573 11.9904775,21.3376573 11.9904775,21.3376573 L11.9893957,21.3403949 C11.9217868,21.4674185 11.7908959,21.5468082 11.6486466,21.5484507" id="Fill-37" fill="#02E2DF"></path>
          <path d="M34.8377051,26.3362531 L34.8052528,26.3203752 C34.7089777,26.2656237 34.6094573,26.2163473 34.5077734,26.1725461 C34.4877612,26.1670709 34.4677489,26.1594057 34.4488184,26.1506454 C34.4163661,26.1396951 34.383373,26.1287448 34.3460528,26.1128669 C34.2973744,26.0969889 34.2432872,26.0745408 34.1946088,26.0581154 C34.1405216,26.0422374 34.0810257,26.0301921 34.0269386,26.0197893 C33.9944863,26.0137666 33.9571661,26.0028163 33.924173,25.9978887 C33.9068651,25.991866 33.8884755,25.9885809 33.8700858,25.9869384 C33.7521758,25.9661328 33.6331841,25.9513499 33.5131106,25.9431371 L33.4054771,25.9431371 C33.3124472,25.937662 33.2188764,25.937662 33.1258465,25.9431371 C33.0933942,25.9436847 33.060401,25.9475173 33.0284896,25.9540875 L32.850002,25.9699654 C32.7959148,25.9754405 32.7418277,25.9754405 32.6823318,25.9858433 C32.6331125,25.9940561 32.584434,26.0050064 32.5362965,26.0181467 C32.4551657,26.0340247 32.374035,26.0509977 32.2918225,26.0734458 C32.2485528,26.0843961 32.2047422,26.0887762 32.1620133,26.100274 C32.1187436,26.1117719 32.0754739,26.133125 32.0322041,26.1440753 C31.8969862,26.1878765 31.7563596,26.2316777 31.6162739,26.2864292 C31.5686772,26.3050448 31.5194579,26.3214702 31.4702385,26.3351581 C31.443195,26.3461084 31.4161514,26.3685565 31.3831582,26.3789593 C31.1294894,26.4879149 30.8817702,26.6116533 30.642705,26.7512697 C30.4533999,26.8602253 30.2646357,26.9806787 30.0812803,27.1120823 L29.9027926,27.243486 C29.7783922,27.3365636 29.6534508,27.4296412 29.5355408,27.5260039 C29.4657684,27.581303 29.4003229,27.635507 29.3354183,27.6957337 C29.2218353,27.7888113 29.113661,27.8879115 29.0054867,27.9913919 L28.8053642,28.1775471 C28.7620944,28.2158732 28.7242334,28.2547468 28.6804228,28.2925254 C28.6371531,28.3363266 28.5992921,28.385603 28.5560224,28.4294042 C28.4208045,28.566283 28.2909953,28.708637 28.1660539,28.8504435 C28.1217025,28.8936972 28.0800554,28.9391409 28.0411126,28.9873223 C28.0086603,29.0256484 27.976208,29.0694496 27.9437557,29.1077757 C27.8680337,29.2008533 27.7928525,29.2939309 27.7117218,29.3908411 C27.6630434,29.4510678 27.6089562,29.5112944 27.5656865,29.5715211 C27.5289072,29.6268202 27.4894236,29.6793816 27.4466947,29.7303006 C27.3926076,29.8069527 27.3390613,29.8781297 27.2849741,29.9547819 C27.2471131,30.0035107 27.2087112,30.0582622 27.1713911,30.1075386 C27.1118952,30.1951411 27.0523993,30.2882187 26.9929034,30.3812963 C26.9550424,30.4360478 26.9166405,30.4962745 26.8793204,30.551026 C26.8636351,30.5729266 26.8463272,30.5997549 26.830642,30.6216555 C26.7278764,30.7853626 26.6251108,30.9556398 26.5277539,31.1248221 C26.522886,31.1368674 26.5153138,31.1478177 26.506119,31.157673 C26.4861068,31.1910714 26.468258,31.2261124 26.4520318,31.2617009 C26.3822594,31.3816068 26.3168139,31.5026076 26.2524502,31.6285362 C26.2199979,31.6832877 26.1929543,31.7429669 26.1659108,31.7977184 C26.1334585,31.8579451 26.1064149,31.9181718 26.0739626,31.9783985 C26.0463781,32.03315 26.0198754,32.0824264 25.9928319,32.1371779 C25.9279273,32.2740567 25.8630227,32.4158632 25.8035268,32.5532895 C25.7927094,32.5801178 25.7813511,32.6020184 25.7710745,32.6299417 C25.7651249,32.6354168 25.7651249,32.6458196 25.7602571,32.6518423 C25.684535,32.8286897 25.6142217,33.0077272 25.5439084,33.1884073 L25.5114561,33.2869601 C25.4898213,33.3526619 25.4627777,33.4183637 25.4416837,33.4840656 C25.4092314,33.5711205 25.3767791,33.6647456 25.3443268,33.7523481 C25.3226919,33.8229775 25.3010571,33.8892269 25.2794222,33.9604039 C25.2523786,34.0419837 25.2307438,34.124111 25.2031593,34.2078808 C25.187474,34.2571572 25.170707,34.3119087 25.1550218,34.3606376 C25.1279782,34.4537152 25.111752,34.5418652 25.0895763,34.6343952 C25.0630736,34.7384232 25.0414387,34.8369759 25.0138543,34.9410038 C25.0073638,34.9776873 24.9987099,35.0143709 24.9873516,35.0499594 C24.9705845,35.1205888 24.9651758,35.198336 24.9494905,35.2689655 C24.9170382,35.4277449 24.8899947,35.5870719 24.8683598,35.7398287 C24.863492,35.7836299 24.8532154,35.8274311 24.8467249,35.8712323 C24.842398,35.911201 24.8407754,35.9511696 24.8413162,35.9911382 C24.7985874,36.3360728 24.7769525,36.6831975 24.7764116,37.0308698 C24.7818203,38.9077523 25.436275,40.2321918 26.4953016,40.8558118 L29.5696157,42.6664449 C28.5105891,42.042825 27.8577571,40.7244081 27.8512667,38.8420504 C27.853971,38.4943782 27.8756059,38.1472535 27.9156304,37.8023189 C27.9269887,37.7201916 27.9313157,37.6325891 27.9480827,37.5499143 C27.9702584,37.3911349 27.9967611,37.2378306 28.0297543,37.0790511 C28.0513892,36.9700956 28.0670744,36.8605925 28.094118,36.7510894 C28.1162938,36.6525367 28.1427965,36.5490563 28.1703809,36.449956 C28.2082419,36.3081496 28.2401534,36.1668906 28.2839639,36.0239891 C28.3055988,35.9418618 28.3321015,35.8597345 28.359686,35.7765122 C28.4083644,35.6177327 28.4624516,35.4584058 28.5165387,35.3001739 C28.536551,35.2355671 28.5598085,35.1715078 28.5863112,35.1085435 C28.6674419,34.8900849 28.7539814,34.6710788 28.8459295,34.4520726 C28.856747,34.4246969 28.8675644,34.4027963 28.8783818,34.374873 C28.9649213,34.1832426 29.0530834,33.9921598 29.1488176,33.8005294 C29.1758612,33.7403027 29.2077726,33.6800761 29.2402249,33.6198494 C29.3321731,33.4391693 29.4300709,33.2584893 29.5268869,33.0832844 C29.5468991,33.0498859 29.5652888,33.0148449 29.580974,32.9792564 C29.6999658,32.7712006 29.825448,32.5691675 29.9541754,32.3665868 C29.9920365,32.3063601 30.0298975,32.2516086 30.0677585,32.1897394 C30.1651154,32.0479329 30.2570635,31.9066739 30.3598291,31.7637725 C30.4139163,31.6871203 30.4680035,31.6104682 30.5220906,31.5392912 C30.6080892,31.424313 30.7000374,31.3093347 30.7871177,31.1943565 L31.0142838,30.9156712 C31.0900058,30.8280688 31.165187,30.7388238 31.2414499,30.6588865 C31.3707182,30.5165326 31.5005273,30.3758211 31.6308774,30.2372998 C31.7120081,30.1496973 31.7985476,30.06757 31.8796783,29.9854427 C31.9445829,29.9197409 32.0094875,29.8595142 32.0743921,29.7992875 C32.1825664,29.6958071 32.2961495,29.602182 32.4091916,29.5036292 C32.4746371,29.4488777 32.5390008,29.388651 32.6093141,29.3338995 C32.7337146,29.2353467 32.8581151,29.1422691 32.9819747,29.0513816 L33.1604623,28.9199779 C33.3443586,28.7940494 33.5336637,28.6675733 33.7224279,28.5591653 C33.9609523,28.4184539 34.2086714,28.2941679 34.4628811,28.1868549 C34.539144,28.154004 34.6197339,28.1211531 34.6954559,28.0937773 C34.8317555,28.0395733 34.9702187,27.9919395 35.1113861,27.9519708 C35.1979256,27.9245951 35.2898738,27.8972193 35.3710045,27.8753187 C35.4521352,27.8534181 35.533266,27.8369926 35.6154785,27.8205672 C35.7236528,27.7986665 35.8253367,27.7822411 35.9302657,27.7712908 C35.9897616,27.7658156 36.0487166,27.7554128 36.1028038,27.7554128 C36.2288269,27.7455576 36.3553908,27.743915 36.4814139,27.7504852 L36.5674125,27.7504852 C36.7129069,27.759793 36.8567788,27.777861 37.0001098,27.8052367 C37.0374299,27.8107119 37.0698822,27.8211147 37.1028754,27.8271373 C37.2105088,27.8545131 37.3186831,27.8818889 37.4268575,27.9202149 C37.4593098,27.9311653 37.491762,27.9421156 37.5296231,27.9579935 C37.6621366,28.0100075 37.7903232,28.0724242 37.9136419,28.1441487 L34.8398686,26.331873 L34.8377051,26.3362531 Z" id="Fill-39" fill="#488AF9"></path>
          <path d="M25.5134033,33.2850438 L25.8649698,33.4219226 L25.3944115,35.0195723 L25.0001161,35.0414729 L25.3679088,35.1186725 L25.3295069,35.3311085 C25.3024633,35.4844128 25.2754198,35.6377171 25.2537849,35.7855462 L25.2429675,35.8621983 L24.8584078,35.8731486 L25.2316092,35.9437781 L25.2262005,36.0308331 C25.186176,36.3615323 25.1645411,36.6938741 25.1612959,37.0267634 C25.1667046,38.7010652 25.7070353,39.9433775 26.6908807,40.5177211 L27.9175775,41.2393462 C27.6157712,40.4761099 27.4670315,39.6597646 27.4800124,38.8373966 C27.4821759,38.4732989 27.5054334,38.1097487 27.5497848,37.7483886 L27.5822371,37.4855812 C27.6092807,37.3218742 27.6363243,37.1576196 27.6633679,36.9988401 L27.6790532,36.9117852 C27.6947384,36.8296579 27.7115054,36.7420554 27.7277316,36.6593806 L27.8034536,36.3472969 C27.8407738,36.1994678 27.8791756,36.0516386 27.9219045,35.9092847 L27.9981674,35.6574276 C28.046305,35.493173 28.1063417,35.3294659 28.159888,35.1646638 L28.2296604,34.9626307 C28.3107912,34.7381494 28.404362,34.5136681 28.5000962,34.2908294 L28.5325485,34.2136297 C28.619088,34.0165242 28.7110362,33.8199662 28.8083931,33.6228607 L28.8998004,33.4367055 C28.9917485,33.2505503 29.0896463,33.0698702 29.191871,32.8842625 L29.2513669,32.7807821 C29.3757674,32.5683462 29.5007087,32.3591954 29.6294361,32.1566147 L29.7105669,32.0301387 C29.8403761,31.8335807 29.9431417,31.6857515 30.0453664,31.5433975 L30.2130366,31.3134411 C30.3049848,31.1935353 30.3969329,31.0725344 30.4888811,30.9575562 C30.5646031,30.8595509 30.6457339,30.7609982 30.720915,30.6679205 C30.7863605,30.5857933 30.8561329,30.5091411 30.9264462,30.432489 C31.083299,30.2518089 31.2185169,30.1100024 31.3591435,29.9676485 C31.4727265,29.8471951 31.5430399,29.7760181 31.6128123,29.7048411 L31.8183435,29.5126632 C31.9319265,29.4091828 32.0455096,29.3051549 32.1645013,29.2066022 L32.3700325,29.0297547 C32.4993008,28.9257268 32.6237013,28.8326492 32.7540514,28.734644 L32.9379477,28.5972176 C33.1272528,28.4663615 33.3279161,28.3349578 33.5215482,28.2199796 C33.7741352,28.0743405 34.0337536,27.9423893 34.3004033,27.825221 C34.3701757,27.7923701 34.440489,27.7655419 34.5097206,27.7376186 C34.6936169,27.6669891 34.8396523,27.6111425 34.9856876,27.5678888 C35.0770949,27.5405131 35.1749926,27.5131373 35.2647773,27.4912367 C35.3518577,27.4687886 35.4394789,27.4529106 35.5249366,27.4364852 C35.6433874,27.4145846 35.7569705,27.3981591 35.8651448,27.3811861 L35.8705535,27.3811861 L34.6222219,26.6486106 C34.5194563,26.5938591 34.4329168,26.5495104 34.3463774,26.5111843 L33.7898205,26.3474772 C33.6854323,26.3294092 33.5805032,26.3168163 33.4750332,26.3091511 L33.3884938,25.9264379 L33.3776763,26.3091511 C33.2803194,26.3091511 33.2029748,26.303676 33.1234667,26.3091511 L33.0104245,25.9373882 L33.0369272,26.3201014 L32.5885447,26.3803281 C32.5187722,26.3962061 32.4425093,26.4077039 32.3667873,26.4296045 L32.1223133,26.4953063 C31.9903407,26.5336324 31.8599906,26.5790762 31.7328858,26.6321852 L31.5165371,26.7197876 C31.2758493,26.822173 31.041111,26.9393413 30.8139449,27.0701974 C30.6354573,27.1742253 30.4575106,27.2941312 30.2790229,27.4151321 L30.1043214,27.5410606 C29.9853297,27.628663 29.8663379,27.717908 29.7473461,27.8148182 L29.5959021,27.9412943 C29.4449989,28.0721504 29.3368246,28.165228 29.234059,28.2637808 L28.8013617,28.6902952 C28.6715525,28.8211514 28.5471521,28.9585777 28.4227516,29.1003842 L28.2015351,29.3527888 C28.1258131,29.4458664 28.0500911,29.5334688 27.9803186,29.6265464 L27.1695521,30.7582606 L26.8141995,30.6257619 L27.1333137,30.8338177 C27.0305481,30.9980723 26.9337321,31.1568517 26.8363752,31.326034 L26.4577651,31.2274812 L26.7876968,31.4130889 L26.744427,31.4957637 C26.6849312,31.5992441 26.6254353,31.7076521 26.5659394,31.8182502 L26.3165976,32.311014 C26.251693,32.4478928 26.1916563,32.5847717 26.1327013,32.721103 L25.7540911,32.6444508 L26.100249,32.79228 C26.0137095,32.9893855 25.9433962,33.1640429 25.8784916,33.3392478 L25.5134033,33.2850438 Z M29.3892891,42.9919428 L29.3892891,42.9919428 L26.314975,41.1807621 C25.0920643,40.4591369 24.4127296,38.9879633 24.40678,37.0278584 C24.4089435,36.6643083 24.4322009,36.3007581 24.4765524,35.939398 C24.4765524,35.8950493 24.4797976,35.851248 24.4873698,35.8079943 L24.5030551,35.7149167 C24.5355074,35.5068609 24.5620101,35.3431538 24.5944624,35.1783517 L24.6058207,35.0962244 C24.6117703,35.0464005 24.6209651,34.9971241 24.6323234,34.9483953 L24.659367,34.8334171 C24.6810019,34.7403395 24.7026367,34.6472619 24.7291395,34.5503516 L25.1991569,33.0353768 C25.2694702,32.8492216 25.3457331,32.6685415 25.4209142,32.488409 L25.4533665,32.4177795 C25.5290885,32.240932 25.5934523,32.0996731 25.6588977,31.9578666 L25.9185161,31.4382746 C25.9774711,31.3232964 26.0429166,31.2137933 26.1018716,31.0988151 L26.475073,31.2083182 L26.1456822,31.022163 L26.1830023,30.9515335 C26.3019941,30.7434777 26.4047597,30.5688203 26.512934,30.3990905 L26.7227922,30.076604 C26.765521,30.0059745 26.8141995,29.9397252 26.8580101,29.8685482 L27.4145669,29.12995 C27.4956977,29.0308498 27.5714197,28.9328445 27.6525504,28.8397669 L27.8364468,28.627331 C28.0149344,28.4302255 28.1506932,28.2829438 28.2848293,28.1455175 L28.7499789,27.6916273 C28.863562,27.5875994 28.977145,27.484119 29.0955959,27.3855662 L29.3011271,27.2087188 C29.4309363,27.1046909 29.5553367,27.0116133 29.6856868,26.9130605 L29.8695831,26.7761817 C30.0588882,26.6453255 30.253602,26.5133743 30.4531836,26.3983961 C30.7057706,26.2538521 30.9659299,26.1224484 31.2314978,26.0041851 C31.2693588,25.9822845 31.2964024,25.9713342 31.3180373,25.9603839 C31.3558983,25.9445059 31.3943002,25.9330081 31.4316203,25.9165827 C31.6209254,25.8459532 31.7723694,25.7901066 31.9184047,25.7468529 C31.9881772,25.7194771 32.0265791,25.7085268 32.0590314,25.6975765 L32.1563882,25.6756759 C32.2807887,25.6483001 32.3657056,25.6263995 32.4533268,25.6099741 C32.5404071,25.5880735 32.5782681,25.5825983 32.6101795,25.5771232 L32.7399887,25.5612452 C32.8584396,25.5502949 32.923885,25.5393446 32.9844627,25.5338694 L33.092637,25.5229191 C33.1948617,25.517444 33.2927595,25.5229191 33.3901164,25.5229191 L33.4761149,25.9061799 L33.4977498,25.5229191 C33.6600113,25.5338694 33.7898205,25.5502949 33.9244975,25.5721955 L34.0705328,25.6050464 L34.0813503,25.9992575 L34.1576132,25.6274946 C34.2057507,25.6384449 34.2549701,25.6493952 34.2976989,25.6603455 C34.3420504,25.6723908 34.3853201,25.6871737 34.4275081,25.7041467 L34.5843609,25.7588982 C34.722824,25.8109122 34.8569601,25.8749715 34.9846058,25.9505286 L35.021926,25.9724292 L38.096781,27.7836099 L37.7181709,28.4461034 C37.6099966,28.3853292 37.498577,28.3327677 37.3833714,28.287324 L37.3882392,28.254473 L37.3125172,28.2106718 L37.2968319,28.2599482 C37.2054246,28.2270973 37.1123947,28.1997215 37.0177422,28.1778209 L37.0123335,28.0360144 L36.9577054,28.0031635 L36.9312027,28.1559203 C36.8040979,28.1312821 36.6759113,28.1148566 36.546643,28.1071914 L36.4817384,27.7239307 L36.470921,28.1071914 C36.357338,28.1011688 36.2437549,28.1071914 36.1301719,28.1121191 L35.9900861,28.127997 C35.8862388,28.1378523 35.7834732,28.1542777 35.6817893,28.1772734 C35.6120169,28.1931513 35.535754,28.2046492 35.4605728,28.2265498 L35.215558,28.2922516 C35.0835853,28.3305777 34.9532353,28.3760214 34.8261305,28.4291304 C34.7341823,28.4674565 34.6746864,28.4893571 34.6097818,28.5167329 C34.3680122,28.6185707 34.1327331,28.7379291 33.9071896,28.8726178 C33.7232933,28.9760982 33.5502144,29.0965516 33.3717267,29.217005 L33.2040565,29.343481 C33.0856057,29.4310835 32.966073,29.5203285 32.8476222,29.6172387 L32.6907694,29.7480948 C32.5501428,29.8685482 32.4419685,29.9605308 32.3337941,30.0601786 L31.9443666,30.4379641 C31.7696651,30.6148116 31.6468872,30.7500478 31.5230276,30.8918543 C31.4316203,30.9958822 31.3661748,31.0670592 31.3018111,31.1448064 C31.2260891,31.2373365 31.1503671,31.3249389 31.0800538,31.4180165 C30.9935143,31.5275196 30.9058931,31.6370227 30.8204354,31.7520009 L30.6635826,31.971007 C30.5662257,32.1078858 30.4742776,32.2447647 30.3844929,32.381096 L30.2763186,32.5508257 C30.1513772,32.7479312 30.0269768,32.9455843 29.9139346,33.1470699 L29.5299158,33.0594674 L29.8593066,33.2510978 C29.7619497,33.4279452 29.6700015,33.5960325 29.579676,33.7767125 L29.4936774,33.95356 C29.4017292,34.1391676 29.3151897,34.3253228 29.234059,34.5114781 L28.8554489,34.4293508 L29.2016067,34.582655 C29.1096585,34.7945435 29.0269052,35.0036943 28.9473971,35.2172253 L28.8987186,35.3541041 C28.8229966,35.5621599 28.7743181,35.7149167 28.724558,35.8742437 L28.6542446,36.1146029 C28.6169245,36.2520292 28.5785226,36.3883606 28.5460703,36.5252394 L28.4762979,36.814875 C28.4606126,36.8920746 28.4438456,36.9681793 28.4330282,37.0448314 L28.4173429,37.1329814 C28.3908402,37.2857382 28.3632557,37.4390424 28.3416209,37.5868716 L28.319986,37.7785019 C28.2772571,38.1250791 28.2539997,38.4743939 28.2502136,38.8237087 C28.2556223,40.4980105 28.795953,41.7343001 29.7743897,42.3141188 L29.7797984,42.3141188 L29.3892891,42.9919428 Z" id="Fill-41" fill="#1654E7"></path>
          <path d="M39.6267061,31.9609875 C39.6423216,35.7366531 37.0104404,40.3423519 33.7576386,42.2520853 C30.5145725,44.1459408 27.8653834,42.6189206 27.8604458,38.8377798 C27.8448303,35.0621142 30.4767115,30.4558679 33.7197776,28.5614649 C36.9725794,26.6588492 39.615278,28.1853219 39.6267061,31.9609875" id="Fill-43" fill="#488AF9"></path>
          <g transform="translate(27.480544, 27.351816)">
            <mask id="mask-2" fill="white">
              <use xlink:href="#path-1"></use>
            </mask>
            <g id="Clip-46"></g>
            <path d="M8.88171563,0.768078024 C8.0119941,0.804214034 7.16607092,1.06811642 6.42778119,1.53405195 C3.28693981,3.36713322 0.741057199,7.82664546 0.757206213,11.4763825 C0.762692063,13.1561595 1.30843151,14.4039469 2.29227694,14.977743 C3.28693981,15.5575617 4.63316922,15.4097326 6.08703208,14.5616313 C9.23111869,12.7175998 11.7786239,8.24713722 11.7678408,4.6034228 C11.7623978,2.92912097 11.222067,1.68680872 10.2328129,1.11246516 C9.82012786,0.879771148 9.35389654,0.760960325 8.88171563,0.768078024 Z M3.6433742,16.0946742 C3.03705714,16.1028869 2.43993489,15.9457501 1.91366683,15.640784 C0.681561323,14.923539 0.00547182489,13.4479852 1.76860479e-17,11.4818577 C-0.0150812959,7.58628623 2.69738977,2.83111573 6.04917107,0.872653449 C7.75183486,-0.123276908 9.36850007,-0.271106043 10.6060143,0.451614172 C11.8327111,1.16831172 12.5142093,2.64003288 12.519681,4.60451783 C12.5347624,8.49461414 9.81688263,13.260735 6.4656422,15.2252199 C5.61647379,15.7612374 4.64344578,16.0607283 3.6433742,16.0952217 L3.6433742,16.0946742 Z" id="Fill-45" fill="#1654E7" mask="url(#mask-2)"></path>
          </g>
        </g>
        <g id="编组" transform="translate(28.171138, 25.692813)">
          <mask id="mask-4" fill="white">
            <use xlink:href="#path-3"></use>
          </mask>
          <g id="Clip-48"></g>
          <path d="M5.55307462,3.24550653 C2.48849614,5.04299931 0.0123859596,9.38479575 0.0177858315,12.9524055 C0.02266252,14.7367579 0.652237061,15.9872829 1.65825823,16.5725768 C2.66427941,17.1584182 4.05540116,17.0620555 5.58931301,16.1652254 C7.12106138,15.2700379 8.51001965,13.7408276 9.51117298,11.9827559 C10.5117854,10.2252318 11.1310834,8.24377383 11.1257098,6.45942142 C11.1110712,2.89619176 8.61873484,1.46005909 5.55307462,3.2444115 M5.81701996,6.19332898 L5.81161124,4.09744036 C5.98739451,4.00819536 6.16263691,3.92716309 6.33355233,3.86091374 C6.70729461,3.91402273 7.05074807,4.16533226 7.33091956,4.60279699 C7.37581191,4.66685628 7.41529553,4.73474818 7.44882957,4.80537766 C7.38662934,4.87272204 7.32496998,4.93678133 7.25952451,5.00412572 C6.823582,5.45363579 6.33950192,5.85277446 5.81647909,6.1938765 M5.30805978,6.4906298 C4.85751374,6.73646417 4.36910669,6.90455137 3.86393261,6.9877737 C3.79794628,6.99817649 3.73412343,7.00693674 3.66975971,7.01350692 C3.71140682,6.89305355 3.74764522,6.77971788 3.78983321,6.67185737 C4.02619409,5.99129583 4.35991187,5.34960788 4.78070997,4.7675991 C4.95000278,4.63619543 5.12632693,4.51190945 5.30265107,4.39528869 L5.30805978,6.4906298 M7.9128974,4.27647787 C7.86746419,4.19599311 7.8214901,4.11769842 7.77822038,4.05090156 C7.67004606,3.88609945 7.5434821,3.73498522 7.400692,3.59974894 C7.72305147,3.56799305 8.04865617,3.59591633 8.36127996,3.68132872 L8.36019822,3.68132872 C8.2157855,3.88226684 8.06434145,4.08046738 7.9128974,4.27538283 M3.21110059,7.02500474 C3.05695219,7.0091268 2.9044264,6.9877737 2.7578502,6.95711284 C3.04829824,6.53333599 3.36795336,6.13145975 3.71519292,5.75476921 C3.58213851,6.03783463 3.45178846,6.33294539 3.34036891,6.64502912 C3.29385395,6.77150515 3.24950248,6.89743368 3.21110059,7.02390971 M8.64577842,7.61467874 C8.61224438,6.44409099 8.42077583,5.44542306 8.11572425,4.7029923 C8.3434312,4.42978215 8.56032071,4.14288413 8.76585191,3.84229822 C8.80749903,3.85872368 8.84698265,3.87952926 8.88430279,3.90416745 C9.7069685,4.37557814 10.1986208,5.3611057 10.2646071,6.66911979 L8.64577842,7.61467874 M0.880484876,12.1541282 C0.938899008,10.7727471 1.42351996,9.21725606 2.24077695,7.78714606 C2.27647447,7.72034919 2.31866246,7.6491722 2.35544173,7.58949303 C2.56854514,7.64752966 2.78759813,7.68092809 3.00827375,7.6885933 C2.69889519,8.83673292 2.52743889,10.018271 2.4987727,11.2080217 L0.880484876,12.1535807 M5.82675565,9.26269983 L5.81972432,6.78683558 C6.4103561,6.40685995 6.95447293,5.9578974 7.44125737,5.4503507 C7.51319329,5.38136377 7.58404747,5.30799672 7.65327904,5.23024954 C7.93182791,5.91628623 8.10166159,6.8339219 8.13249127,7.91526464 L5.82729652,9.26269983 M3.01043723,10.9079834 C3.03531733,9.81514279 3.19054747,8.7288724 3.47180071,7.67326288 C3.54590011,7.66778772 3.61891778,7.65738493 3.69139457,7.64150699 C4.25930975,7.55280951 4.80721268,7.36391672 5.31076414,7.0841364 L5.31779547,9.56000065 L3.01043723,10.9085309 M8.78856852,11.8343793 C8.57654685,11.7681299 8.35695299,11.7325414 8.1357365,11.7281613 C8.44781941,10.5811167 8.61981658,9.39903115 8.64794191,8.20928037 L10.2667706,7.26317391 C10.2067339,8.64510256 9.7221129,10.2005936 8.90593766,11.6312511 L8.78856852,11.8338317 M7.6711278,11.7418492 C7.59811013,11.753347 7.52779682,11.7577271 7.45532003,11.7719625 C6.88740485,11.8633976 6.34004279,12.0522904 5.83540959,12.3309757 L5.82837826,9.85784898 L8.13357302,8.51041379 C8.10869292,9.60270684 7.95346277,10.6878822 7.6711278,11.7418492 M3.48964947,14.18541 C3.17810743,13.3263585 3.01638682,12.4191256 3.01151897,11.50368 L5.31887722,10.1551498 L5.32590855,12.6282765 C4.73744025,13.0077046 4.19494603,13.4550246 3.70870247,13.9614763 C3.6356848,14.0326533 3.56212626,14.1114955 3.49019034,14.18541 M0.881025747,12.7503724 L2.49931357,11.8042659 C2.50526316,12.7980062 2.68375079,13.7829863 3.02666338,14.7137623 C2.79895644,14.988615 2.58206693,15.2782506 2.37653572,15.5815741 L2.26133007,15.5153247 C1.44028698,15.041724 0.948634697,14.0572914 0.881025747,12.7503724 M5.84244092,15.0170858 L5.83649134,12.9294099 C6.28541476,12.6791954 6.77436269,12.5111082 7.28115938,12.4328135 C7.34335961,12.4180306 7.40718246,12.4087228 7.47154618,12.4048902 C7.43909388,12.5154883 7.39366067,12.6342991 7.35471791,12.7459923 C7.11943877,13.4243637 6.78572099,14.0633141 6.36384114,14.6420378 C6.19671182,14.776179 6.02255117,14.9015601 5.84244092,15.0170858 M5.33239901,15.3160291 C5.16364707,15.4047266 4.98948641,15.4830213 4.81045791,15.5498182 C4.43401128,15.5049219 4.09921176,15.2415671 3.81309068,14.8161477 C3.7709027,14.7515409 3.73358256,14.6825539 3.69355806,14.612472 C3.75629917,14.543485 3.82012202,14.4783307 3.88502661,14.4175565 C4.31772389,13.9642138 4.80180397,13.5650752 5.32753116,13.2272582 L5.33348075,15.3149341 L5.33348075,15.3160291 M7.42935819,13.6608904 C7.56187174,13.3843951 7.68519046,13.0827142 7.80364134,12.771178 C7.8463702,12.6501771 7.89072167,12.5209635 7.93723663,12.3955825 C8.08868067,12.4027002 8.23904298,12.4240533 8.38670092,12.4590942 C8.09625288,12.8823236 7.77659776,13.2841998 7.42989907,13.6614379 M3.74331825,15.8148156 C3.42095878,15.846024 3.09589494,15.8181007 2.78273029,15.7332358 C2.92822475,15.5290126 3.07858705,15.3324546 3.23435807,15.1435618 C3.2738417,15.2191189 3.31927491,15.2952236 3.36470813,15.364758 C3.47017809,15.5312027 3.59782379,15.6828644 3.74331825,15.8148156" id="Fill-47" fill="#F4F7F9" mask="url(#mask-4)"></path>
        </g>
      </g>
    </g>
  </g>
</svg>
