<?xml version="1.0" encoding="UTF-8"?>
<svg xmlns="http://www.w3.org/2000/svg" xmlns:xlink="http://www.w3.org/1999/xlink" width="60px" height="60px" viewBox="0 0 60 60" version="1.1">
  <title>文件数据库</title>
  <g id="页面" stroke="none" stroke-width="1" fill="none" fill-rule="evenodd">
    <g id="图标" transform="translate(-269.000000, -310.000000)">
      <g id="文件数据库" transform="translate(276.000000, 316.000000)">
        <g id="编组备份">
          <path d="M0.000111155625,27.1668364 L0.000111155625,36.128813 C0.0712507555,40.8203027 7.92995343,44.6708858 20.1081637,44.6708858 C32.2858182,44.6708858 40.0744928,40.8901035 40.2162162,36.128813 L40.2162162,27.1668364 L0.000111155625,27.1668364 Z" id="Fill-1" fill="#0A5FF1"></path>
          <path d="M40.2161051,27.1670563 C40.2161051,32.1382986 32.3557351,36.1988336 20.1080525,36.1988336 C7.92984227,36.1988336 0,32.1382986 0,27.1670563 C0,22.1958139 7.86037001,18.1347294 20.1080525,18.1347294 C32.2862628,18.0649286 40.2161051,22.1260132 40.2161051,27.1670563" id="Fill-3" fill="#02E2DF"></path>
          <path d="M0.000111155625,18.1345645 L0.000111155625,26.1165825 C0.0712507555,30.8075226 7.92995343,35.1489094 20.1081637,35.1489094 C32.2858182,35.1489094 40.0744928,30.8075226 40.2162162,26.1165825 L40.2162162,18.1345645 L0.000111155625,18.1345645 Z" id="Fill-5" fill="#0A5FF1"></path>
          <path d="M40.2161051,18.0645989 C40.2161051,23.0358412 32.3557351,27.0969258 20.1080525,27.0969258 C7.92984227,27.0969258 0,23.0358412 0,18.0645989 C0,13.0933565 7.86037001,9.03227195 20.1080525,9.03227195 C32.2862628,9.03227195 40.2161051,13.0933565 40.2161051,18.0645989" id="Fill-7" fill="#FDFFFF"></path>
          <path d="M0.000111155625,9.1023475 L0.000111155625,17.0843655 C0.0712507555,21.7753056 7.92995343,26.1166924 20.1081637,26.1166924 C32.2858182,26.1166924 40.0744928,21.7753056 40.2162162,17.0843655 L40.2162162,9.1023475 L0.000111155625,9.1023475 Z" id="Fill-9" fill="#0A5FF1"></path>
          <path d="M0.000111155625,9.03232691 L0.000111155625,37.2209838 C0.000111155625,37.2209838 3.18638714,44.7411812 18.692041,44.6713805 C18.692041,44.6713805 35.4015103,46.0717374 39.9327694,37.5291149 L40.2162162,9.03232691" id="Stroke-11" stroke="#1654E7" stroke-width="0.5"></path>
          <path d="M40.2161051,9.03232691 C40.2161051,14.0035693 32.3557351,18.0646538 20.1080525,18.0646538 C7.92984227,18.0646538 0,14.0035693 0,9.03232691 C0,4.06108455 7.86037001,0 20.1080525,0 C32.2862628,0 40.2161051,4.06108455 40.2161051,9.03232691" id="Fill-13" fill="#488AF9"></path>
          <path d="M40.2161051,9.03232691 C40.2161051,14.0035693 32.3557351,18.0646538 20.1080525,18.0646538 C7.92984227,18.0646538 0,14.0035693 0,9.03232691 C0,4.06108455 7.86037001,0 20.1080525,0 C32.2862628,0 40.2161051,4.06108455 40.2161051,9.03232691 Z" id="Stroke-15" stroke="#7BB8FC" stroke-width="0.5"></path>
          <path d="M20.8588532,21.5708499 C21.5168945,21.5708499 22.0509973,22.0984776 22.0509973,22.7497681 C22.0509973,23.4005089 21.5168945,23.9281366 20.8588532,23.9281366 C20.2008119,23.9281366 19.6667091,23.4005089 19.6667091,22.7497681 C19.6667091,22.0984776 20.2008119,21.5708499 20.8588532,21.5708499" id="Fill-17" fill="#02E2DF"></path>
          <path d="M15.3578169,21.0268437 C16.0158582,21.0268437 16.549961,21.5544714 16.549961,22.2057619 C16.549961,22.8565028 16.0158582,23.3841305 15.3578169,23.3841305 C14.6997756,23.3841305 14.1656728,22.8565028 14.1656728,22.2057619 C14.1656728,21.5544714 14.6997756,21.0268437 15.3578169,21.0268437" id="Fill-19" fill="#02E2DF"></path>
          <path d="M26.3598339,21.0268437 C27.0178752,21.0268437 27.551978,21.5544714 27.551978,22.2057619 C27.551978,22.8565028 27.0178752,23.3841305 26.3598339,23.3841305 C25.7017926,23.3841305 25.1676898,22.8565028 25.1676898,22.2057619 C25.1676898,21.5544714 25.7017926,21.0268437 26.3598339,21.0268437" id="Fill-21" fill="#02E2DF"></path>
          <path d="M20.8588532,30.3646451 C21.5168945,30.3646451 22.0509973,30.8922728 22.0509973,31.5435633 C22.0509973,32.1943041 21.5168945,32.7219318 20.8588532,32.7219318 C20.2008119,32.7219318 19.6667091,32.1943041 19.6667091,31.5435633 C19.6667091,30.8922728 20.2008119,30.3646451 20.8588532,30.3646451" id="Fill-23" fill="#02E2DF"></path>
          <path d="M15.3578169,29.8206389 C16.0158582,29.8206389 16.549961,30.3482667 16.549961,30.9995571 C16.549961,31.650298 16.0158582,32.1779257 15.3578169,32.1779257 C14.6997756,32.1779257 14.1656728,31.650298 14.1656728,30.9995571 C14.1656728,30.3482667 14.6997756,29.8206389 15.3578169,29.8206389" id="Fill-25" fill="#02E2DF"></path>
          <path d="M26.3598339,29.8206389 C27.0178752,29.8206389 27.551978,30.3482667 27.551978,30.9995571 C27.551978,31.650298 27.0178752,32.1779257 26.3598339,32.1779257 C25.7017926,32.1779257 25.1676898,31.650298 25.1676898,30.9995571 C25.1676898,30.3482667 25.7017926,29.8206389 26.3598339,29.8206389" id="Fill-27" fill="#02E2DF"></path>
          <path d="M20.8588532,39.1584403 C21.5168945,39.1584403 22.0509973,39.686068 22.0509973,40.3373585 C22.0509973,40.9880993 21.5168945,41.515727 20.8588532,41.515727 C20.2008119,41.515727 19.6667091,40.9880993 19.6667091,40.3373585 C19.6667091,39.686068 20.2008119,39.1584403 20.8588532,39.1584403" id="Fill-29" fill="#02E2DF"></path>
          <path d="M15.3578169,38.6144342 C16.0158582,38.6144342 16.549961,39.1420619 16.549961,39.7933523 C16.549961,40.4440932 16.0158582,40.9717209 15.3578169,40.9717209 C14.6997756,40.9717209 14.1656728,40.4440932 14.1656728,39.7933523 C14.1656728,39.1420619 14.6997756,38.6144342 15.3578169,38.6144342" id="Fill-31" fill="#02E2DF"></path>
          <path d="M26.3598339,38.6144342 C27.0178752,38.6144342 27.551978,39.1420619 27.551978,39.7933523 C27.551978,40.4440932 27.0178752,40.9717209 26.3598339,40.9717209 C25.7017926,40.9717209 25.1676898,40.4440932 25.1676898,39.7933523 C25.1676898,39.1420619 25.7017926,38.6144342 26.3598339,38.6144342" id="Fill-33" fill="#02E2DF"></path>
        </g>
        <g id="编组-4" transform="translate(29.837838, 27.243243)">
          <path d="M14.6615369,1.8964884 L14.4316339,10.8138834 L1.11269805,18.3459163 L0.30913726,9.75589356 L14.6615369,1.8964884 Z" id="矩形备份-16" stroke="#1654E7" stroke-width="0.585" fill="#488AF9"></path>
          <path d="M0.269056587,5.0395424 L0.269056587,18.2690982 C0.269056587,18.4927464 0.396569051,18.6968232 0.597576602,18.7948767 L3.46482296,20.1935481 C3.63262638,20.2754042 3.82942273,20.2722475 3.99451441,20.1850514 L17.5775255,13.0109459 C17.7693124,12.9096503 17.8893141,12.710558 17.8893141,12.4936641 L17.8893141,3.12943532 L17.8893141,3.12943532 L16.7423129,2.40238335 L16.7423129,1.59491802 C16.7423129,1.4082741 16.653252,1.23283319 16.5025831,1.12267494 L15.2729878,0.22368335 C15.0868501,0.0875928573 14.8381343,0.0735377281 14.6378494,0.187791172 L11.1549653,2.17461906 L11.1549653,2.17461906 L8.35012555,0.497308535 C8.17015011,0.389682172 7.94633452,0.386620882 7.76348279,0.489284592 L0.56765732,4.52944392 C0.383227917,4.63299343 0.269056587,4.82803187 0.269056587,5.0395424 Z" id="路径-15" stroke="#1654E7" stroke-width="0.585" fill="#488AF9"></path>
          <path d="M16.519597,1.78609225 L16.519597,4.16849714 C16.519597,4.37918518 16.4063042,4.57359809 16.2229987,4.67746612 L13.8500775,6.02205627 L13.8500775,6.02205627 L11.5455783,3.50160463 L15.6556391,1.27188654 C15.9396271,1.11782237 16.2947385,1.22314641 16.4488027,1.50713439 C16.4952625,1.59277419 16.519597,1.68866181 16.519597,1.78609225 Z" id="路径-11备份" stroke="#1654E7" stroke-width="0.585" fill="#FFFFFF"></path>
          <path d="M10.8066381,2.32903844 L14.6411714,0.182427363 C14.8398989,0.0711776769 15.0851275,0.0853751025 15.2696887,0.21881516 L15.8849974,0.663690884 C16.1468188,0.852990947 16.2056089,1.21869712 16.0163088,1.48051847 C15.9674348,1.54811618 15.9046697,1.60448015 15.832224,1.64582915 L12.1258018,3.76130221 L12.1258018,3.76130221 L10.8066381,2.32903844 Z" id="路径-10备份" stroke="#1654E7" stroke-width="0.585" fill="#FFFFFF"></path>
          <path d="M0.2925,5.00232111 L3.73379982,6.09251805 L3.73379982,19.8463896 C3.73379982,19.9271613 3.70106064,20.0002863 3.64812855,20.0532184 C3.60661916,20.0947278 3.5526917,20.1238191 3.49239677,20.1344418 L3.49239677,20.1344418 L0.463467354,18.8077095 C0.411390828,18.7839213 0.368648989,18.7460334 0.338926282,18.6997795 C0.309203575,18.6535255 0.2925,18.5989054 0.2925,18.541653 L0.2925,18.541653 L0.2925,5.00232111 Z" id="矩形备份-19" stroke="#1654E7" stroke-width="0.585" fill="#488AF9"></path>
          <path d="M10.7520569,2.20547608 L13.9098065,5.65116539 L17.038609,3.86741221 L17.8529734,12.533397 L4.57147336,19.8294515 L3.75387566,6.38766249 L10.7520569,2.20547608 Z" id="矩形备份-17" stroke="#1654E7" stroke-width="0.585" fill="#0A5FF1"></path>
          <polyline id="路径-13" stroke="#7BB8FC" stroke-width="0.585" stroke-linecap="round" points="1.13948835 4.92413692 3.70367064 6.05420655 3.73182609 19.1944471"></polyline>
          <line x1="7.58217189" y1="3.93221584" x2="3.73182609" y2="6.04429747" id="路径-14" stroke="#7BB8FC" stroke-width="0.585" stroke-linecap="round"></line>
          <line x1="7.58217189" y1="6.89481518" x2="5.85661483" y2="7.950856" id="路径-14备份" stroke="#02E2DF" stroke-width="1.17" stroke-linecap="round"></line>
        </g>
      </g>
    </g>
  </g>
</svg>
