<?xml version="1.0" encoding="UTF-8"?>
<svg xmlns="http://www.w3.org/2000/svg" xmlns:xlink="http://www.w3.org/1999/xlink" width="60px" height="60px" viewBox="0 0 60 60" version="1.1">
  <title>系统</title>
  <defs>
    <polyline id="path-1" points="0.0161612037 1.15812825 0 10.0514708 8.3157752 8.89334253 8.33249369 0"></polyline>
    <polyline id="path-3" points="0.0161612037 1.15812825 0 10.0514708 8.3157752 8.89334253 8.33249369 0"></polyline>
    <polyline id="path-5" points="0.0161612037 1.15812825 0 10.0514708 8.3157752 8.89334253 8.33249369 0"></polyline>
    <polyline id="path-7" points="0.0161612037 1.15812825 0 10.0514708 8.3157752 8.89334253 8.33249369 0"></polyline>
  </defs>
  <g id="页面" stroke="none" stroke-width="1" fill="none" fill-rule="evenodd">
    <g id="图标" transform="translate(-346.000000, -310.000000)">
      <g id="编组" transform="translate(375.500000, 340.500000) scale(-1, 1) translate(-375.500000, -340.500000) translate(351.000000, 323.000000)">
        <g>
          <path d="M23.860624,1.61817634 L23.9843408,1.61817634 C24.2055821,1.61817634 24.4268234,1.63529698 24.6452783,1.65241761 L24.7545057,1.65241761 C24.9902364,1.67506104 25.2231806,1.70654092 25.4527812,1.74630498 L25.602133,1.77226207 C25.8350772,1.81478753 26.0646778,1.86338805 26.2887055,1.92303414 L26.3232571,1.92303414 C26.5417119,1.97991883 26.754594,2.04563999 26.9646897,2.11688393 L27.1051249,2.16217078 C27.3174497,2.23948978 27.5275454,2.3190179 27.7315109,2.41014387 L27.8407383,2.45874439 C28.050834,2.55263176 28.2575859,2.65204191 28.4587651,2.76028852 L25.4550103,1.16530788 C25.34021,1.10234811 25.2254098,1.04270202 25.1078231,0.985265048 L24.8375409,0.854375017 L24.7283134,0.803013106 C24.5237906,0.714648527 24.3142523,0.631806735 24.1013702,0.557801401 L23.9637213,0.512514554 C23.7508393,0.441270613 23.5373999,0.372788065 23.3195023,0.315903368 L23.2882945,0.315903368 C23.0553502,0.255704999 22.8279788,0.210418152 22.597821,0.167892699 L22.4484692,0.141935604 C22.2266706,0.101619265 21.9937263,0.0706916627 21.7501937,0.0480482395 L21.6409663,0.0480482395 C21.4219541,0.0176729157 21.2012701,0.00165683584 20.9800288,0 L20.856312,0 C20.6150085,0 20.3709186,0 20.123485,0.0171206371 L19.9657739,0.0171206371 C19.7099811,0.0342412741 19.4536309,0.0596460904 19.1944944,0.0938873645 C18.9348006,0.128680917 18.6656329,0.194402072 18.392007,0.250734491 L18.2198066,0.287737158 C17.9640138,0.344621856 17.7082209,0.410343011 17.4552145,0.487109738 L17.3287113,0.527426077 C17.0991107,0.595908625 16.8717393,0.675436746 16.6477116,0.757726259 L16.518422,0.806326777 C16.2709884,0.900214142 16.0296849,1.00569936 15.7911678,1.11394597 L15.7248512,1.14211218 L15.5526507,1.22771536 L15.3252793,1.33872336 L15.0583408,1.48121124 L14.8370995,1.60050343 L14.5696037,1.75735055 C14.5005007,1.79987601 14.4286112,1.84019234 14.3595081,1.88547919 C14.290405,1.93076604 14.1817348,1.99924858 14.0925696,2.05668556 L13.8913905,2.18757559 L13.8507088,2.2157418 L13.7788193,2.27870156 C13.587114,2.4095916 13.3954087,2.54600441 13.2037034,2.68904457 L13.0772002,2.78569333 C12.8732346,2.94806324 12.6748419,3.11319455 12.4825793,3.28384864 L12.4363249,3.32085131 L12.3532897,3.40148399 C12.2067243,3.53568769 12.0657317,3.66933912 11.9219527,3.80906561 L11.7954495,3.93388057 C11.624921,4.10508694 11.4582934,4.2818161 11.2950095,4.46406804 L11.2721609,4.48947286 C11.2465259,4.51542995 11.2264637,4.54359616 11.2036151,4.57010554 C11.0709818,4.71977304 10.9428067,4.87275422 10.8179754,5.02849679 L10.6914721,5.18534391 C10.5449067,5.37311864 10.4039142,5.56144565 10.2629216,5.75529544 C10.1141271,5.9629522 9.97536363,6.17778858 9.83715748,6.39317724 C9.80260594,6.44730055 9.7680544,6.50142385 9.73573199,6.55830855 C9.60644236,6.76927898 9.47938187,6.9830108 9.35900876,7.20171313 L9.35900876,7.21883377 C9.21522978,7.4866889 9.07145079,7.76006681 8.95107769,8.03951979 L8.88977657,8.17593261 C8.77218989,8.44378774 8.66017603,8.71164287 8.55652141,8.98502078 L8.5275427,9.06178751 C8.52196987,9.09161055 8.51249606,9.12032904 8.49912127,9.14739069 C8.40438318,9.40861848 8.31466064,9.6715031 8.23496919,9.93935823 C8.2310682,9.96752444 8.22326624,9.99569065 8.21212059,10.0216477 C8.14023109,10.2729345 8.07391443,10.5258781 8.01651429,10.7826877 L7.98196276,10.9306983 C7.92456262,11.2151218 7.87607901,11.4719314 7.83539736,11.7453093 L7.80976234,11.913202 C7.77242439,12.1981778 7.73787285,12.4831535 7.71781067,12.7681293 L7.4302527,12.9017807 L7.37842539,12.9271855 L7.05352947,13.0867941 L6.93036995,13.1492015 C6.78380455,13.2232069 6.64281198,13.3032873 6.49346017,13.3855768 L6.40986774,13.4341773 L6.06490963,13.6423863 L5.91834423,13.7362737 C5.82639256,13.7931584 5.7372273,13.8528045 5.64806203,13.9130029 C5.62465615,13.9262575 5.60292212,13.9417213 5.58174537,13.9582897 L5.52713165,13.9952924 C5.32316611,14.1377803 5.12142971,14.2802681 4.9263807,14.4376675 C4.89795927,14.4581019 4.87120969,14.480193 4.84557468,14.5033887 C4.64551013,14.6569222 4.45380481,14.8203966 4.27045874,14.9932598 L4.25318297,14.9932598 L4.21250132,15.0335762 C4.05200385,15.1788254 3.89373551,15.3185519 3.73825359,15.4809218 L3.67750976,15.5411202 C3.5197987,15.7007287 3.36710319,15.8630986 3.21496496,16.0309913 L3.16871048,16.0795919 L3.1257997,16.1309538 C2.98480713,16.2933237 2.83824173,16.4556936 2.7089521,16.6235863 C2.68888992,16.6495434 2.67161415,16.6777096 2.65155196,16.7009053 C2.52504875,16.8599615 2.40411836,17.0223315 2.28597439,17.1874628 L2.24585002,17.2388247 C2.24640731,17.2465566 2.24640731,17.2542885 2.24585002,17.2614681 C2.11600311,17.44372 1.99228631,17.6320471 1.87469962,17.8314196 L1.76268576,17.9485027 C1.64788549,18.1362774 1.53587163,18.3273658 1.4294306,18.5179019 L1.41215483,18.5466204 L1.38651982,18.5979823 C1.25945932,18.8310439 1.1429872,19.0679714 1.03264519,19.3098695 C1.02094224,19.3330652 1.01035387,19.3568132 1.00088006,19.3811134 C0.888866201,19.6263251 0.788555282,19.8737459 0.693259908,20.1250327 L0.693259908,20.145467 C0.686015231,20.1913062 0.67041131,20.2360407 0.647562712,20.2763571 L0.550038207,20.5613328 C0.532762438,20.6215312 0.512142971,20.6822818 0.494867201,20.7408234 C0.477591432,20.7999172 0.440253479,20.9203139 0.414061183,21.0257991 C0.387311605,21.1312844 0.379509644,21.1511664 0.362233875,21.2163353 L0.293130797,21.4781153 L0.241303489,21.6515308 C0.221241305,21.7398954 0.201179121,21.82826 0.183903352,21.9166245 C0.166627582,22.0049891 0.158268339,22.0475146 0.146565399,22.1132357 L0.103654617,22.3976592 C0.0980817877,22.4628281 0.0886079786,22.5274447 0.0746759065,22.591509 L0.0406816506,22.8764848 C0.043468065,22.93834 0.0373379533,23.0007475 0.0234058812,23.0614981 C0.00835924327,23.160356 0.000557282885,23.2603184 0,23.3602808 L0,23.9871171 C0,27.6017806 1.8429345,30.538246 4.67114514,32.0708192 L7.6743426,33.6889955 C4.84613196,32.1647065 2.9953955,29.2199569 3.00375475,25.6047411 L3.00375475,24.9751435 C3.00375475,24.8696583 3.0182441,24.7647254 3.02660335,24.6592401 C3.02660335,24.5984895 3.0410927,24.5366343 3.04722281,24.4769882 C3.05335292,24.4173421 3.067285,24.2858998 3.08121707,24.1920124 L3.10740936,23.9981626 C3.11521132,23.9026184 3.13025796,23.8070742 3.15310656,23.7137392 C3.17038233,23.6110153 3.17595516,23.5822968 3.19044451,23.517128 C3.20493387,23.4519591 3.22499605,23.3376374 3.24505824,23.2492728 C3.26512042,23.1614605 3.27403695,23.1183828 3.29131272,23.0559753 C3.30858849,22.9930156 3.3342235,22.8786939 3.35762938,22.7908816 L3.40945669,22.5997932 C3.4350917,22.5086672 3.46407041,22.4203026 3.49026271,22.3153697 C3.50530934,22.2540668 3.52481424,22.1944207 3.54766284,22.1358792 C3.56828231,22.0756808 3.61119309,21.9475521 3.64574463,21.8509034 C3.68029617,21.7542546 3.68029617,21.7481796 3.70035835,21.6973699 C3.79231003,21.4460832 3.89540736,21.1986623 4.00463481,20.9528984 C4.00463481,20.9302549 4.02525428,20.9070592 4.03639993,20.8816544 C4.14841379,20.6425178 4.26600048,20.4033811 4.3925037,20.1697673 L4.43318535,20.0891346 C4.53851181,19.8991508 4.65052567,19.7091669 4.76978421,19.5191831 L4.83833,19.4081751 C4.95647398,19.2204003 5.07963349,19.0348347 5.20613671,18.8382235 L5.26075043,18.7614568 C5.3788944,18.5963255 5.5026112,18.4339556 5.626328,18.2771085 L5.68707184,18.2003417 C5.82193429,18.032449 5.96014045,17.8673177 6.10391943,17.7049478 L6.1930847,17.6044331 C6.34187923,17.4393018 6.49736115,17.2736182 6.65562949,17.1140097 L6.71302963,17.057125 C6.86851155,16.9035916 7.02622261,16.7528195 7.19006378,16.6070179 L7.24746391,16.555656 C7.43749738,16.3850019 7.63310367,16.222632 7.82257985,16.0657849 L7.90004217,16.000616 C8.09843488,15.8492917 8.299614,15.701281 8.50357954,15.5582409 L8.62172351,15.4776082 L8.89479212,15.2981176 L9.04135752,15.2042303 C9.15225681,15.1340909 9.26761437,15.0656083 9.38631562,14.9993349 L9.46990806,14.947973 C9.61368704,14.8651312 9.75746603,14.7883645 9.90681784,14.7115977 L10.0305346,14.648638 L10.3520869,14.4895817 L10.7026178,14.3299732 C10.7232373,14.0449974 10.7544451,13.7600217 10.7951268,13.4755982 C10.7984705,13.4187135 10.8057151,13.3629334 10.8179754,13.3071532 C10.8580997,13.0227297 10.909927,12.7642633 10.9673272,12.4953037 C10.9729,12.4450463 10.9846029,12.3953412 11.0013214,12.347293 C11.0592788,12.0910357 11.1233664,11.8347784 11.1969277,11.5829394 L11.2197763,11.5000976 C11.2977959,11.2327947 11.3864039,10.9704624 11.4816993,10.7086823 L11.5424431,10.5490738 C11.6460977,10.2640981 11.7553252,10.0061839 11.8762556,9.73722425 L11.9369994,9.60909562 C12.0635026,9.32411985 12.1989223,9.05902612 12.3454877,8.79117099 L12.3454877,8.77349807 C12.4630744,8.55424346 12.5890204,8.34051164 12.7188673,8.13009349 L12.8225219,7.96496218 C12.9573843,7.74846896 13.1100799,7.53473714 13.2449423,7.3265281 C13.3825912,7.13654426 13.5263702,6.94656041 13.6762793,6.75712885 C13.7169609,6.70576694 13.7593144,6.65440503 13.7994388,6.60028172 C13.925942,6.44619599 14.0557889,6.29266254 14.1850785,6.14189047 L14.2798166,6.03640526 C14.4369704,5.85083964 14.603598,5.67411049 14.7796994,5.50677007 C14.820381,5.46369233 14.8632918,5.42392827 14.9062026,5.38140282 C15.0471952,5.24443772 15.1937606,5.09642706 15.3347531,4.9765826 L15.4640428,4.85729042 C15.6596491,4.68663632 15.8574845,4.52150502 16.0620073,4.35858283 L16.1851668,4.26193407 C16.3690702,4.12220758 16.5563172,3.9769583 16.7602828,3.85159106 C16.7976207,3.82342485 16.8349587,3.79470636 16.875083,3.76930154 L17.0734757,3.63785923 C17.162641,3.58097454 17.2518063,3.52132845 17.3409715,3.46720514 L17.5532963,3.3390765 C17.6424616,3.28771459 17.7288404,3.23359129 17.8207921,3.18499077 L18.039247,3.06238492 L18.3095292,2.91989704 L18.5363433,2.80888903 L18.772074,2.69788103 C19.0139347,2.58687303 19.2552382,2.48470149 19.4993281,2.38750045 L19.629175,2.3422136 C19.8559892,2.25661042 20.0828033,2.17984369 20.3129611,2.10859975 L20.4366779,2.06828341 C20.6896844,1.99427808 20.9454772,1.92855692 21.2040565,1.86891083 L21.3734705,1.83190816 C21.640409,1.77723258 21.9079048,1.72642295 22.178187,1.68942028 C22.4484692,1.65241761 22.6925591,1.62922191 22.9455655,1.6087876 L23.1066202,1.6087876 C23.3679859,1.62314685 23.6126331,1.61486267 23.8572803,1.61762406 L23.860624,1.61817634 Z M34.0354949,6.94158991 L34.1675709,6.94158991 C34.3943851,6.95594915 34.6217565,6.97859257 34.8457842,7.00731106 L34.9271475,7.00731106 C35.1450451,7.03768639 35.3607136,7.07468905 35.5735957,7.11831906 L35.6426987,7.13267831 C35.8550235,7.17520376 36.0623327,7.22656567 36.2690847,7.28345037 L36.4412851,7.33481228 C36.6368914,7.39169698 36.8269249,7.45134307 37.016401,7.51982562 L37.0771449,7.53970765 C37.2838968,7.61371298 37.4856332,7.69931617 37.6834687,7.78491935 L37.8389506,7.85616329 C38.0317705,7.94397559 38.2212466,8.03565384 38.4140665,8.14058678 L35.4047389,6.55168121 C35.2838086,6.48651233 35.1612063,6.42355257 35.0335885,6.36114508 L34.8385395,6.2727805 L34.6802712,6.20153656 C34.4818785,6.11317199 34.2806994,6.03088247 34.0767338,5.95632486 L34.012089,5.93368144 C33.8220555,5.86796028 33.6325794,5.8055528 33.4369731,5.7486681 L33.261429,5.70006758 L33.1009315,5.65478074 C32.948236,5.6144644 32.7927541,5.5807754 32.6378294,5.54653413 L32.5692836,5.54653413 C32.3564016,5.500695 32.1379467,5.46590145 31.9194918,5.43552613 L31.8381285,5.43552613 C31.6152153,5.40404624 31.3872866,5.38416421 31.1599152,5.36704358 L31.0306256,5.36704358 C30.8032542,5.35268433 30.5736536,5.34716155 30.3407094,5.34716155 L30.2259091,5.34716155 C29.9801473,5.34219104 29.7343856,5.35268433 29.4902957,5.37864143 L32.4934931,6.99626549 C32.7409268,6.97638346 32.9850167,6.967547 33.2263201,6.96478561 L33.3444641,6.96478561 C33.5723928,6.9288875 33.8042225,6.9211556 34.0343803,6.94214219 L34.0354949,6.94158991 Z" id="Fill-1" fill="#488AF9"></path>
          <path d="M23.860624,1.61817634 L23.9843408,1.61817634 C24.2055821,1.61817634 24.4268234,1.63529698 24.6452783,1.65241761 L24.7545057,1.65241761 C24.9902364,1.67506104 25.2231806,1.70654092 25.4527812,1.74630498 L25.602133,1.77226207 C25.8350772,1.81478753 26.0646778,1.86338805 26.2887055,1.92303414 L26.3232571,1.92303414 C26.5417119,1.97991883 26.754594,2.04563999 26.9646897,2.11688393 L27.1051249,2.16217078 C27.3174497,2.23948978 27.5275454,2.3190179 27.7315109,2.41014387 L27.8407383,2.45874439 C28.050834,2.55263176 28.2575859,2.65204191 28.4587651,2.76028852 L25.4550103,1.16530788 C25.34021,1.10234811 25.2254098,1.04270202 25.1078231,0.985265048 L24.8375409,0.854375017 L24.7283134,0.803013106 C24.5237906,0.714648527 24.3142523,0.631806735 24.1013702,0.557801401 L23.9637213,0.512514554 C23.7508393,0.441270613 23.5373999,0.372788065 23.3195023,0.315903368 L23.2882945,0.315903368 C23.0553502,0.255704999 22.8279788,0.210418152 22.597821,0.167892699 L22.4484692,0.141935604 C22.2266706,0.101619265 21.9937263,0.0706916627 21.7501937,0.0480482395 L21.6409663,0.0480482395 C21.4219541,0.0176729157 21.2012701,0.00165683584 20.9800288,0 L20.856312,0 C20.6150085,0 20.3709186,0 20.123485,0.0171206371 L19.9657739,0.0171206371 C19.7099811,0.0342412741 19.4536309,0.0596460904 19.1944944,0.0938873645 C18.9348006,0.128680917 18.6656329,0.194402072 18.392007,0.250734491 L18.2198066,0.287737158 C17.9640138,0.344621856 17.7082209,0.410343011 17.4552145,0.487109738 L17.3287113,0.527426077 C17.0991107,0.595908625 16.8717393,0.675436746 16.6477116,0.757726259 L16.518422,0.806326777 C16.2709884,0.900214142 16.0296849,1.00569936 15.7911678,1.11394597 L15.7248512,1.14211218 L15.5526507,1.22771536 L15.3252793,1.33872336 L15.0583408,1.48121124 L14.8370995,1.60050343 L14.5696037,1.75735055 C14.5005007,1.79987601 14.4286112,1.84019234 14.3595081,1.88547919 C14.290405,1.93076604 14.1817348,1.99924858 14.0925696,2.05668556 L13.8913905,2.18757559 L13.8507088,2.2157418 L13.7788193,2.27870156 C13.587114,2.4095916 13.3954087,2.54600441 13.2037034,2.68904457 L13.0772002,2.78569333 C12.8732346,2.94806324 12.6748419,3.11319455 12.4825793,3.28384864 L12.4363249,3.32085131 L12.3532897,3.40148399 C12.2067243,3.53568769 12.0657317,3.66933912 11.9219527,3.80906561 L11.7954495,3.93388057 C11.624921,4.10508694 11.4582934,4.2818161 11.2950095,4.46406804 L11.2721609,4.48947286 C11.2465259,4.51542995 11.2264637,4.54359616 11.2036151,4.57010554 C11.0709818,4.71977304 10.9428067,4.87275422 10.8179754,5.02849679 L10.6914721,5.18534391 C10.5449067,5.37311864 10.4039142,5.56144565 10.2629216,5.75529544 C10.1141271,5.9629522 9.97536363,6.17778858 9.83715748,6.39317724 C9.80260594,6.44730055 9.7680544,6.50142385 9.73573199,6.55830855 C9.60644236,6.76927898 9.47938187,6.9830108 9.35900876,7.20171313 L9.35900876,7.21883377 C9.21522978,7.4866889 9.07145079,7.76006681 8.95107769,8.03951979 L8.88977657,8.17593261 C8.77218989,8.44378774 8.66017603,8.71164287 8.55652141,8.98502078 L8.5275427,9.06178751 C8.52196987,9.09161055 8.51249606,9.12032904 8.49912127,9.14739069 C8.40438318,9.40861848 8.31466064,9.6715031 8.23496919,9.93935823 C8.2310682,9.96752444 8.22326624,9.99569065 8.21212059,10.0216477 C8.14023109,10.2729345 8.07391443,10.5258781 8.01651429,10.7826877 L7.98196276,10.9306983 C7.92456262,11.2151218 7.87607901,11.4719314 7.83539736,11.7453093 L7.80976234,11.913202 C7.77242439,12.1981778 7.73787285,12.4831535 7.71781067,12.7681293 L7.4302527,12.9017807 L7.37842539,12.9271855 L7.05352947,13.0867941 L6.93036995,13.1492015 C6.78380455,13.2232069 6.64281198,13.3032873 6.49346017,13.3855768 L6.40986774,13.4341773 L6.06490963,13.6423863 L5.91834423,13.7362737 C5.82639256,13.7931584 5.7372273,13.8528045 5.64806203,13.9130029 C5.62465615,13.9262575 5.60292212,13.9417213 5.58174537,13.9582897 L5.52713165,13.9952924 C5.32316611,14.1377803 5.12142971,14.2802681 4.9263807,14.4376675 C4.89795927,14.4581019 4.87120969,14.480193 4.84557468,14.5033887 C4.64551013,14.6569222 4.45380481,14.8203966 4.27045874,14.9932598 L4.25318297,14.9932598 L4.21250132,15.0335762 C4.05200385,15.1788254 3.89373551,15.3185519 3.73825359,15.4809218 L3.67750976,15.5411202 C3.5197987,15.7007287 3.36710319,15.8630986 3.21496496,16.0309913 L3.16871048,16.0795919 L3.1257997,16.1309538 C2.98480713,16.2933237 2.83824173,16.4556936 2.7089521,16.6235863 C2.68888992,16.6495434 2.67161415,16.6777096 2.65155196,16.7009053 C2.52504875,16.8599615 2.40411836,17.0223315 2.28597439,17.1874628 L2.24585002,17.2388247 C2.24640731,17.2465566 2.24640731,17.2542885 2.24585002,17.2614681 C2.11600311,17.44372 1.99228631,17.6320471 1.87469962,17.8314196 L1.76268576,17.9485027 C1.64788549,18.1362774 1.53587163,18.3273658 1.4294306,18.5179019 L1.41215483,18.5466204 L1.38651982,18.5979823 C1.25945932,18.8310439 1.1429872,19.0679714 1.03264519,19.3098695 C1.02094224,19.3330652 1.01035387,19.3568132 1.00088006,19.3811134 C0.888866201,19.6263251 0.788555282,19.8737459 0.693259908,20.1250327 L0.693259908,20.145467 C0.686015231,20.1913062 0.67041131,20.2360407 0.647562712,20.2763571 L0.550038207,20.5613328 C0.532762438,20.6215312 0.512142971,20.6822818 0.494867201,20.7408234 C0.477591432,20.7999172 0.440253479,20.9203139 0.414061183,21.0257991 C0.387311605,21.1312844 0.379509644,21.1511664 0.362233875,21.2163353 L0.293130797,21.4781153 L0.241303489,21.6515308 C0.221241305,21.7398954 0.201179121,21.82826 0.183903352,21.9166245 C0.166627582,22.0049891 0.158268339,22.0475146 0.146565399,22.1132357 L0.103654617,22.3976592 C0.0980817877,22.4628281 0.0886079786,22.5274447 0.0746759065,22.591509 L0.0406816506,22.8764848 C0.043468065,22.93834 0.0373379533,23.0007475 0.0234058812,23.0614981 C0.00835924327,23.160356 0.000557282885,23.2603184 0,23.3602808 L0,23.9871171 C0,27.6017806 1.8429345,30.538246 4.67114514,32.0708192 L7.6743426,33.6889955 C4.84613196,32.1647065 2.9953955,29.2199569 3.00375475,25.6047411 L3.00375475,24.9751435 C3.00375475,24.8696583 3.0182441,24.7647254 3.02660335,24.6592401 C3.02660335,24.5984895 3.0410927,24.5366343 3.04722281,24.4769882 C3.05335292,24.4173421 3.067285,24.2858998 3.08121707,24.1920124 L3.10740936,23.9981626 C3.11521132,23.9026184 3.13025796,23.8070742 3.15310656,23.7137392 C3.17038233,23.6110153 3.17595516,23.5822968 3.19044451,23.517128 C3.20493387,23.4519591 3.22499605,23.3376374 3.24505824,23.2492728 C3.26512042,23.1614605 3.27403695,23.1183828 3.29131272,23.0559753 C3.30858849,22.9930156 3.3342235,22.8786939 3.35762938,22.7908816 L3.40945669,22.5997932 C3.4350917,22.5086672 3.46407041,22.4203026 3.49026271,22.3153697 C3.50530934,22.2540668 3.52481424,22.1944207 3.54766284,22.1358792 C3.56828231,22.0756808 3.61119309,21.9475521 3.64574463,21.8509034 C3.68029617,21.7542546 3.68029617,21.7481796 3.70035835,21.6973699 C3.79231003,21.4460832 3.89540736,21.1986623 4.00463481,20.9528984 C4.00463481,20.9302549 4.02525428,20.9070592 4.03639993,20.8816544 C4.14841379,20.6425178 4.26600048,20.4033811 4.3925037,20.1697673 L4.43318535,20.0891346 C4.53851181,19.8991508 4.65052567,19.7091669 4.76978421,19.5191831 L4.83833,19.4081751 C4.95647398,19.2204003 5.07963349,19.0348347 5.20613671,18.8382235 L5.26075043,18.7614568 C5.3788944,18.5963255 5.5026112,18.4339556 5.626328,18.2771085 L5.68707184,18.2003417 C5.82193429,18.032449 5.96014045,17.8673177 6.10391943,17.7049478 L6.1930847,17.6044331 C6.34187923,17.4393018 6.49736115,17.2736182 6.65562949,17.1140097 L6.71302963,17.057125 C6.86851155,16.9035916 7.02622261,16.7528195 7.19006378,16.6070179 L7.24746391,16.555656 C7.43749738,16.3850019 7.63310367,16.222632 7.82257985,16.0657849 L7.90004217,16.000616 C8.09843488,15.8492917 8.299614,15.701281 8.50357954,15.5582409 L8.62172351,15.4776082 L8.89479212,15.2981176 L9.04135752,15.2042303 C9.15225681,15.1340909 9.26761437,15.0656083 9.38631562,14.9993349 L9.46990806,14.947973 C9.61368704,14.8651312 9.75746603,14.7883645 9.90681784,14.7115977 L10.0305346,14.648638 L10.3520869,14.4895817 L10.7026178,14.3299732 C10.7232373,14.0449974 10.7544451,13.7600217 10.7951268,13.4755982 C10.7984705,13.4187135 10.8057151,13.3629334 10.8179754,13.3071532 C10.8580997,13.0227297 10.909927,12.7642633 10.9673272,12.4953037 C10.9729,12.4450463 10.9846029,12.3953412 11.0013214,12.347293 C11.0592788,12.0910357 11.1233664,11.8347784 11.1969277,11.5829394 L11.2197763,11.5000976 C11.2977959,11.2327947 11.3864039,10.9704624 11.4816993,10.7086823 L11.5424431,10.5490738 C11.6460977,10.2640981 11.7553252,10.0061839 11.8762556,9.73722425 L11.9369994,9.60909562 C12.0635026,9.32411985 12.1989223,9.05902612 12.3454877,8.79117099 L12.3454877,8.77349807 C12.4630744,8.55424346 12.5890204,8.34051164 12.7188673,8.13009349 L12.8225219,7.96496218 C12.9573843,7.74846896 13.1100799,7.53473714 13.2449423,7.3265281 C13.3825912,7.13654426 13.5263702,6.94656041 13.6762793,6.75712885 C13.7169609,6.70576694 13.7593144,6.65440503 13.7994388,6.60028172 C13.925942,6.44619599 14.0557889,6.29266254 14.1850785,6.14189047 L14.2798166,6.03640526 C14.4369704,5.85083964 14.603598,5.67411049 14.7796994,5.50677007 C14.820381,5.46369233 14.8632918,5.42392827 14.9062026,5.38140282 C15.0471952,5.24443772 15.1937606,5.09642706 15.3347531,4.9765826 L15.4640428,4.85729042 C15.6596491,4.68663632 15.8574845,4.52150502 16.0620073,4.35858283 L16.1851668,4.26193407 C16.3690702,4.12220758 16.5563172,3.9769583 16.7602828,3.85159106 C16.7976207,3.82342485 16.8349587,3.79470636 16.875083,3.76930154 L17.0734757,3.63785923 C17.162641,3.58097454 17.2518063,3.52132845 17.3409715,3.46720514 L17.5532963,3.3390765 C17.6424616,3.28771459 17.7288404,3.23359129 17.8207921,3.18499077 L18.039247,3.06238492 L18.3095292,2.91989704 L18.5363433,2.80888903 L18.772074,2.69788103 C19.0139347,2.58687303 19.2552382,2.48470149 19.4993281,2.38750045 L19.629175,2.3422136 C19.8559892,2.25661042 20.0828033,2.17984369 20.3129611,2.10859975 L20.4366779,2.06828341 C20.6896844,1.99427808 20.9454772,1.92855692 21.2040565,1.86891083 L21.3734705,1.83190816 C21.640409,1.77723258 21.9079048,1.72642295 22.178187,1.68942028 C22.4484692,1.65241761 22.6925591,1.62922191 22.9455655,1.6087876 L23.1066202,1.6087876 C23.3679859,1.62314685 23.6126331,1.61486267 23.8572803,1.61762406 L23.860624,1.61817634 Z M34.0354949,6.94158991 L34.1675709,6.94158991 C34.3943851,6.95594915 34.6217565,6.97859257 34.8457842,7.00731106 L34.9271475,7.00731106 C35.1450451,7.03768639 35.3607136,7.07468905 35.5735957,7.11831906 L35.6426987,7.13267831 C35.8550235,7.17520376 36.0623327,7.22656567 36.2690847,7.28345037 L36.4412851,7.33481228 C36.6368914,7.39169698 36.8269249,7.45134307 37.016401,7.51982562 L37.0771449,7.53970765 C37.2838968,7.61371298 37.4856332,7.69931617 37.6834687,7.78491935 L37.8389506,7.85616329 C38.0317705,7.94397559 38.2212466,8.03565384 38.4140665,8.14058678 L35.4047389,6.55168121 C35.2838086,6.48651233 35.1612063,6.42355257 35.0335885,6.36114508 L34.8385395,6.2727805 L34.6802712,6.20153656 C34.4818785,6.11317199 34.2806994,6.03088247 34.0767338,5.95632486 L34.012089,5.93368144 C33.8220555,5.86796028 33.6325794,5.8055528 33.4369731,5.7486681 L33.261429,5.70006758 L33.1009315,5.65478074 C32.948236,5.6144644 32.7927541,5.5807754 32.6378294,5.54653413 L32.5692836,5.54653413 C32.3564016,5.500695 32.1379467,5.46590145 31.9194918,5.43552613 L31.8381285,5.43552613 C31.6152153,5.40404624 31.3872866,5.38416421 31.1599152,5.36704358 L31.0306256,5.36704358 C30.8032542,5.35268433 30.5736536,5.34716155 30.3407094,5.34716155 L30.2259091,5.34716155 C29.9801473,5.34219104 29.7343856,5.35268433 29.4902957,5.37864143 L32.4934931,6.99626549 C32.7409268,6.97638346 32.9850167,6.967547 33.2263201,6.96478561 L33.3444641,6.96478561 C33.5723928,6.9288875 33.8042225,6.9211556 34.0343803,6.94214219 L34.0354949,6.94158991 Z" id="Stroke-3" stroke="#1654E7" stroke-width="1.04936367"></path>
          <path d="M21.6413006,0.765402932 C26.3118885,0.111505052 30.3583195,2.36259269 32.293763,6.17441968 C38.8763884,5.66466652 44.0853115,10.5937532 44.0736283,17.515461 C44.0585619,24.7105468 38.7214638,31.2837669 32.1544422,32.1972357 L12.3385774,34.9608379 C6.4397381,35.4501568 1.77249394,31.3014398 1.78417492,25.4644071 C1.78417492,20.5143339 5.16188845,15.8652525 9.77897714,13.8555107 C10.222017,7.40434416 15.3623944,1.63192808 21.6413006,0.765402932" id="Fill-5" fill="#0A5FF1"></path>
          <path d="M31.7985057,5.3066243 L31.7985057,14.555082 C31.7990629,14.6854197 31.8408592,14.8118915 31.9172069,14.9173767 L39.8735347,25.1477858 L39.8735347,27.9881547 C40.1488324,27.703179 40.4057398,27.4143372 40.6431477,27.1216296 L40.6431477,25.0588689 C40.6436996,24.9290835 40.6007888,24.8026117 40.5216547,24.6998878 L32.5569677,14.4694788 L32.5569677,6.16376071 L32.3011748,6.16376071 C32.1434638,5.87547127 31.9768362,5.58662955 31.7985057,5.3066243 Z M22.3408578,0.689575078 C22.1101427,0.710561666 21.8771985,0.733757367 21.6420251,0.766341806 C21.5417142,0.773521428 21.4425178,0.790642065 21.3449933,0.816046881 L22.1892769,33.5888122 L23.1884851,33.4474288 L22.3408578,0.689575078 Z M39.6561943,16.8978479 C39.6573089,17.0127218 39.700777,17.1237298 39.7782393,17.2098853 L43.5566172,21.4143824 C43.6346368,21.1194656 43.6998389,20.842774 43.7622546,20.5539323 L40.4085262,16.8238425 L40.4085262,8.81580261 C40.1666655,8.60096623 39.9158882,8.39662315 39.6561943,8.20277335 L39.6561943,16.8978479 Z M24.7722831,13.8862726 C24.7722831,14.0226854 24.813522,14.1563368 24.8909843,14.2695539 L32.8473121,25.1709815 L32.8473121,32.0683891 C33.0992039,32.0153704 33.3499812,31.9568288 33.5996439,31.8888986 L33.5996439,25.0826169 C33.5996439,24.9456518 33.5572904,24.8120004 33.477599,24.6998878 L25.5246149,13.797908 L25.5006518,0.89612728 C25.2543328,0.843108533 25.0041127,0.798926244 24.7516636,0.760266741 L24.7722831,13.8862726 Z M6.01246931,23.3650304 L13.3529995,15.1857842 C13.4232171,15.1034946 13.4622269,14.999114 13.4627842,14.8914197 L13.4806172,5.27127847 C13.2393138,5.53968587 13.0074841,5.81637746 12.7873573,6.1019055 L12.7700816,14.8229371 L5.43512424,23.0110198 C5.36044834,23.0911002 5.3192094,23.1965855 5.3192094,23.3059366 L5.30137635,32.9846193 C5.52484679,33.1585871 5.75333277,33.3237184 5.99463626,33.4766996 L6.01246931,23.3650304 Z M10.3915982,26.2020857 L10.3765516,34.9501789 C10.6234279,34.9739269 10.875877,34.9882862 11.1288835,34.9943612 L11.1288835,26.2910025 L19.0969142,15.3039718 C19.1738192,15.1885455 19.2150581,15.0532373 19.2156154,14.9146154 L19.2362349,1.3760574 L19.2362349,1.35507081 C18.9826712,1.44398767 18.7330084,1.54174098 18.4872467,1.64998759 L18.4660699,14.8262508 L10.5130859,25.8165952 C10.4339517,25.9298123 10.3915982,26.0645683 10.3915982,26.2020857 L10.3915982,26.2020857 Z" id="Fill-7" fill="#4EB5F4"></path>
          <path d="M40.3779314,17.7262106 L40.4314306,17.7262106 L40.7290196,17.7411221 L40.7763887,17.7411221 C40.8761423,17.7460926 40.9758959,17.758795 41.0734204,17.7792293 L41.1391798,17.7792293 C41.2372616,17.7969022 41.3381298,17.8173365 41.4367689,17.8438459 C41.5287206,17.8703553 41.6206722,17.8968646 41.7131812,17.9294491 L41.7722532,17.947122 C41.8647621,17.9797064 41.9539274,18.0145 42.0430927,18.0531595 L42.091019,18.0769075 C42.1801842,18.1150147 42.2693495,18.1597493 42.3551711,18.2061407 L41.0650612,17.5434063 L40.9162667,17.4666396 L40.8003518,17.4136209 L40.7529828,17.3931865 C40.6638175,17.354527 40.5746523,17.3191812 40.4827006,17.2865968 L40.4230713,17.2661625 C40.3339061,17.2368917 40.2413971,17.2070687 40.1461017,17.1827684 L40.1316124,17.1827684 C40.036317,17.1590204 39.9382352,17.1385861 39.8340233,17.1203609 L39.7682639,17.1203609 C39.6707394,17.102688 39.5693139,17.0877765 39.4712321,17.07894 L39.4238631,17.07894 C39.3313541,17.07894 39.2360588,17.0640285 39.126274,17.0640285 L38.7127701,17.0640285 C38.6018708,17.0667899 38.4920861,17.07894 38.3828587,17.0993743 C38.2669438,17.1142858 38.1515863,17.1352724 38.0379006,17.1617818 L37.9637819,17.1766933 C37.8534399,17.2032027 37.7408688,17.2297121 37.6338705,17.2622965 L37.5803713,17.2799694 C37.4822895,17.3092402 37.3842077,17.344586 37.2827823,17.3799319 L37.2264967,17.4003662 C37.1233994,17.4423393 37.0191875,17.4865216 36.913861,17.5334653 L36.884325,17.5334653 L36.8129928,17.5688111 L36.714911,17.6190685 L36.5989962,17.681476 L36.5037008,17.7311811 L36.3877859,17.7991113 L36.2986207,17.8521301 L36.1827058,17.9288968 L36.096327,17.9846769 L36.0784939,17.9846769 L36.0461715,18.0084249 C35.9664801,18.0653096 35.8862314,18.1238512 35.804868,18.1851541 L35.7513689,18.226575 C35.6622036,18.2945052 35.5791685,18.3679583 35.4961333,18.4414114 L35.4749566,18.4414114 L35.4392905,18.4773095 L35.2520434,18.650725 L35.1985443,18.7037437 C35.1244256,18.7805104 35.0530934,18.8539635 34.9845476,18.932387 L34.9544544,18.9682852 C34.8981688,19.0306926 34.8446696,19.0975184 34.7911705,19.162135 L34.7348849,19.2300652 C34.6719119,19.312907 34.608939,19.3918829 34.5532107,19.4741724 C34.4902377,19.5630892 34.4283793,19.6542152 34.3720938,19.7486548 L34.3275111,19.8193465 C34.2706683,19.9104725 34.2177264,20.0015984 34.1670137,20.0960381 C34.1040407,20.210912 34.0449687,20.3290997 33.9914695,20.4494964 L33.96472,20.5058288 C33.9140072,20.6207028 33.8666382,20.7344722 33.8220555,20.8532121 L33.8070089,20.8857965 C33.8081235,20.8984989 33.8081235,20.9112013 33.8070089,20.9239037 C33.7652127,21.0360163 33.7267602,21.1481289 33.6938805,21.2630028 L33.6938805,21.2983486 C33.6615581,21.4071475 33.6348085,21.5164987 33.6075016,21.628059 C33.6091735,21.6490456 33.6091735,21.6700321 33.6075016,21.6904665 C33.5840958,21.8086541 33.5634763,21.923528 33.5445287,22.0411634 L33.5445287,22.1146164 C33.5272529,22.2355654 33.5122063,22.3565145 33.5027325,22.4802249 L33.3751147,22.5393187 L33.3539379,22.5393187 L33.2140599,22.6100103 L33.1605608,22.6365197 C33.0953587,22.6691042 33.032943,22.7011363 32.9733137,22.7364821 L32.9348612,22.7602301 C32.8869349,22.7867395 32.8362221,22.8160103 32.7888531,22.8485947 L32.723651,22.8900156 L32.6077361,22.9667823 L32.5809866,22.9844552 L32.5570234,23.0021282 C32.4678581,23.061222 32.3814793,23.1269431 32.2984441,23.1904552 L32.262778,23.2169645 C32.1763992,23.2848948 32.093364,23.3555865 32.0108862,23.4290395 L31.9930531,23.4467124 C31.9217209,23.5096722 31.8531751,23.5737365 31.787973,23.6383531 L31.7606662,23.6648625 C31.6926776,23.7327928 31.6269183,23.8034844 31.5650599,23.8741761 L31.5438831,23.8979241 L31.5260501,23.9183584 C31.4630771,23.9862887 31.4040051,24.060294 31.3443758,24.1309856 C31.3376884,24.1420312 31.3293292,24.1530768 31.32097,24.1630178 C31.2674708,24.2342617 31.2139716,24.3016397 31.1632589,24.3723314 L31.1454259,24.3960794 C31.0891403,24.4756075 31.0384275,24.5551356 30.9849284,24.6374251 L30.9553924,24.6843688 C30.9074661,24.7644492 30.8573106,24.8467387 30.8121707,24.9290282 L30.8121707,24.9500148 C30.7586715,25.0499773 30.7051724,25.1532534 30.6578033,25.2443793 L30.6578033,25.2769638 C30.6104343,25.3807922 30.5658517,25.4890388 30.5273991,25.5950763 L30.5095661,25.6541701 C30.5000923,25.6961432 30.4861602,25.7364596 30.4672126,25.7745668 L30.440463,25.8513335 C30.4348902,25.8910976 30.4243018,25.9297571 30.4081406,25.9662075 C30.3958804,26.004867 30.4081406,26.0225399 30.3841774,26.0496016 L30.3574279,26.1644755 C30.3490686,26.1920894 30.3423812,26.2197034 30.3368084,26.2478696 C30.3329074,26.2865291 30.3251054,26.3251886 30.3128452,26.3627435 C30.3067151,26.3909097 30.3016996,26.4190759 30.2977986,26.4477944 C30.3011423,26.4875585 30.2938976,26.5267703 30.2771791,26.5626684 C30.2560024,26.6013279 30.2771791,26.6190008 30.2771791,26.6482716 L30.2771791,27.2552258 C30.2392839,28.6961207 31.0144644,30.0376054 32.2867412,30.7351333 L33.5801948,31.4332135 C32.3056888,30.7362379 31.5305083,29.392544 31.5700754,27.9505445 L31.5700754,27.2601963 L31.5879085,27.1420087 L31.6057415,27.0591669 C31.6023978,27.0194028 31.6107571,26.9796387 31.6297047,26.9442929 L31.6475377,26.8586897 C31.6531106,26.8205825 31.6631417,26.7830276 31.6770737,26.7465772 C31.6865475,26.7112313 31.6921204,26.690797 31.7010369,26.6637354 C31.7099534,26.6361214 31.7222136,26.583655 31.7333593,26.5455478 C31.7433904,26.5206952 31.7511923,26.4952904 31.7573225,26.468781 L31.8019051,26.3483843 L31.8230818,26.2837677 C31.8648781,26.1744165 31.9089034,26.068379 31.9568297,25.9623415 L31.9568297,25.9330708 C32.0014124,25.8314515 32.0532397,25.7331459 32.1111971,25.638154 L32.1290301,25.6028082 C32.1747273,25.5199664 32.2220964,25.4371246 32.2716946,25.3553873 L32.3017878,25.3084437 C32.3525006,25.2289155 32.406557,25.1460737 32.4622853,25.0698593 C32.4684154,25.0577092 32.4762174,25.0466636 32.4862485,25.0372749 C32.5364039,24.9665832 32.5871167,24.8958915 32.6406158,24.8279613 L32.6673654,24.7953768 C32.723651,24.7219238 32.7860667,24.6512321 32.8456959,24.5805404 L32.8847057,24.5385673 C32.9499078,24.4651142 33.0151099,24.3944225 33.0836557,24.3264923 L33.1104053,24.3027443 C33.1756074,24.2359186 33.2441532,24.171302 33.3154854,24.1083422 L33.3394486,24.0879079 C33.4196973,24.0139026 33.5060762,23.9432109 33.5913404,23.8758329 L33.6242201,23.8487713 C33.710599,23.7813933 33.7964205,23.7195381 33.8855858,23.6576829 L33.9362985,23.622337 L34.0522134,23.5455703 L34.1151863,23.5041494 L34.2639809,23.4157848 L34.299647,23.3947983 C34.3626199,23.3594524 34.4244783,23.3241066 34.4896804,23.2909699 L34.5431796,23.2639082 L34.6802712,23.1965302 L34.8318521,23.1286 C34.837425,23.0054418 34.8502425,22.8822837 34.8703047,22.7602301 L34.8703047,22.6867771 C34.8881377,22.5719031 34.9093145,22.4542678 34.9332776,22.3393938 C34.9343922,22.3173027 34.9343922,22.2957638 34.9332776,22.2742249 C34.9600272,22.1654261 34.9867768,22.0533135 35.0196565,21.947276 L35.0196565,21.9152438 C35.0525362,21.8003699 35.0909887,21.6866005 35.1327849,21.5733834 C35.1422587,21.5501877 35.1500607,21.526992 35.1561908,21.5026917 C35.2013307,21.3878178 35.2481424,21.2701824 35.3021989,21.1553085 L35.3289485,21.0989761 C35.3824476,20.9813407 35.4420769,20.8637054 35.5044926,20.7488314 C35.5579917,20.6571532 35.6114909,20.5627135 35.6677765,20.4715875 C35.6677765,20.4478396 35.694526,20.4246439 35.7095727,20.4008959 C35.7692019,20.3097699 35.8282739,20.2186439 35.8940333,20.1269657 C35.9531053,20.0435716 36.0160783,19.9618344 36.0784939,19.8828585 L36.1319931,19.8149283 C36.1854923,19.746998 36.2417778,19.6823814 36.2980634,19.6177648 L36.3404169,19.5702688 C36.4089627,19.4935021 36.4797376,19.4172877 36.5544135,19.3432823 L36.6079127,19.2902636 L36.7951597,19.1135344 L36.8486589,19.0632771 C36.9328086,18.989824 37.0180729,18.9191324 37.1072382,18.8484407 L37.1607373,18.8070198 C37.2381996,18.747926 37.3212348,18.6860708 37.4014835,18.6302906 L37.4521963,18.5949448 L37.5385751,18.5386124 L37.6511462,18.4651593 L37.7436552,18.4093792 L37.85957,18.3447626 L37.9548654,18.2911916 L38.0674366,18.2287841 L38.1655183,18.1818404 L38.2708448,18.1315831 C38.371713,18.0846394 38.4759249,18.0404571 38.5829232,17.9990362 L38.6392088,17.9780496 C38.7345042,17.9427038 38.832586,17.9106716 38.9367979,17.8780872 L38.990297,17.8780872 C39.0972953,17.8455027 39.2076373,17.8156797 39.3202085,17.792484 L39.3915407,17.7748111 C39.506341,17.7510631 39.6222558,17.7300765 39.7392852,17.7124036 C39.8490699,17.6974921 39.959412,17.6858942 40.0691967,17.6798192 L40.1377425,17.6798192 C40.1706222,17.7240014 40.286537,17.72124 40.3784887,17.7240014 L40.3779314,17.7262106 Z M44.760404,20.0148531 L44.8166896,20.0148531 C44.9164432,20.0104349 45.0161968,20.0192714 45.1137214,20.0413625 L45.1493875,20.0413625 C45.2441255,20.0485421 45.3377491,20.0640059 45.4291435,20.0883062 L45.455893,20.0883062 C45.5478447,20.1059791 45.63701,20.1297271 45.7261752,20.1534751 L45.8008511,20.1766708 C45.8844436,20.2004187 45.9669214,20.2269281 46.0471702,20.2561989 L46.0739198,20.2561989 C46.163085,20.2887833 46.2494639,20.3241292 46.3358427,20.3622364 L46.4016021,20.3920594 C46.4851945,20.4301667 46.5676724,20.4682739 46.6479211,20.5130084 L45.3399782,19.8408854 L45.1794807,19.7613572 L45.095331,19.72325 L45.0267852,19.6906656 C44.9404064,19.6525584 44.8545848,19.6172125 44.7648623,19.5846281 L44.73867,19.5846281 C44.657864,19.5553573 44.5748288,19.5282957 44.4917937,19.5051 L44.4171177,19.4841134 L44.348572,19.4631268 L44.149622,19.4161831 L44.1195287,19.4161831 C44.027577,19.3957488 43.9356253,19.3808373 43.84033,19.366478 L43.8046639,19.366478 C43.7093685,19.366478 43.6112867,19.3427301 43.5076321,19.336655 L42.7881799,19.336655 L44.0810762,20.0347352 L44.447211,20.0347352 C44.5491938,20.0109872 44.6550775,20.0038076 44.7592894,20.0143009 L44.760404,20.0148531 Z" id="Fill-9" fill="#DDDDDD"></path>
          <path d="M40.3779314,17.7262106 L40.4314306,17.7262106 L40.7290196,17.7411221 L40.7763887,17.7411221 C40.8761423,17.7460926 40.9758959,17.758795 41.0734204,17.7792293 L41.1391798,17.7792293 C41.2372616,17.7969022 41.3381298,17.8173365 41.4367689,17.8438459 C41.5287206,17.8703553 41.6206722,17.8968646 41.7131812,17.9294491 L41.7722532,17.947122 C41.8647621,17.9797064 41.9539274,18.0145 42.0430927,18.0531595 L42.091019,18.0769075 C42.1801842,18.1150147 42.2693495,18.1597493 42.3551711,18.2061407 L41.0650612,17.5434063 L40.9162667,17.4666396 L40.8003518,17.4136209 L40.7529828,17.3931865 C40.6638175,17.354527 40.5746523,17.3191812 40.4827006,17.2865968 L40.4230713,17.2661625 C40.3339061,17.2368917 40.2413971,17.2070687 40.1461017,17.1827684 L40.1316124,17.1827684 C40.036317,17.1590204 39.9382352,17.1385861 39.8340233,17.1203609 L39.7682639,17.1203609 C39.6707394,17.102688 39.5693139,17.0877765 39.4712321,17.07894 L39.4238631,17.07894 C39.3313541,17.07894 39.2360588,17.0640285 39.126274,17.0640285 L38.7127701,17.0640285 C38.6018708,17.0667899 38.4920861,17.07894 38.3828587,17.0993743 C38.2669438,17.1142858 38.1515863,17.1352724 38.0379006,17.1617818 L37.9637819,17.1766933 C37.8534399,17.2032027 37.7408688,17.2297121 37.6338705,17.2622965 L37.5803713,17.2799694 C37.4822895,17.3092402 37.3842077,17.344586 37.2827823,17.3799319 L37.2264967,17.4003662 C37.1233994,17.4423393 37.0191875,17.4865216 36.913861,17.5334653 L36.884325,17.5334653 L36.8129928,17.5688111 L36.714911,17.6190685 L36.5989962,17.681476 L36.5037008,17.7311811 L36.3877859,17.7991113 L36.2986207,17.8521301 L36.1827058,17.9288968 L36.096327,17.9846769 L36.0784939,17.9846769 L36.0461715,18.0084249 C35.9664801,18.0653096 35.8862314,18.1238512 35.804868,18.1851541 L35.7513689,18.226575 C35.6622036,18.2945052 35.5791685,18.3679583 35.4961333,18.4414114 L35.4749566,18.4414114 L35.4392905,18.4773095 L35.2520434,18.650725 L35.1985443,18.7037437 C35.1244256,18.7805104 35.0530934,18.8539635 34.9845476,18.932387 L34.9544544,18.9682852 C34.8981688,19.0306926 34.8446696,19.0975184 34.7911705,19.162135 L34.7348849,19.2300652 C34.6719119,19.312907 34.608939,19.3918829 34.5532107,19.4741724 C34.4902377,19.5630892 34.4283793,19.6542152 34.3720938,19.7486548 L34.3275111,19.8193465 C34.2706683,19.9104725 34.2177264,20.0015984 34.1670137,20.0960381 C34.1040407,20.210912 34.0449687,20.3290997 33.9914695,20.4494964 L33.96472,20.5058288 C33.9140072,20.6207028 33.8666382,20.7344722 33.8220555,20.8532121 L33.8070089,20.8857965 C33.8081235,20.8984989 33.8081235,20.9112013 33.8070089,20.9239037 C33.7652127,21.0360163 33.7267602,21.1481289 33.6938805,21.2630028 L33.6938805,21.2983486 C33.6615581,21.4071475 33.6348085,21.5164987 33.6075016,21.628059 C33.6091735,21.6490456 33.6091735,21.6700321 33.6075016,21.6904665 C33.5840958,21.8086541 33.5634763,21.923528 33.5445287,22.0411634 L33.5445287,22.1146164 C33.5272529,22.2355654 33.5122063,22.3565145 33.5027325,22.4802249 L33.3751147,22.5393187 L33.3539379,22.5393187 L33.2140599,22.6100103 L33.1605608,22.6365197 C33.0953587,22.6691042 33.032943,22.7011363 32.9733137,22.7364821 L32.9348612,22.7602301 C32.8869349,22.7867395 32.8362221,22.8160103 32.7888531,22.8485947 L32.723651,22.8900156 L32.6077361,22.9667823 L32.5809866,22.9844552 L32.5570234,23.0021282 C32.4678581,23.061222 32.3814793,23.1269431 32.2984441,23.1904552 L32.262778,23.2169645 C32.1763992,23.2848948 32.093364,23.3555865 32.0108862,23.4290395 L31.9930531,23.4467124 C31.9217209,23.5096722 31.8531751,23.5737365 31.787973,23.6383531 L31.7606662,23.6648625 C31.6926776,23.7327928 31.6269183,23.8034844 31.5650599,23.8741761 L31.5438831,23.8979241 L31.5260501,23.9183584 C31.4630771,23.9862887 31.4040051,24.060294 31.3443758,24.1309856 C31.3376884,24.1420312 31.3293292,24.1530768 31.32097,24.1630178 C31.2674708,24.2342617 31.2139716,24.3016397 31.1632589,24.3723314 L31.1454259,24.3960794 C31.0891403,24.4756075 31.0384275,24.5551356 30.9849284,24.6374251 L30.9553924,24.6843688 C30.9074661,24.7644492 30.8573106,24.8467387 30.8121707,24.9290282 L30.8121707,24.9500148 C30.7586715,25.0499773 30.7051724,25.1532534 30.6578033,25.2443793 L30.6578033,25.2769638 C30.6104343,25.3807922 30.5658517,25.4890388 30.5273991,25.5950763 L30.5095661,25.6541701 C30.5000923,25.6961432 30.4861602,25.7364596 30.4672126,25.7745668 L30.440463,25.8513335 C30.4348902,25.8910976 30.4243018,25.9297571 30.4081406,25.9662075 C30.3958804,26.004867 30.4081406,26.0225399 30.3841774,26.0496016 L30.3574279,26.1644755 C30.3490686,26.1920894 30.3423812,26.2197034 30.3368084,26.2478696 C30.3329074,26.2865291 30.3251054,26.3251886 30.3128452,26.3627435 C30.3067151,26.3909097 30.3016996,26.4190759 30.2977986,26.4477944 C30.3011423,26.4875585 30.2938976,26.5267703 30.2771791,26.5626684 C30.2560024,26.6013279 30.2771791,26.6190008 30.2771791,26.6482716 L30.2771791,27.2552258 C30.2392839,28.6961207 31.0144644,30.0376054 32.2867412,30.7351333 L33.5801948,31.4332135 C32.3056888,30.7362379 31.5305083,29.392544 31.5700754,27.9505445 L31.5700754,27.2601963 L31.5879085,27.1420087 L31.6057415,27.0591669 C31.6023978,27.0194028 31.6107571,26.9796387 31.6297047,26.9442929 L31.6475377,26.8586897 C31.6531106,26.8205825 31.6631417,26.7830276 31.6770737,26.7465772 C31.6865475,26.7112313 31.6921204,26.690797 31.7010369,26.6637354 C31.7099534,26.6361214 31.7222136,26.583655 31.7333593,26.5455478 C31.7433904,26.5206952 31.7511923,26.4952904 31.7573225,26.468781 L31.8019051,26.3483843 L31.8230818,26.2837677 C31.8648781,26.1744165 31.9089034,26.068379 31.9568297,25.9623415 L31.9568297,25.9330708 C32.0014124,25.8314515 32.0532397,25.7331459 32.1111971,25.638154 L32.1290301,25.6028082 C32.1747273,25.5199664 32.2220964,25.4371246 32.2716946,25.3553873 L32.3017878,25.3084437 C32.3525006,25.2289155 32.406557,25.1460737 32.4622853,25.0698593 C32.4684154,25.0577092 32.4762174,25.0466636 32.4862485,25.0372749 C32.5364039,24.9665832 32.5871167,24.8958915 32.6406158,24.8279613 L32.6673654,24.7953768 C32.723651,24.7219238 32.7860667,24.6512321 32.8456959,24.5805404 L32.8847057,24.5385673 C32.9499078,24.4651142 33.0151099,24.3944225 33.0836557,24.3264923 L33.1104053,24.3027443 C33.1756074,24.2359186 33.2441532,24.171302 33.3154854,24.1083422 L33.3394486,24.0879079 C33.4196973,24.0139026 33.5060762,23.9432109 33.5913404,23.8758329 L33.6242201,23.8487713 C33.710599,23.7813933 33.7964205,23.7195381 33.8855858,23.6576829 L33.9362985,23.622337 L34.0522134,23.5455703 L34.1151863,23.5041494 L34.2639809,23.4157848 L34.299647,23.3947983 C34.3626199,23.3594524 34.4244783,23.3241066 34.4896804,23.2909699 L34.5431796,23.2639082 L34.6802712,23.1965302 L34.8318521,23.1286 C34.837425,23.0054418 34.8502425,22.8822837 34.8703047,22.7602301 L34.8703047,22.6867771 C34.8881377,22.5719031 34.9093145,22.4542678 34.9332776,22.3393938 C34.9343922,22.3173027 34.9343922,22.2957638 34.9332776,22.2742249 C34.9600272,22.1654261 34.9867768,22.0533135 35.0196565,21.947276 L35.0196565,21.9152438 C35.0525362,21.8003699 35.0909887,21.6866005 35.1327849,21.5733834 C35.1422587,21.5501877 35.1500607,21.526992 35.1561908,21.5026917 C35.2013307,21.3878178 35.2481424,21.2701824 35.3021989,21.1553085 L35.3289485,21.0989761 C35.3824476,20.9813407 35.4420769,20.8637054 35.5044926,20.7488314 C35.5579917,20.6571532 35.6114909,20.5627135 35.6677765,20.4715875 C35.6677765,20.4478396 35.694526,20.4246439 35.7095727,20.4008959 C35.7692019,20.3097699 35.8282739,20.2186439 35.8940333,20.1269657 C35.9531053,20.0435716 36.0160783,19.9618344 36.0784939,19.8828585 L36.1319931,19.8149283 C36.1854923,19.746998 36.2417778,19.6823814 36.2980634,19.6177648 L36.3404169,19.5702688 C36.4089627,19.4935021 36.4797376,19.4172877 36.5544135,19.3432823 L36.6079127,19.2902636 L36.7951597,19.1135344 L36.8486589,19.0632771 C36.9328086,18.989824 37.0180729,18.9191324 37.1072382,18.8484407 L37.1607373,18.8070198 C37.2381996,18.747926 37.3212348,18.6860708 37.4014835,18.6302906 L37.4521963,18.5949448 L37.5385751,18.5386124 L37.6511462,18.4651593 L37.7436552,18.4093792 L37.85957,18.3447626 L37.9548654,18.2911916 L38.0674366,18.2287841 L38.1655183,18.1818404 L38.2708448,18.1315831 C38.371713,18.0846394 38.4759249,18.0404571 38.5829232,17.9990362 L38.6392088,17.9780496 C38.7345042,17.9427038 38.832586,17.9106716 38.9367979,17.8780872 L38.990297,17.8780872 C39.0972953,17.8455027 39.2076373,17.8156797 39.3202085,17.792484 L39.3915407,17.7748111 C39.506341,17.7510631 39.6222558,17.7300765 39.7392852,17.7124036 C39.8490699,17.6974921 39.959412,17.6858942 40.0691967,17.6798192 L40.1377425,17.6798192 C40.1706222,17.7240014 40.286537,17.72124 40.3784887,17.7240014 L40.3779314,17.7262106 Z M44.760404,20.0148531 L44.8166896,20.0148531 C44.9164432,20.0104349 45.0161968,20.0192714 45.1137214,20.0413625 L45.1493875,20.0413625 C45.2441255,20.0485421 45.3377491,20.0640059 45.4291435,20.0883062 L45.455893,20.0883062 C45.5478447,20.1059791 45.63701,20.1297271 45.7261752,20.1534751 L45.8008511,20.1766708 C45.8844436,20.2004187 45.9669214,20.2269281 46.0471702,20.2561989 L46.0739198,20.2561989 C46.163085,20.2887833 46.2494639,20.3241292 46.3358427,20.3622364 L46.4016021,20.3920594 C46.4851945,20.4301667 46.5676724,20.4682739 46.6479211,20.5130084 L45.3399782,19.8408854 L45.1794807,19.7613572 L45.095331,19.72325 L45.0267852,19.6906656 C44.9404064,19.6525584 44.8545848,19.6172125 44.7648623,19.5846281 L44.73867,19.5846281 C44.657864,19.5553573 44.5748288,19.5282957 44.4917937,19.5051 L44.4171177,19.4841134 L44.348572,19.4631268 L44.149622,19.4161831 L44.1195287,19.4161831 C44.027577,19.3957488 43.9356253,19.3808373 43.84033,19.366478 L43.8046639,19.366478 C43.7093685,19.366478 43.6112867,19.3427301 43.5076321,19.336655 L42.7881799,19.336655 L44.0810762,20.0347352 L44.447211,20.0347352 C44.5491938,20.0109872 44.6550775,20.0038076 44.7592894,20.0143009 L44.760404,20.0148531 Z" id="Stroke-11" stroke="#1654E7" stroke-width="0.5"></path>
          <path d="M39.6643864,17.7696749 C41.4816859,17.4731013 43.280595,18.3876747 44.0970145,20.0235239 C46.838289,19.8086875 49.0055621,21.8565366 49,24.7377742 C49,27.7316765 46.7730869,30.466008 44.0407289,30.848737 L35.784583,31.9980288 C33.3314237,32.2012674 31.387621,30.4748444 31.3931819,28.0437139 C31.3931819,25.9815056 32.7997758,24.049635 34.7201726,23.2145897 C34.9107634,20.5338293 37.0507297,18.1325219 39.6643864,17.7696749 Z" id="Fill-13" fill="#488AF9"></path>
          <path d="M12.933254,13.4831644 C13.5323331,13.4036363 14.0829286,13.8200544 14.1631773,14.4132016 C14.1732084,14.4877592 14.1759948,14.5634214 14.170422,14.637979 C14.1715366,15.3669868 13.6515916,15.993823 12.9304676,16.134654 C12.3319458,16.2163913 11.7802357,15.8010778 11.6977578,15.2079305 C11.6877268,15.1333729 11.6849403,15.0577107 11.6905132,14.9826009 C11.6905132,14.2530408 12.2110154,13.6245477 12.933254,13.4826121 L12.933254,13.4831644 Z M5.62560353,22.4930377 C6.22078166,22.4113005 6.7697053,22.8238526 6.85218316,23.4136862 L6.85218316,23.4136862 C6.86277154,23.4904529 6.86555795,23.5683242 6.85942784,23.6450909 C6.86277154,24.374651 6.34226932,25.003144 5.61947342,25.141766 C5.0242953,25.22516 4.4742571,24.8142648 4.39010738,24.2244312 C4.379519,24.1482167 4.37673259,24.0703455 4.3828627,23.9930265 C4.379519,23.2623618 4.90113578,22.6322119 5.62560353,22.4930377 L5.62560353,22.4930377 Z" id="Fill-15" fill="#97D7F7"></path>
          <path d="M32.6366591,13.4827226 C33.2335091,13.4031945 33.78299,13.8179557 33.863796,14.4094461 C33.8743844,14.4856606 33.8766135,14.561875 33.8704834,14.6386417 C33.8727126,15.3670972 33.3527676,15.995038 32.6310863,16.1353168 C32.033679,16.2165017 31.4836408,15.8028451 31.401163,15.2113547 C31.3905746,15.1351402 31.3883455,15.0583735 31.3939183,14.982159 C31.3916892,14.2520467 31.9127487,13.6224491 32.6366591,13.4827226 Z M25.2398434,12.6338704 C25.8383652,12.5543422 26.3889607,12.9707603 26.4697667,13.5644598 C26.4797978,13.6390174 26.4820269,13.7141273 26.4764541,13.7892372 C26.4786832,14.5176927 25.9587383,15.1461858 25.2364997,15.2859123 C24.6379779,15.3670972 24.0862678,14.952336 24.00379,14.3586365 C23.9937589,14.2840789 23.9915297,14.208969 23.9971026,14.1338591 C23.9971026,13.404299 24.5170475,12.7763582 25.2387288,12.6338704 L25.2398434,12.6338704 Z M22.1508244,6.87691808 C22.7476743,6.79738996 23.2971553,7.2121512 23.3779613,7.8036416 C23.3885497,7.87985605 23.3902215,7.95607049 23.3846487,8.03283722 C23.3874351,8.75963588 22.8702766,9.38702438 22.1508244,9.52951227 C21.5556462,9.61235406 21.005608,9.20201105 20.9214583,8.61217749 C20.9103127,8.5343062 20.9075263,8.45588264 20.9142136,8.37745908 C20.9108699,7.64845131 21.4285857,7.01995824 22.1497098,6.87691808 L22.1508244,6.87691808 Z M22.581604,26.1227232 C23.1806831,26.0431951 23.7312786,26.4601655 23.8109701,27.053865 C23.8204439,27.1240044 23.8232303,27.1952483 23.818772,27.26594 C23.8171002,27.9943955 23.2971553,28.6206794 22.5760312,28.762615 C21.9769521,28.8421431 21.4263566,28.4257251 21.3461079,27.8320256 C21.3360768,27.7585725 21.3338477,27.6845672 21.3394205,27.6105618 C21.3416496,26.8843155 21.8615945,26.2607929 22.5810468,26.1227232 L22.581604,26.1227232 Z M11.1322272,25.0352867 C11.7313063,24.9557585 12.2819018,25.3721766 12.3621505,25.9653238 C12.3727389,26.0398815 12.374968,26.1155436 12.3693952,26.1906535 C12.3677233,26.919109 11.8477784,27.545393 11.1266543,27.6873286 C10.5275752,27.7668567 9.97697975,27.3504386 9.89673102,26.7567391 C9.88669993,26.683286 9.8844708,26.6087284 9.88948634,26.5347231 C9.88614264,25.8040585 10.4077594,25.1744609 11.1316699,25.0352867 L11.1322272,25.0352867 Z M18.7703464,13.4827226 C19.3688682,13.4031945 19.920021,13.8196125 20.0002697,14.4127598 L20.0002697,14.4127598 C20.0103008,14.4873174 20.0125299,14.5629796 20.0069571,14.6375372 C20.0069571,15.3665449 19.4858976,15.9939335 18.7642163,16.1342122 C18.1673663,16.2153972 17.6167708,15.8017405 17.5348502,15.2108024 C17.5242619,15.1345879 17.5220327,15.0578212 17.5276056,14.9816068 C17.5253764,14.2514944 18.0464359,13.6230014 18.7692318,13.4827226 L18.7703464,13.4827226 Z M13.2019758,13.4827226 C13.8004976,13.4031945 14.3510931,13.8196125 14.4318991,14.4127598 L14.4318991,14.4127598 C14.4419302,14.4873174 14.4441594,14.5629796 14.4385865,14.6375372 C14.4397011,15.3659927 13.9203134,15.9933812 13.1986321,16.1342122 C12.6001103,16.2159495 12.0484002,15.8011882 11.9664797,15.2074887 L11.9664797,15.2074887 C11.9558913,15.1329311 11.9536621,15.0572689 11.959235,14.982159 C11.959235,14.252599 12.4797372,13.6246582 13.2019758,13.4827226 L13.2019758,13.4827226 Z" id="Fill-17" fill="#97D7F7"></path>
        </g>
        <g transform="translate(36.005323, 20.741376)">
          <g>
            <mask id="mask-2" fill="white">
              <use xlink:href="#path-1"></use>
            </mask>
            <g id="Clip-20"></g>
            <path d="M4.1752191,0.57795957 C1.87865633,0.897728888 0.0134305175,3.14826424 0.00896424554,5.60424724 C0.00451399136,8.06078252 1.86193785,9.7916237 4.1590579,9.47185438 C6.45562066,9.15208506 8.32028919,6.90154971 8.32530474,4.44667127 L8.32530474,4.43783481 C8.32530474,1.98571776 6.46899545,0.258742531 4.1752191,0.57795957 M4.05317415,1.22578239 C4.09329852,1.21915504 4.1328656,1.2125277 4.17354725,1.20700491 C4.21367162,1.20148213 4.2532387,1.1970639 4.29280579,1.19264567 C4.32066993,1.18822744 4.34797679,1.18380921 4.37472637,1.17994326 C4.69739316,1.13410414 5.0250755,1.13741781 5.34662772,1.189332 C5.376721,1.21860276 5.40681427,1.24787353 5.43579298,1.27769657 C6.69246589,1.61237742 7.60752439,2.73515984 7.71730911,4.21305741 L8.10294887,4.15948639 L8.10294887,4.79515907 L7.71563726,4.8487301 C7.58021752,6.54146405 6.43332935,8.06685758 4.93256654,8.63073405 C4.91640534,8.64675013 4.90080142,8.66221393 4.88408293,8.67823001 L4.73305927,8.6992166 C4.54581222,8.75775813 4.35410691,8.80083586 4.15961518,8.82789752 C3.970139,8.85440689 3.77843369,8.86490018 3.58672837,8.85882512 L3.43459015,8.87925943 C3.41787166,8.86821385 3.40171046,8.856616 3.38554925,8.84501815 C1.88701558,8.69811204 0.745700228,7.4930401 0.616967881,5.83730882 L0.222411599,5.8919844 L0.223526165,5.25631171 L0.616967881,5.20163613 C0.739012833,3.70882704 1.59667119,2.37231279 2.90907239,1.62949805 C2.9380511,1.59139083 2.96814437,1.5532836 2.99823765,1.51628094 C3.30808693,1.377659 3.63576927,1.28321936 3.97236813,1.2357234 C3.99967499,1.23185745 4.02642457,1.22854378 4.05428871,1.22523011" id="Fill-19" fill="#FFFFFF" mask="url(#mask-2)"></path>
          </g>
          <g>
            <mask id="mask-4" fill="white">
              <use xlink:href="#path-3"></use>
            </mask>
            <g id="Clip-22"></g>
            <path d="M3.97064055,1.23555772 C3.63459897,1.28360596 3.30635935,1.3780456 2.99706735,1.51611525 C2.96641679,1.5536702 2.9368808,1.59122514 2.90734481,1.62933237 C2.75297745,1.82980951 2.61087031,2.03967538 2.48269525,2.25727315 C2.66715589,2.33790583 2.8588612,2.39976104 3.05558206,2.44173421 C3.35540025,1.97340195 3.73323804,1.55753615 4.17237696,1.21346657 C4.13280987,1.21622797 4.0926855,1.22064619 4.05311842,1.22506442 C4.02581156,1.22837809 3.9985047,1.23169177 3.97064055,1.23555772 M2.18009064,2.84268849 C1.8981055,3.46676332 1.72869151,4.13446816 1.67909333,4.81653225 C1.67240594,4.89661265 1.66794767,4.97614077 1.66460398,5.05566889 L2.25420927,4.97337938 C2.25922481,4.90213544 2.26535493,4.8308915 2.27371417,4.758543 C2.31773952,4.1620821 2.47154959,3.57777132 2.72734244,3.035986 C2.5395381,2.9868332 2.35674932,2.92221661 2.18064793,2.84268849 M2.25866753,5.60905207 L1.67853605,5.68968474 C1.73036336,6.37837618 1.93822987,7.04718558 2.28708896,7.64530332 C2.4581748,7.53153392 2.63650533,7.42936238 2.82152324,7.33934097 C2.49551276,6.81578084 2.3021356,6.22208133 2.25811025,5.60849979 M3.1843144,7.8137483 C2.98759354,7.90100832 2.79811736,8.0048367 2.61755771,8.12247204 C2.83824173,8.39750679 3.09626371,8.64106166 3.38437896,8.84595703 C3.40054016,8.85755488 3.41670137,8.86915273 3.43286257,8.88075058 L3.58555808,8.85976399 L3.67695247,8.84706158 C3.84413734,8.75262194 4.00519209,8.64713672 4.15844488,8.53226277 C3.78952361,8.35774273 3.45849758,8.11363558 3.18375712,7.81430057 M4.63938001,8.7123056 L4.63157805,8.71341016 C4.47721069,8.76311523 4.31894236,8.79956562 4.15844488,8.82220905 L4.16234586,8.82220905 C4.32451518,8.79956562 4.48389809,8.76256296 4.63938001,8.71285788" id="Fill-21" fill="#FFFFFF" mask="url(#mask-4)"></path>
          </g>
          <g>
            <mask id="mask-6" fill="white">
              <use xlink:href="#path-5"></use>
            </mask>
            <g id="Clip-24"></g>
            <path d="M4.37533938,1.1802194 C4.34803252,1.18408535 4.32072566,1.18850358 4.2934188,1.19292181 C4.25329443,1.19954915 4.21372735,1.20617649 4.17360298,1.21390839 C4.60884091,1.43371528 4.98890784,1.74740954 5.28593962,2.13179545 C5.48656145,2.03293758 5.67770948,1.91751135 5.85882642,1.78772588 C5.73232321,1.60657849 5.59077335,1.43537212 5.43584871,1.27742044 C5.40687,1.24759739 5.37733401,1.21832662 5.34724073,1.18905586 C5.02568851,1.13714167 4.69744889,1.133828 4.37533938,1.17966712 M6.15975918,2.29029941 C5.98477235,2.4173235 5.80198357,2.53274973 5.61139282,2.63547355 C5.87220121,3.13141974 6.02433944,3.67541418 6.05833369,4.23321558 C6.06613565,4.30280269 6.07282305,4.37238979 6.07728131,4.44252918 L6.66800117,4.35913511 C6.66465747,4.28071154 6.66019921,4.20228798 6.6540691,4.12441669 C6.61561658,3.48598262 6.44731715,2.86190778 6.15975918,2.28919486 M6.65183997,4.99812146 L6.0711512,5.07875414 C6.01430835,5.74038392 5.8203739,6.38323623 5.50160809,6.967547 C5.68328231,7.00565423 5.86161284,7.05812069 6.03492781,7.12494641 C6.37654222,6.46165979 6.58608059,5.73983164 6.65183997,4.99812146 M5.1365878,7.54136448 C4.86129006,7.91691394 4.53193587,8.25049022 4.15855634,8.53160004 C4.00530355,8.64647399 3.84480608,8.75140693 3.67762121,8.84639885 C3.83700412,8.85302619 3.99638702,8.84529429 4.15409808,8.82265087 L4.15855634,8.82265087 C4.31905381,8.80000745 4.47732215,8.76355706 4.63113223,8.71385198 L4.63893419,8.7132997 L4.73200043,8.70004502 L4.88302409,8.67905843 C4.89974258,8.66359463 4.91590378,8.64757855 4.93206498,8.63156247 C5.22073752,8.34603442 5.47875949,8.03178789 5.70222993,7.69379338 C5.51944115,7.62475855 5.32996496,7.57394892 5.1365878,7.54191676" id="Fill-23" fill="#FFFFFF" mask="url(#mask-6)"></path>
          </g>
          <g>
            <mask id="mask-8" fill="white">
              <use xlink:href="#path-7"></use>
            </mask>
            <g id="Clip-26"></g>
            <path d="M6.14114593,1.56907877 C6.04975154,1.64695006 5.95612801,1.72040311 5.86027536,1.78833338 C5.67915842,1.91867114 5.48801039,2.03354509 5.28738855,2.13240296 C4.93685762,2.306923 4.56069167,2.42455835 4.1722655,2.47978621 C3.80167238,2.53280495 3.42439187,2.52065483 3.05769973,2.44333582 C2.86097887,2.40136264 2.66927356,2.33950744 2.48537021,2.25887476 C2.38951755,2.21690159 2.29589403,2.16940563 2.20505692,2.11749144 C2.03229922,2.26329299 1.87180175,2.42179695 1.72412179,2.59245104 C1.8701299,2.68799525 2.0233827,2.77194159 2.1827656,2.84373781 C2.35942428,2.92326594 2.54221306,2.98788253 2.73001739,3.03703533 C3.20036415,3.15798435 3.6902158,3.185046 4.17115093,3.11711573 C4.67716379,3.04255812 5.1653436,2.87963592 5.61339904,2.6349765 C5.8034325,2.53225268 5.98677857,2.41682645 6.16120812,2.28980236 C6.32226287,2.17216702 6.47607294,2.04569522 6.62152378,1.91038696 C6.47328653,1.78060148 6.31223178,1.66627981 6.14114593,1.56907877 M8.10501082,4.15981775 L7.71937106,4.21338878 L6.66945011,4.35919033 L6.07928753,4.44203213 L2.25688423,4.97442871 L1.66727893,5.05671822 L0.61735798,5.20251978 L0.223916263,5.25719536 L0.222801697,5.89286805 L0.61735798,5.83819246 L1.68009644,5.69018179 L2.26078521,5.60954912 L6.07315742,5.07825709 L6.6532889,4.99762441 L7.71714193,4.84961374 L8.10333897,4.79549044 L8.10445353,4.15981775 M4.22074911,6.92673361 L4.16279169,6.93557007 L4.10483427,6.94330197 C3.65845068,7.00681401 3.22599916,7.14101771 2.82252635,7.33983802 C2.63750844,7.42985943 2.45917791,7.53203097 2.28809207,7.64580037 C2.0852411,7.78000407 1.8929785,7.9291193 1.71241885,8.09148921 C1.8573124,8.22679747 2.01836715,8.34443282 2.19168213,8.44163385 C2.32710187,8.32620762 2.46976629,8.21961785 2.61856082,8.12186453 C2.79912047,8.00367691 2.98859665,7.90040081 3.18587479,7.81314079 C3.49628136,7.67396658 3.82452098,7.57842238 4.16223441,7.53037414 C4.48601576,7.48453501 4.81481267,7.48784868 5.13747946,7.54086743 C5.33085662,7.57289959 5.5203328,7.62370922 5.70312158,7.69219177 C5.85024427,7.74797191 5.9923514,7.81479762 6.12832842,7.89322119 C6.30387253,7.74686736 6.46548457,7.58504972 6.6109354,7.40942512 C6.42926118,7.29620801 6.2364413,7.20066381 6.03637675,7.1233448 C5.86306177,7.05707137 5.68473125,7.00405262 5.50305703,6.96594539 C5.08175117,6.87923765 4.64818508,6.86598296 4.22242096,6.92673361" id="Fill-25" fill="#FFFFFF" mask="url(#mask-8)"></path>
          </g>
        </g>
      </g>
    </g>
  </g>
</svg>
