<?xml version="1.0" encoding="UTF-8"?>
<svg xmlns="http://www.w3.org/2000/svg" xmlns:xlink="http://www.w3.org/1999/xlink" width="60px" height="60px" viewBox="0 0 60 60" version="1.1">
  <title>应用服务器</title>
  <defs>
    <polygon id="path-1" points="-9.89544913e-16 0 35 0 35 54 -9.89544913e-16 54"></polygon>
  </defs>
  <g id="页面" stroke="none" stroke-width="1" fill="none" fill-rule="evenodd">
    <g id="图标" transform="translate(-197.000000, -221.000000)">
      <g id="应用服务器" transform="translate(211.000000, 224.000000)">
        <path d="M15.0775994,53.5756712 C15.0033241,53.5744683 14.9308315,53.5522144 14.8678461,53.5119167 L0.628986438,45.5732699 C0.503015639,45.4968847 0.423986789,45.3609551 0.419233174,45.2123949 L0.419233174,12.5020906 C0.423986789,12.3535304 0.503015639,12.2182024 0.628986438,12.1412157 L19.5864032,0.487963039 C19.6487944,0.44766534 19.7212871,0.426012844 19.7955623,0.42420847 C19.8704317,0.426012844 19.9429244,0.44766534 20.0053156,0.487963039 L34.3909431,8.70267916 C34.5169139,8.77906435 34.5959427,8.91499391 34.6006996,9.06355408 L34.6006996,42.2610395 C34.6012905,42.4114041 34.5210733,42.5497395 34.3909431,42.6219145 L15.2873526,53.5119167 C15.2231788,53.5498085 15.1512804,53.571461 15.0775994,53.5756712" id="Fill-1" fill="#0A5FF1"></path>
        <g id="编组">
          <mask id="mask-2" fill="white">
            <use xlink:href="#path-1"></use>
          </mask>
          <g id="Clip-4"></g>
          <path d="M19.7959188,0.000481166562 C19.6408321,0.00288699937 19.4887164,0.0467934481 19.3556152,0.127990305 L0.398198428,11.781243 C0.148039436,11.9328104 -0.00407624529,12.2076768 5.28093059e-14,12.5029928 L5.28093059e-14,45.2120942 C0.00364837915,45.5164321 0.162300281,45.797313 0.419589695,45.9554965 L14.6584494,53.8941434 C14.7808549,53.9615067 14.9175214,53.9975942 15.0565646,54 C15.2027383,53.9975942 15.3465351,53.9615067 15.4760711,53.8941434 L34.5802558,43.0041412 C34.8476466,42.8567839 35.0098638,42.5692869 34.9997623,42.2613403 L34.9997623,9.06445627 C34.9956029,8.76011842 34.836951,8.47923744 34.5802558,8.32165539 L20.1946283,0.106939268 C20.0710343,0.0419817825 19.934962,0.00529283218 19.7959188,-0.00012029164 L19.7959188,0.000481166562 Z M19.7959188,0.84913869 L34.1815463,9.06325335 L34.1815463,42.2619417 L15.0779559,53.1513425 L0.838502021,45.2132971 L0.838502021,12.5029928 L19.7959188,0.849740148 L19.7959188,0.84913869 Z" id="Fill-3" fill="#1654E7" mask="url(#mask-2)"></path>
        </g>
        <polygon id="Fill-5" fill="#488AF9" points="19.7959188 0.848898106 0.838502021 12.5021508 15.0779559 20.3349409 34.1815463 9.06361423"></polygon>
        <line x1="15.0775994" y1="51.2619217" x2="15.0775994" y2="20.3349409" id="Fill-7" fill="#B5D6FB"></line>
        <path d="M15.0776588,51.6863707 C14.8465142,51.6857693 14.6587465,51.4957085 14.6581523,51.2617412 L14.6581523,20.335362 C14.6587465,20.1013947 14.8465142,19.9119354 15.0776588,19.9107325 C15.3088033,19.9119354 15.4965711,20.1013947 15.4971653,20.335362 L15.4971653,51.2412917 C15.5054841,51.4788677 15.3218758,51.6785518 15.087166,51.6869722 C15.0836008,51.6869722 15.0806298,51.6869722 15.0776588,51.6869722 L15.0776588,51.6863707 Z" id="Fill-9" fill="#7BB8FC"></path>
        <line x1="31.8957705" y1="10.4221279" x2="15.0774805" y2="20.3558115" id="Fill-11" fill="#B5D6FB"></line>
        <path d="M15.0775994,20.7595136 C14.9296431,20.7601117 14.7923825,20.6789149 14.7210782,20.5471955 C14.6117451,20.34691 14.6759189,20.0955004 14.8678461,19.9740059 L31.6861361,10.0403222 C31.8845995,9.93566848 32.1294107,9.99942305 32.2524105,10.1888824 C32.3617437,10.389168 32.2969756,10.6405775 32.1056426,10.762072 L15.2873526,20.6957557 C15.2243672,20.7360534 15.1518746,20.7583074 15.0775994,20.7595136" id="Fill-13" fill="#7BB8FC"></path>
        <line x1="2.64208299" y1="13.4997895" x2="15.0775399" y2="20.3347605" id="Fill-15" fill="#B5D6FB"></line>
        <path d="M15.0776588,20.7593332 C15.0128908,20.7551196 14.9493112,20.7412861 14.8887026,20.7172278 L2.45324563,13.8816553 C2.25181119,13.7812118 2.16089831,13.54123 2.24349237,13.3301181 C2.34272408,13.1262238 2.58040483,13.0335992 2.78896969,13.1178034 C2.80976676,13.1178034 2.80976676,13.1388544 2.83115803,13.1388544 L15.2660208,19.9738254 C15.4686436,20.0856967 15.5441073,20.3419178 15.4341799,20.5470151 C15.3622815,20.6787344 15.225615,20.7599313 15.0776588,20.7593332 Z" id="Fill-17" fill="#7BB8FC"></path>
        <line x1="2.45348331" y1="40.8183218" x2="12.9595668" y2="46.7829827" id="Fill-19" fill="#B5D6FB"></line>
        <path d="M12.9594479,47.1862605 C12.8851727,47.1850576 12.8126801,47.1628036 12.7496947,47.1225059 L2.24361121,41.1578449 C2.04217677,41.0501839 1.96493053,40.7975714 2.07129266,40.5936771 C2.07248107,40.5906698 2.07426367,40.5876625 2.07604628,40.5846552 C2.18240841,40.3807609 2.4319732,40.3025713 2.63400184,40.4102324 C2.63637865,40.4120367 2.63934966,40.4132397 2.64232067,40.415044 L13.1484041,46.379705 C13.3498386,46.487366 13.4270848,46.7399785 13.3207227,46.9438728 C13.3189401,46.9468801 13.3177516,46.9498874 13.315969,46.9528947 C13.2684329,47.1074694 13.1180998,47.2055071 12.9594479,47.1862605" id="Fill-21" fill="#02E2DF"></path>
        <line x1="2.45348331" y1="37.8466972" x2="12.9595668" y2="43.8113582" id="Fill-23" fill="#B5D6FB"></line>
        <path d="M12.9594479,44.2143983 C12.8851727,44.2131924 12.8126801,44.1909385 12.7496947,44.1506408 L2.24361121,38.1859798 C2.04217677,38.0783188 1.96493053,37.8257063 2.07129266,37.621812 C2.07248107,37.6188047 2.07426367,37.6157974 2.07604628,37.6127901 C2.18240841,37.4088958 2.4319732,37.3307062 2.63400184,37.4383672 C2.63637865,37.4401716 2.63934966,37.4413745 2.64232067,37.4431789 L13.1484041,43.4078399 C13.3498386,43.5155009 13.4270848,43.7681134 13.3207227,43.9726091 C13.3189401,43.975015 13.3177516,43.9780223 13.315969,43.9810296 C13.2535778,44.1235752 13.1133462,44.2149968 12.9594479,44.2143983" id="Fill-25" fill="#F2F7FC"></path>
        <line x1="2.45348331" y1="34.8537209" x2="12.9595668" y2="40.8183819" id="Fill-27" fill="#B5D6FB"></line>
        <path d="M12.9594479,41.2429542 C12.8851727,41.2417483 12.8126801,41.2194944 12.7496947,41.1791967 L2.24361121,35.2145357 C2.04217677,35.1068747 1.96493053,34.8542622 2.07129266,34.6503679 C2.07248107,34.6473606 2.07426367,34.6443533 2.07604628,34.641346 C2.18240841,34.4374517 2.4319732,34.3592621 2.63400184,34.4675246 C2.63637865,34.4687275 2.63934966,34.4705319 2.64232067,34.4717348 L13.1484041,40.4363958 C13.3498386,40.5440568 13.4270848,40.7966693 13.3207227,41.001165 C13.3189401,41.0035709 13.3177516,41.0065782 13.315969,41.0095855 C13.2535778,41.1521311 13.1133462,41.2435527 12.9594479,41.2429542" id="Fill-29" fill="#F2F7FC"></path>
        <line x1="0.335331869" y1="28.6132312" x2="15.0566835" y2="36.7431417" id="Fill-31" fill="#B5D6FB"></line>
        <polygon id="Fill-33" fill="#7BB8FC" points="0.146732192 28.9951571 0.545441654 28.2523563 15.2667932 36.3822668 14.8680838 37.1250677"></polygon>
        <line x1="10.4431812" y1="22.1179638" x2="12.8336554" y2="23.3280977" id="Fill-35" fill="#B5D6FB"></line>
        <path d="M12.8337742,23.7523061 C12.7690062,23.7480959 12.7054266,23.7342624 12.644818,23.7096026 L10.2543439,22.5000702 C10.0463732,22.3960179 9.96140233,22.1409996 10.0641993,21.9304893 C10.0647935,21.9292863 10.0653877,21.9280834 10.0653877,21.9268805 C10.1687788,21.7163701 10.4207204,21.6297602 10.628691,21.7344139 C10.6298794,21.7344139 10.6310678,21.7350153 10.631662,21.7356168 L13.0227304,22.9457507 C13.2307011,23.049803 13.3156719,23.3048212 13.212875,23.5153316 C13.2122808,23.5165345 13.2116866,23.5177374 13.2110924,23.5189404 C13.1439476,23.6675005 12.9948029,23.7595236 12.8337742,23.7523061" id="Fill-37" fill="#02E2DF"></path>
      </g>
    </g>
  </g>
</svg>
