<?xml version="1.0" encoding="UTF-8"?>
<svg xmlns="http://www.w3.org/2000/svg" xmlns:xlink="http://www.w3.org/1999/xlink" width="60px" height="60px" viewBox="0 0 60 60" version="1.1">
  <title>应用服务集群</title>
  <defs>
    <polygon id="path-1" points="0 0 26.9179711 0 26.9179711 43.7648291 0 43.7648291"></polygon>
    <polygon id="path-3" points="0 54 46 54 46 0 0 0"></polygon>
  </defs>
  <g id="页面" stroke="none" stroke-width="1" fill="none" fill-rule="evenodd">
    <g id="图标" transform="translate(-269.000000, -221.000000)">
      <g id="应用服务器集群" transform="translate(277.000000, 224.000000)">
        <path d="M9.8372069,43.3459582 C9.76341281,43.346444 9.6906296,43.3276183 9.62694429,43.2914532 L0.637712339,38.2773798 C0.502760136,38.2040587 0.419362707,38.0643523 0.420858693,37.9132514 L0.420858693,10.5818202 C0.421384463,10.4361688 0.498716625,10.3009211 0.625076365,10.2241321 L16.9891682,0.478866055 C17.0558862,0.438737615 17.1332183,0.417930275 17.2120668,0.418417044 C17.2883881,0.417930275 17.3636985,0.438737615 17.4283947,0.478866055 L26.2816636,5.62818716 C26.4115614,5.70249908 26.4919262,5.83873761 26.4919262,5.98587523 L26.4919262,33.7220587 C26.4919262,33.8731596 26.4095396,34.0118752 26.2755983,34.0861872 L10.0535348,43.2914532 C9.98732227,43.3271229 9.91302274,43.3459582 9.8372069,43.3459582" id="Fill-1" fill="#488AF9"></path>
        <g id="编组" transform="translate(0.000000, 0.000009)">
          <mask id="mask-2" fill="white">
            <use xlink:href="#path-1"></use>
          </mask>
          <g id="Clip-4"></g>
          <path d="M17.2054456,-7.12930691e-16 C17.0487595,0.000535728799 16.8946006,0.0426458205 16.7601538,0.121416463 L0.408192506,9.8661871 C0.154462147,10.0187743 -0.000203328027,10.2897651 -0.000203328027,10.5815633 L-0.000203328027,37.9129944 C-0.000707614548,38.2142055 0.165076365,38.4926275 0.432959015,38.6402605 L9.42168553,43.6553247 C9.55006703,43.7266642 9.69512801,43.7643155 9.84221075,43.7648291 C9.99283156,43.7658018 10.1404197,43.7261688 10.2693067,43.6493798 L26.4913702,34.4441137 C26.7562202,34.2940036 26.919477,34.0165724 26.9179711,33.7163522 L26.9179711,5.98512288 C26.9174552,5.688866 26.7577365,5.41440729 26.49693,5.26380178 L17.6436611,0.114480683 C17.5107307,0.0381871049 17.3596044,-0.00144592258 17.2054456,-7.12930691e-16 L17.2054456,-7.12930691e-16 Z M17.2054456,0.83679261 L26.0587144,5.98611371 L26.0587144,33.7222972 L9.83715636,42.9275633 L0.847418965,37.9134899 L0.847418965,10.5815633 L17.2054456,0.83679261 Z" id="Fill-3" fill="#1654E7" mask="url(#mask-2)"></path>
        </g>
        <line x1="9.83705527" y1="41.0355413" x2="9.83705527" y2="15.5118716" id="Fill-5" fill="#B5D6FB"></line>
        <path d="M9.83685309,41.4601596 C9.60131854,41.4596642 9.41076805,41.2728936 9.41026261,41.0425266 L9.41026261,15.5119211 C9.41026261,15.2805633 9.60131854,15.0932972 9.83685309,15.0932972 C10.0728931,15.0932972 10.263949,15.2805633 10.263949,15.5119211 L10.263949,41.0355908 C10.2659708,41.2679394 10.0759257,41.458178 9.83887485,41.4601596 C9.83836941,41.4601596 9.83735853,41.4601596 9.83685309,41.4601596" id="Fill-7" fill="#0276F7"></path>
        <line x1="24.4007735" y1="6.96164037" x2="9.83705527" y2="15.5119706" id="Fill-9" fill="#B5D6FB"></line>
        <path d="M9.83705527,15.9304056 C9.68643446,15.9313872 9.5469333,15.8526165 9.47212834,15.7243046 C9.35031755,15.5266349 9.41501373,15.270011 9.61617844,15.1506165 C9.61769476,15.1501211 9.61921108,15.1491303 9.62072739,15.1481394 L24.1844457,6.59780917 C24.3851049,6.47494679 24.6494495,6.53439633 24.7753038,6.73107523 C24.9006527,6.92775413 24.8394946,7.18735046 24.6388353,7.31021284 C24.6337809,7.31318532 24.6287265,7.31665321 24.6236721,7.31913028 L10.0599539,15.869956 C9.99273047,15.909589 9.91539831,15.9304056 9.83705527,15.9304056" id="Fill-11" fill="#0276F7"></path>
        <line x1="2.47462916" y1="11.4732165" x2="9.83685309" y2="15.511822" id="Fill-13" fill="#B5D6FB"></line>
        <path d="M9.8372069,15.9302477 C9.76341281,15.9292569 9.69113504,15.9104312 9.62694429,15.8757523 L2.26421492,11.8307064 C2.05749039,11.7187431 1.98268542,11.4636055 2.09742006,11.2609817 C2.21164927,11.0583578 2.47195034,10.9850367 2.67867487,11.097 L10.0408988,15.1361009 C10.2450961,15.2505413 10.3188902,15.5027064 10.2081991,15.7058257 C10.1399648,15.8455321 9.99490386,15.9332202 9.8372069,15.9302477" id="Fill-15" fill="#7BB8FC"></path>
        <line x1="2.19628392" y1="34.0921817" x2="7.96839688" y2="37.4575211" id="Fill-17" fill="#B5D6FB"></line>
        <path d="M7.96248324,37.8763022 C7.88565652,37.876789 7.81085155,37.8559817 7.74615537,37.8158532 L1.98010768,34.4500183 C1.77388858,34.335578 1.70211625,34.0789541 1.81887265,33.8773211 C1.93613449,33.6751927 2.19795187,33.604844 2.40366553,33.7192844 C2.40871992,33.7222569 2.41427975,33.7252294 2.41933414,33.7286972 L8.18538183,37.0940367 C8.38856829,37.2139266 8.45478079,37.4725321 8.33297,37.6716881 C8.25462696,37.7990092 8.11411493,37.876789 7.96248324,37.8763022" id="Fill-19" fill="#02E2DF"></path>
        <line x1="2.19628392" y1="31.6060514" x2="7.96839688" y2="34.9713908" id="Fill-21" fill="#B5D6FB"></line>
        <path d="M7.96248324,35.3901224 C7.88565652,35.3906092 7.81085155,35.3698018 7.74615537,35.3296734 L1.98010768,31.9638385 C1.77388858,31.8493982 1.70211625,31.5927743 1.81887265,31.3911413 C1.93613449,31.1890128 2.19795187,31.1186642 2.40366553,31.2331046 C2.40871992,31.2360771 2.41427975,31.2390495 2.41933414,31.2425174 L8.18538183,34.6078569 C8.38856829,34.7277468 8.45478079,34.9863523 8.33246456,35.1860037 C8.25462696,35.3133248 8.11411493,35.3906092 7.96248324,35.3901224 Z" id="Fill-23" fill="#F4F6F8"></path>
        <line x1="2.19628392" y1="29.1136294" x2="7.96839688" y2="32.4789688" id="Fill-25" fill="#B5D6FB"></line>
        <path d="M7.96248324,32.8977499 C7.88565652,32.8982367 7.81085155,32.8774294 7.74615537,32.8373009 L1.98010768,29.4714661 C1.77388858,29.3570257 1.70211625,29.1004018 1.81887265,28.8987688 C1.93613449,28.6966404 2.19795187,28.6262917 2.40366553,28.7407321 C2.40871992,28.7437046 2.41427975,28.7466771 2.41933414,28.750145 L8.18538183,32.1154844 C8.38856829,32.2353743 8.45478079,32.4939798 8.33297,32.6931358 C8.25462696,32.8204569 8.11411493,32.8982367 7.96248324,32.8977499" id="Fill-27" fill="#F4F6F8"></path>
        <line x1="0.618707834" y1="24.1350771" x2="9.83690364" y2="29.222967" id="Fill-29" fill="#B5D6FB"></line>
        <polygon id="Fill-31" fill="#7BB8FC" points="0.409253928 24.5026239 0.827757389 23.7733761 10.0474695 28.8573028 9.62896605 29.5865505"></polygon>
        <line x1="7.63455444" y1="17.8466037" x2="6.3911746" y2="17.2402183" id="Fill-33" fill="#B5D6FB"></line>
        <path d="M7.63455444,18.2710362 C7.56834194,18.2715193 7.50263488,18.2571523 7.44248764,18.2284183 L6.20517306,17.622033 C5.99238325,17.5204734 5.90393144,17.2688037 6.00754642,17.0602349 C6.11116141,16.8516661 6.3679244,16.7644734 6.58071421,16.8665284 C6.58374684,16.8675193 6.58627404,16.8690055 6.58880123,16.8704917 L7.82611581,17.4768771 C8.0373893,17.5809138 8.12280848,17.8330789 8.01818262,18.0406569 C7.94337765,18.1808587 7.79578947,18.2690422 7.63455444,18.2710362 Z" id="Fill-35" fill="#02E2DF"></path>
        <path d="M18.944105,48.6098187 C18.870311,48.6103046 18.7975277,48.5914789 18.7338424,48.5553138 L9.74461048,43.5412404 C9.60965828,43.4679193 9.52626085,43.3282128 9.52775684,43.1771119 L9.52775684,15.8456807 C9.52828261,15.6995339 9.60561477,15.5642862 9.73197451,15.4874972 L26.0900011,5.74272661 C26.156719,5.70259817 26.2340512,5.68129541 26.3123942,5.68225317 C26.3861883,5.68225317 26.4584661,5.70111193 26.5226569,5.73678165 L35.5123942,10.7151853 C35.6473464,10.788011 35.7302384,10.9277174 35.7287221,11.0788183 L35.7782756,38.8828734 C35.7797715,39.0339743 35.6968795,39.1736807 35.5619273,39.2465064 L19.1543677,48.5553138 C19.0901769,48.5909835 19.0178991,48.6098187 18.944105,48.6098187" id="Fill-37" fill="#0A5FF1"></path>
        <path d="M26.3123437,5.2635633 C26.1556576,5.26455413 26.0014987,5.30616881 25.867052,5.38493945 L9.50902538,15.1302055 C9.25529502,15.2827927 9.10062955,15.5537835 9.10062955,15.8455817 L9.10062955,43.1765174 C9.10012526,43.4777284 9.26590924,43.7561505 9.53379189,43.9042789 L18.5230238,48.9183523 C18.6514053,48.9896917 18.7964663,49.027383 18.9440545,49.027383 C19.0941699,49.0288294 19.2422635,48.9887009 19.370645,48.9124073 L35.7782046,39.6040954 C36.04356,39.4544807 36.2063114,39.1765541 36.2048056,38.8763339 L36.1557675,11.0727743 C36.1562729,10.7710679 35.990489,10.4931413 35.7226063,10.3450128 L26.7333744,5.36660917 C26.6029711,5.29972844 26.458921,5.26455413 26.3123437,5.2635633 Z M26.3123437,6.10081101 L35.3015757,11.0792147 L35.3511087,38.8827743 L18.9435491,48.1910862 L9.95431711,43.1770128 L9.95431711,15.8455817 L26.3123437,6.1003156 L26.3123437,6.10081101 Z" id="Fill-39" fill="#1654E7"></path>
        <line x1="18.944105" y1="48.1912844" x2="18.944105" y2="20.775633" id="Fill-41" fill="#B5D6FB"></line>
        <mask id="mask-4" fill="white">
          <use xlink:href="#path-3"></use>
        </mask>
        <g id="Clip-44"></g>
        <polygon id="Fill-43" fill="#0276F7" mask="url(#mask-4)" points="18.5106911 48.1912844 19.3643775 48.1912844 19.3643775 20.775633 18.5106911 20.775633"></polygon>
        <line x1="35.3019295" y1="11.0791651" x2="18.9439029" y2="20.7753853" id="Fill-45" fill="#B5D6FB" mask="url(#mask-4)"></line>
        <polygon id="Fill-46" fill="#0276F7" mask="url(#mask-4)" points="18.7230766 20.4141303 35.0800923 10.7134514 35.521846 11.4293229 19.1658411 21.1300018"></polygon>
        <line x1="11.3775827" y1="16.621745" x2="18.944004" y2="20.7747908" id="Fill-47" fill="#B5D6FB" mask="url(#mask-4)"></line>
        <path d="M18.9378881,21.193979 C18.8640941,21.1929688 18.7918163,21.1741431 18.7276255,21.1394642 L11.1612043,16.9864183 C10.9544797,16.8739596 10.8796748,16.618822 10.993904,16.4161982 C11.1086386,16.2135743 11.3689397,16.1402532 11.5756642,16.2527119 L19.1420855,20.4057578 C19.3457774,20.5201982 19.4200769,20.7728587 19.3093858,20.9754826 C19.237108,21.1112257 19.0935633,21.1954459 18.9378881,21.193979" id="Fill-48" fill="#7BB8FC" mask="url(#mask-4)"></path>
        <line x1="11.3281508" y1="39.107345" x2="17.0941984" y2="42.4726844" id="Fill-49" fill="#B5D6FB" mask="url(#mask-4)"></line>
        <path d="M17.0939963,42.8913169 C17.0171695,42.8918037 16.9423646,42.8709963 16.8776684,42.8308679 L11.1116207,39.465033 C10.9054016,39.3505927 10.8336293,39.0939688 10.9503857,38.8923358 C11.0676475,38.6902073 11.3294649,38.6198587 11.5351786,38.7342991 C11.5402329,38.7372716 11.5452873,38.740244 11.5508472,38.7437119 L17.3168948,42.1090514 C17.5195759,42.2259688 17.5873047,42.4820972 17.4675157,42.6807578 C17.4670102,42.682244 17.4659993,42.6837303 17.4649885,42.6852165 C17.3856345,42.8115468 17.245628,42.8893266 17.0939963,42.8913169" id="Fill-50" fill="#02E2DF" mask="url(#mask-4)"></path>
        <line x1="11.3281508" y1="36.6149725" x2="17.0941984" y2="39.9803119" id="Fill-51" fill="#B5D6FB" mask="url(#mask-4)"></line>
        <path d="M17.0939963,40.3988949 C17.0171695,40.3993817 16.9423646,40.3785743 16.8776684,40.3384459 L11.1116207,36.972611 C10.9054016,36.8581706 10.8336293,36.6015468 10.9503857,36.3999138 C11.0676475,36.1977853 11.3294649,36.1274367 11.5351786,36.2418771 C11.5402329,36.2448495 11.5452873,36.247822 11.5508472,36.2512899 L17.3168948,39.6166294 C17.5195759,39.7335468 17.5873047,39.9896752 17.4675157,40.1883358 C17.4670102,40.189822 17.4659993,40.1913083 17.4649885,40.1927945 C17.3856345,40.3191248 17.245628,40.3969046 17.0939963,40.3988949" id="Fill-52" fill="#F4F6F8" mask="url(#mask-4)"></path>
        <line x1="11.3281508" y1="34.1225505" x2="17.0941984" y2="37.4878899" id="Fill-53" fill="#B5D6FB" mask="url(#mask-4)"></line>
        <path d="M17.0939963,37.906671 C17.0171695,37.9071578 16.9423646,37.8863505 16.8776684,37.846222 L11.1116207,34.4803872 C10.9054016,34.3659468 10.8336293,34.1093229 10.9503857,33.9076899 C11.0676475,33.7055615 11.3294649,33.6352128 11.5351786,33.7496532 C11.5402329,33.7526257 11.5452873,33.7555982 11.5508472,33.7590661 L17.3168948,37.1244055 C17.5195759,37.2413229 17.5873047,37.4974514 17.4675157,37.6961119 C17.4670102,37.6975982 17.4659993,37.6990844 17.4649885,37.7005706 C17.3856345,37.8269009 17.245628,37.9046807 17.0939963,37.906671" id="Fill-54" fill="#F4F6F8" mask="url(#mask-4)"></path>
        <line x1="9.47202725" y1="29.2591817" x2="18.9439534" y2="34.4862826" id="Fill-55" fill="#B5D6FB" mask="url(#mask-4)"></line>
        <polygon id="Fill-56" fill="#7BB8FC" mask="url(#mask-4)" points="9.26034941 29.6284128 9.67885287 28.8991651 19.147241 34.1198257 18.7282321 34.8490734"></polygon>
        <line x1="17.0013493" y1="23.3649083" x2="15.7579695" y2="22.7585229" id="Fill-57" fill="#B5D6FB" mask="url(#mask-4)"></line>
        <path d="M16.9951324,23.7894771 C16.9289199,23.7899725 16.8632128,23.7751101 16.803571,23.7468716 L15.5662565,23.1404862 C15.3529612,23.0389266 15.2645094,22.7872569 15.3681244,22.5786881 C15.4717394,22.3696239 15.7285024,22.2829266 15.9417976,22.3844862 C15.9443248,22.3859725 15.946852,22.3869633 15.9493792,22.3884495 L17.1871992,22.9948349 C17.3979673,23.099367 17.4838919,23.3510367 17.3787606,23.5591101 C17.3064828,23.7012936 17.1573783,23.7909633 16.9951324,23.7894771 Z" id="Fill-58" fill="#EFF2F5" mask="url(#mask-4)"></path>
        <path d="M27.9271201,53.588371 C27.853326,53.5888569 27.7805428,53.5700312 27.7168575,53.5338661 L18.7276255,48.5197927 C18.5926733,48.4464716 18.5092759,48.3067651 18.5107719,48.1556642 L18.5107719,20.824233 C18.5112977,20.6780862 18.5886298,20.5428385 18.7149896,20.466545 L35.0730162,10.7212789 C35.1397341,10.6811505 35.2170663,10.6598477 35.2954093,10.6608055 C35.372236,10.6598477 35.4475464,10.6811505 35.5122426,10.7212789 L44.3655115,15.8706 C44.4954093,15.9444165 44.5752687,16.080655 44.5757741,16.2282881 L44.5757741,43.9644716 C44.5757741,44.1150771 44.4928821,44.2542881 44.3594462,44.3286 L28.143448,53.5338661 C28.0772355,53.5695358 28.0029359,53.588371 27.9271201,53.588371" id="Fill-59" fill="#488AF9" mask="url(#mask-4)"></path>
        <path d="M35.3019295,10.242111 C35.1452434,10.2431064 34.9910845,10.2847211 34.8566377,10.3634917 L18.4986111,20.101822 C18.2448808,20.2544092 18.0902153,20.5254 18.0902153,20.8171982 L18.0902153,48.1491248 C18.089711,48.4503358 18.255495,48.7287578 18.5233777,48.8763908 L27.5126096,53.8909596 C27.6409911,53.9618037 27.7860521,53.999455 27.9331348,53.9999903 C28.0837556,54.0014367 28.2318492,53.9613083 28.3602307,53.8850147 L44.5812834,44.680244 C44.8466388,44.5306294 45.0098956,44.2527028 45.0083898,43.9524826 L45.0083898,16.2276936 C45.0078739,15.9309413 44.8481551,15.656978 44.5878541,15.5058771 L35.7340798,10.356556 C35.6031711,10.2812532 35.4540666,10.2416202 35.3019295,10.242111 Z M35.3019295,11.0793633 L44.1551983,16.228189 L44.1551983,43.9648679 L27.9270696,53.1701339 L18.9378376,48.1550697 L18.9378376,20.8241339 L35.3019295,11.0788679 L35.3019295,11.0793633 Z" id="Fill-60" fill="#1654E7" mask="url(#mask-4)"></path>
        <line x1="27.9273223" y1="51.2778055" x2="27.9273223" y2="25.7541358" id="Fill-61" fill="#B5D6FB" mask="url(#mask-4)"></line>
        <path d="M27.9271201,51.6963303 C27.6915855,51.6958349 27.5005296,51.5090642 27.5005296,51.2782018 L27.5005296,25.7540367 C27.5005296,25.5231743 27.6915855,25.3359083 27.9271201,25.3359083 C28.1631601,25.3359083 28.354216,25.5231743 28.354216,25.7540367 L28.354216,51.2782018 C28.3537106,51.5090642 28.1626547,51.6958349 27.9271201,51.6963303" id="Fill-62" fill="#7BB8FC" mask="url(#mask-4)"></path>
        <line x1="42.4910405" y1="17.197811" x2="27.9273223" y2="25.7540862" id="Fill-63" fill="#B5D6FB" mask="url(#mask-4)"></line>
        <path d="M27.9271201,26.1726698 C27.7764993,26.1736514 27.6369981,26.0948807 27.5621932,25.9665688 C27.4403824,25.7688991 27.5050786,25.5122752 27.7062433,25.3928807 C27.7077596,25.3923853 27.7092759,25.3913945 27.7107922,25.3904037 L42.2745105,16.8400734 C42.4802242,16.725633 42.7420415,16.7959817 42.8587979,16.9976147 C42.9725217,17.1933028 42.908331,17.442 42.713737,17.5613945 L28.1500187,26.1122202 C28.0822899,26.1518532 28.0054631,26.1726698 27.9271201,26.1726698 Z" id="Fill-64" fill="#7BB8FC" mask="url(#mask-4)"></path>
        <line x1="20.5648962" y1="21.7095358" x2="27.9271201" y2="25.7540862" id="Fill-65" fill="#B5D6FB" mask="url(#mask-4)"></line>
        <path d="M27.9274739,26.1726606 C27.8536798,26.1716697 27.781402,26.152844 27.7172113,26.1181651 L20.3549874,22.0795596 C20.1497791,21.9646239 20.0785123,21.7084954 20.1957741,21.5073578 C20.3105087,21.3101835 20.56525,21.2383486 20.7694473,21.3458532 L28.1316712,25.3904037 C28.3353631,25.504844 28.4091572,25.7575046 28.2984661,25.9606239 C28.2231557,26.0914128 28.0811273,26.1726606 27.9274739,26.1726606" id="Fill-66" fill="#7BB8FC" mask="url(#mask-4)"></path>
        <line x1="20.2865509" y1="44.3345945" x2="26.0586639" y2="47.6999339" id="Fill-67" fill="#B5D6FB" mask="url(#mask-4)"></line>
        <path d="M26.0586133,48.1183683 C25.9817866,48.118855 25.9069817,48.0980477 25.8422855,48.0579193 L20.0762378,44.6920844 C19.8700187,44.577644 19.7982463,44.3210202 19.9150027,44.1193872 C20.0322646,43.9172587 20.294082,43.8469101 20.4997956,43.9613505 C20.50485,43.9643229 20.5099044,43.9672954 20.5154642,43.9707633 L26.2815119,47.3361028 C26.4841929,47.4530202 26.5519218,47.7091486 26.4321327,47.9078092 C26.4316273,47.9092954 26.4306164,47.9107817 26.4296055,47.9122679 C26.3502516,48.0385982 26.210245,48.116378 26.0586133,48.1183683" id="Fill-68" fill="#02E2DF" mask="url(#mask-4)"></path>
        <line x1="20.2865509" y1="41.842222" x2="26.0586639" y2="45.2075615" id="Fill-69" fill="#B5D6FB" mask="url(#mask-4)"></line>
        <path d="M26.0586133,45.626293 C25.9817866,45.6267798 25.9069817,45.6059725 25.8422855,45.565844 L20.0762378,42.2000092 C19.8700187,42.0855688 19.7982463,41.828945 19.9150027,41.6273119 C20.0322646,41.4251835 20.294082,41.3548349 20.4997956,41.4692752 C20.50485,41.4722477 20.5099044,41.4752202 20.5154642,41.4786881 L26.2815119,44.8440275 C26.4841929,44.960945 26.5519218,45.2170734 26.4321327,45.4157339 C26.4316273,45.4172202 26.4306164,45.4187064 26.4296055,45.4201927 C26.3502516,45.5465229 26.210245,45.6243028 26.0586133,45.626293" id="Fill-70" fill="#F4F6F8" mask="url(#mask-4)"></path>
        <line x1="20.2865509" y1="39.3498" x2="26.0586639" y2="42.7151394" id="Fill-71" fill="#B5D6FB" mask="url(#mask-4)"></line>
        <path d="M26.0586133,43.139816 C25.9817866,43.1403028 25.9069817,43.1194954 25.8422855,43.079367 L20.0762378,39.7135321 C19.8740622,39.5926514 19.8098714,39.3345413 19.9331985,39.1358807 C20.0545039,38.9406881 20.3132886,38.8762844 20.5154642,38.9917156 L26.2815119,42.3575505 C26.4841929,42.4744679 26.5519218,42.7305963 26.4321327,42.9292569 C26.4316273,42.9307431 26.4306164,42.9322294 26.4296055,42.9337156 C26.3502516,43.0600459 26.210245,43.1378257 26.0586133,43.139816" id="Fill-72" fill="#F4F6F8" mask="url(#mask-4)"></path>
        <line x1="18.7088232" y1="34.3773413" x2="27.927019" y2="39.4592862" id="Fill-73" fill="#B5D6FB" mask="url(#mask-4)"></line>
        <polygon id="Fill-74" fill="#7BB8FC" mask="url(#mask-4)" points="18.4960839 34.7415193 18.9145874 34.0122716 28.134805 39.097189 27.7163015 39.8264367"></polygon>
        <line x1="25.7248214" y1="28.0888679" x2="24.4875069" y2="27.4824826" id="Fill-75" fill="#B5D6FB" mask="url(#mask-4)"></line>
        <path d="M25.7248214,28.507405 C25.6586089,28.5078881 25.5929019,28.4935211 25.5332601,28.4647872 L24.2959455,27.8584018 C24.0851775,27.7523835 24.00178,27.4992275 24.1104494,27.2926404 C24.2165916,27.0890257 24.4698165,27.0067872 24.6790682,27.1068606 L25.9168883,27.7132459 C26.1276563,27.817778 26.2130755,28.0694477 26.1084496,28.2770257 C26.0336447,28.4172275 25.8860565,28.505411 25.7248214,28.507405" id="Fill-76" fill="#02E2DF" mask="url(#mask-4)"></path>
      </g>
    </g>
  </g>
</svg>
