<?xml version="1.0" encoding="UTF-8"?>
<svg xmlns="http://www.w3.org/2000/svg" xmlns:xlink="http://www.w3.org/1999/xlink" width="60px" height="60px" viewBox="0 0 60 60" version="1.1">
  <title>邮件服务器</title>
  <defs>
    <polygon id="path-1" points="0 0 35 0 35 54 0 54"></polygon>
    <polyline id="path-3" points="0 8.33468969 10.0235739 14.1981695 10.0473419 5.86347978 0.0231738325 0"></polyline>
  </defs>
  <g id="页面" stroke="none" stroke-width="1" fill="none" fill-rule="evenodd">
    <g id="图标" transform="translate(-127.000000, -221.000000)">
      <g id="邮件服务器" transform="translate(139.000000, 224.000000)">
        <g id="编组">
          <path d="M15.060139,53.5949584 C14.9888349,53.59666 14.9187192,53.574988 14.8604875,53.534052 L0.61987031,45.5912643 C0.487957725,45.5184223 0.403581206,45.3793603 0.400016001,45.2264523 L0.400016001,12.5023355 C0.404175407,12.3548455 0.478450512,12.2187935 0.600261683,12.1375236 L19.5398191,0.465947983 C19.6063696,0.425011984 19.6824273,0.403941985 19.7602676,0.405041552 C19.8315717,0.403339985 19.9010932,0.425011984 19.9599191,0.465947983 L34.3401734,8.69287968 C34.4744628,8.76090568 34.5534915,8.90598767 34.5398249,9.05769166 L34.5398249,42.2682244 C34.5413515,42.4223364 34.4560426,42.5638064 34.3199706,42.6324344 L15.219979,53.534052 C15.2003704,53.574386 15.1403561,53.5949584 15.060139,53.5949584" id="Fill-1" fill="#0A5FF1"></path>
          <g>
            <mask id="mask-2" fill="white">
              <use xlink:href="#path-1"></use>
            </mask>
            <g id="Clip-4"></g>
            <path d="M19.7801139,-6.36083769e-06 C19.6250275,-0.000601999978 19.4735063,0.0415379985 19.3404053,0.121603995 L0.400253682,11.7931796 C0.154848737,11.9436796 0.0039217255,12.2121715 -0.00026353985,12.5023355 L-0.00026353985,45.2264523 C-0.00261448367,45.5292583 0.159008143,45.8091883 0.419862309,45.9560763 L14.6598853,53.898864 C14.7840733,53.963278 14.9207395,53.997592 15.0603767,53.9999936 C15.2053617,53.995184 15.3485641,53.96087 15.4798824,53.898864 L34.5804683,42.9972464 C34.8413224,42.8503584 35.0023509,42.5710304 35,42.2682244 L35,9.07755766 C35.0023509,8.77535367 34.8413224,8.49542369 34.5804683,8.34853569 L20.180011,0.121603995 C20.0611709,0.0421399984 19.9221279,-6.36083769e-06 19.7801139,-6.36083769e-06 Z M19.7801139,0.830759969 L34.1603683,9.05769166 L34.1603683,42.2682244 L15.0603767,53.16924 L0.819759471,45.2264523 L0.819759471,12.5023355 L19.7801139,0.830759969 L19.7801139,0.830759969 Z" id="Fill-3" fill="#1654E7" mask="url(#mask-2)"></path>
          </g>
          <polygon id="Fill-5" fill="#488AF9" points="19.7801139 0.830880369 0.839962299 12.5024559 15.0799853 20.3441076 34.1805711 9.05781206"></polygon>
          <line x1="15.060139" y1="51.2846791" x2="15.060139" y2="20.3436862" id="Fill-7" fill="#B5D6FB"></line>
          <path d="M15.060139,51.6900072 C14.8289949,51.6888017 14.6418216,51.4991717 14.640039,51.2643917 L14.640039,20.3432648 C14.6346912,20.1139029 14.8135456,19.9236709 15.0399362,19.9182529 C15.0470666,19.9178014 15.0536028,19.9178014 15.060139,19.9182529 C15.2865295,19.9122329 15.474297,20.0940369 15.480239,20.3233988 C15.480239,20.3300208 15.480239,20.3366428 15.480239,20.3432648 L15.480239,51.2842577 C15.4701376,51.5118137 15.2847469,51.6906077 15.060139,51.6900072" id="Fill-9" fill="#7BB8FC"></path>
          <line x1="31.8802414" y1="10.4151414" x2="15.0601984" y2="20.343927" id="Fill-11" fill="#B5D6FB"></line>
          <path d="M15.060139,20.7690113 C14.9145598,20.764725 14.7802704,20.689475 14.7000533,20.566667 C14.5889377,20.363191 14.6495462,20.1079431 14.8402847,19.9791151 L31.6603277,10.0503294 C31.8587908,9.93835743 32.1095435,10.0105974 32.2200649,10.2122674 C32.3305862,10.4133354 32.2592821,10.6673794 32.0602248,10.7793514 L15.2401818,20.728605 C15.184327,20.756297 15.1225301,20.770143 15.060139,20.7690113" id="Fill-13" fill="#7BB8FC"></path>
          <line x1="2.64003431" y1="13.4951539" x2="15.0600201" y2="20.3441076" id="Fill-15" fill="#B5D6FB"></line>
          <path d="M15.060139,20.7693604 C14.9918059,20.7657484 14.9246612,20.7519024 14.8604875,20.7290264 L2.43990746,13.8800727 C2.23253137,13.7771307 2.14399545,13.5254947 2.24025598,13.3129887 C2.34186433,13.1022887 2.59024028,13.0125907 2.79999317,13.1101147 C2.820196,13.1101147 2.820196,13.1305827 2.84039883,13.1305827 L15.2597905,19.9795365 C15.4570651,20.0854885 15.5319344,20.3341144 15.4273551,20.5339784 C15.4249783,20.5381924 15.4226015,20.5424064 15.4202247,20.5466204 C15.356051,20.6880904 15.2134428,20.7759824 15.060139,20.7693604" id="Fill-17" fill="#7BB8FC"></path>
          <line x1="0.340061137" y1="28.6312995" x2="15.0601984" y2="36.7769612" id="Fill-19" fill="#B5D6FB"></line>
          <polygon id="Fill-21" fill="#7BB8FC" points="0.139934296 28.9959309 0.539831458 28.246441 15.2593745 36.3921027 14.8588832 37.1415926"></polygon>
          <line x1="10.4400492" y1="22.1269908" x2="12.8198236" y2="23.3424287" id="Fill-23" fill="#B5D6FB"></line>
          <path d="M12.8201207,23.7478757 C12.7583238,23.7442637 12.6977153,23.7304177 12.6400778,23.7075417 L10.2597093,22.4915018 C10.0594636,22.3825398 9.97984069,22.1315058 10.0796664,21.9244178 C10.1854342,21.7179318 10.4355927,21.6366618 10.6399978,21.7420118 L13.0197722,22.9574497 C13.220612,23.0670137 13.3002349,23.3174457 13.199815,23.5251357 C13.1231631,23.6641977 12.9775839,23.7496817 12.8201207,23.7478757" id="Fill-25" fill="#02E2DF"></path>
        </g>
        <g id="编组" transform="translate(2.676281, 34.056945)">
          <mask id="mask-4" fill="white">
            <use xlink:href="#path-3"></use>
          </mask>
          <g id="Clip-28"></g>
          <path d="M9.68862286,5.65482659 L0.381060995,0.210338792 C0.183192117,0.0947547965 0.0215694903,0.186258793 0.0209752894,0.417426785 L0.00017826025,7.92015251 C0.0138448794,8.1747985 0.146945866,8.40717049 0.357887162,8.54623248 L9.66544903,13.9901183 C9.8633179,14.1063043 10.0237521,14.0123923 10.0243463,13.7830303 L10.0451434,6.28090657 C10.0320709,6.02626058 9.89956416,5.79388859 9.68862286,5.65542859 M5.02295791,7.38678053 L5.02176951,7.38316853 L1.29672448,1.57868474 L8.76820577,5.94980658 L5.02414631,7.38557653 L5.02176951,7.38678053 M5.02117531,8.2211525 C5.1560589,8.31506449 5.32600034,8.34215449 5.48286936,8.29399449 L9.32794295,6.82029855 L9.31130533,12.9468523 L0.718567069,7.92015251 L0.735798893,1.79420073 L4.56007546,7.75339851 C4.67535042,7.94363051 4.83340784,8.1037625 5.02117531,8.2211525" id="Fill-27" fill="#F7F9FC" mask="url(#mask-4)"></path>
        </g>
      </g>
    </g>
  </g>
</svg>
